<?xml version="1.0" encoding="utf-8"?>
<!-- Generator: Adobe Illustrator 24.0.2, SVG Export Plug-In . SVG Version: 6.00 Build 0)  -->
<svg version="1.1" id="Layer_1" xmlns="http://www.w3.org/2000/svg" xmlns:xlink="http://www.w3.org/1999/xlink" x="0px" y="0px"
	 viewBox="0 0 94.7 92.1" style="enable-background:new 0 0 94.7 92.1;" xml:space="preserve">
<title>Asset 9</title>
<g id="Layer_2_1_">
	<g id="Layer_1-2">
		<path d="M87.6,42.9c-0.7,1.3-1.5,2.5-2.5,3.6H10c-0.9-1.1-1.7-2.4-2.4-3.6H87.6z M82,50.4H13.1c1,1.3,2.2,2.4,3.5,3.4h61.5
			C79.7,52.9,81,51.8,82,50.4z M73.5,57.3H54.6c-0.4,2.6-0.6,5.2-0.6,7.9C59.5,64.8,66.8,62.3,73.5,57.3L73.5,57.3z M94.6,18.4
			c-8.6,0.6-21,6.4-29,15.8c-1.4,1.6-2.7,3.3-3.8,5.1h27.7C93.2,31.9,95.2,24.5,94.6,18.4z M41,65.2c0.1-2.6,0-5.2-0.3-7.8H21.6
			C28.3,62.3,35.6,64.8,41,65.2L41,65.2z M47.6,65.7c2.3-2.5,4.3-5.3,5.9-8.4H41.6C43.2,60.4,45.2,63.2,47.6,65.7L47.6,65.7z
			 M33.5,39.4c-1.1-1.8-2.4-3.5-3.8-5.1c-8-9.4-20.5-15.2-29-15.8c-0.6,6,1.3,13.4,5,20.9H33.5z M59.6,39.4c0.2-2.2,0.4-4.2,0.4-6.6
			C59.9,19.6,54,6.1,47.6,0C41,6.1,35.2,19.6,35.2,32.7c-0.1,2.2,0.1,4.4,0.4,6.6h24V39.4z M87.4,92.1c3.9,0,7.2-1.6,7.2-5.5
			c0-2.2-1.6-3.7-4.1-4.4s-6-0.6-6-2.2c0.2-1.1,1.2-1.4,2.8-1.4c2.4,0,2.5,1.3,2.6,2.2h4c-0.3-3.1-2.8-5.2-6.8-5.2
			c-4.2,0-6.6,2.2-6.6,5.1c0,1.6,0.8,3.1,2.2,3.9c1.3,0.5,2.7,0.9,4.1,1.1c1.8,0.2,3.4,0.4,3.5,1.6c0,0.8-0.8,1.9-2.7,1.9
			c-2.7,0-3.3-1.5-3.3-2.5h-4.2C80.2,89.8,82.9,92.1,87.4,92.1z M65.4,83.8c0.1,2.5,2.2,4.6,4.7,4.6c2.6,0,4.6-2.1,4.6-4.6
			c0-2.6-2.1-4.6-4.6-4.6C67.5,79.1,65.5,81.2,65.4,83.8z M69.9,92.1c-4.6,0-8.3-3.7-8.3-8.3s3.7-8.3,8.3-8.3l0,0
			c1.7,0,3.3,0.5,4.7,1.4v-1.2h4v16.1h-4v-1C73.2,91.6,71.6,92.1,69.9,92.1L69.9,92.1z M47,83.8c0,2.6,2.1,4.6,4.7,4.6
			c2.6,0,4.6-2.1,4.6-4.7s-2.1-4.6-4.7-4.6C49,79.2,47,81.2,47,83.8z M56.2,70.1h3.9v21.6h-3.9v-1c-1.4,0.9-3.1,1.4-4.8,1.4
			c-4.6-0.1-8.3-3.9-8.2-8.4c0.1-4.6,3.9-8.3,8.4-8.2c1.6,0,3.2,0.5,4.5,1.4L56.2,70.1L56.2,70.1z M37.5,74.1v-4h3.9v4H37.5z
			 M41.5,91.7h-3.9V75.6h3.9V91.7L41.5,91.7z M22.2,83.7c0,2.6,2,4.7,4.6,4.7s4.7-2,4.7-4.6s-2-4.7-4.6-4.7
			C24.4,79.1,22.3,81.2,22.2,83.7L22.2,83.7z M26.8,92c-4.6,0-8.3-3.8-8.3-8.4s3.8-8.3,8.4-8.3c1.7,0,3.3,0.5,4.7,1.5v-6.7h4v21.6
			h-4v-1C30.2,91.6,28.5,92.1,26.8,92L26.8,92z M3.8,83.7c0.1,2.5,2.1,4.5,4.6,4.6c2.6,0,4.6-2.1,4.6-4.6c0-2.6-2.1-4.6-4.6-4.6
			C5.8,79.1,3.8,81.2,3.8,83.7z M8.3,92C3.7,92,0,88.3,0,83.7c0-4.6,3.7-8.3,8.3-8.3c1.7,0,3.4,0.5,4.9,1.4v-1.2h3.9v16.1h-3.9v-1
			C11.7,91.6,10.1,92.1,8.3,92L8.3,92z"/>
	</g>
</g>
</svg>
