<?xml version="1.0" encoding="utf-8"?>
<!-- Generator: Adobe Illustrator 24.0.1, SVG Export Plug-In . SVG Version: 6.00 Build 0)  -->
<svg version="1.1" id="Layer_1" xmlns="http://www.w3.org/2000/svg" xmlns:xlink="http://www.w3.org/1999/xlink" x="0px" y="0px"
	 viewBox="0 0 22.1 14.7" style="enable-background:new 0 0 22.1 14.7;" xml:space="preserve">
<style type="text/css">
	.st0{clip-path:url(#SVGID_2_);}
	.st1{fill:#1D1D1B;}
</style>
<g>
	<defs>
		<rect id="SVGID_1_" width="170.4" height="14.7"/>
	</defs>
	<clipPath id="SVGID_2_">
		<use xlink:href="#SVGID_1_"  style="overflow:visible;"/>
	</clipPath>
	<g transform="translate(0)" class="st0">
		<g transform="translate(0 -1)">
			<path class="st1" d="M13.7,2.2h4.5l0.6-0.9h-8.5L10,5.1h0.6C10.8,3.4,12.1,2.2,13.7,2.2"/>
			<path class="st1" d="M9.4,15.7l10-14.3h2.3l-10,14.4L9.4,15.7L9.4,15.7z"/>
			<path class="st1" d="M6,4.1l0.7,1.7l-4.2,9c0,0-0.3,0.5,0.2,0.6l0.5,0.1v0.4H0v-0.3c0,0,0.6,0.2,1-0.8L6,4.1z"/>
			<path class="st1" d="M12.3,15.7h9.3l0.5-3.9h-0.5c0,0-0.7,2.9-2.9,2.9h-5.7L12.3,15.7z"/>
			<path class="st1" d="M6.2,3.6l4,10.1l1.3-1.8L7.3,1.3L6.2,3.6z"/>
		</g>
	</g>
</g>
</svg>
