<svg xmlns="http://www.w3.org/2000/svg" viewBox="0 0 125.43 78.39"><defs><style>.cls-1{fill:#0073a5;}.cls-2{fill:#fff;}</style></defs><title>Amex</title><g id="Layer_2" data-name="Layer 2"><g id="Layer_1-2" data-name="Layer 1"><rect class="cls-1" width="125.43" height="78.39" rx="4.18"/><polygon class="cls-2" points="18.7 29.78 22.21 29.78 20.42 25.68 18.7 29.78"/><path class="cls-2" d="M63.28,25.71H59.67v2.66h3.59c1.18,0,1.6-.52,1.6-1.31A1.38,1.38,0,0,0,63.28,25.71Z"/><path class="cls-2" d="M99.51,20.83v2.4l-1.41-2.4H90.33v2.4l-1.06-2.4H77.14a5.58,5.58,0,0,0-3.06.9v-.9H67.21v.64a4.66,4.66,0,0,0-2.37-.64H37.57l-1.86,4-1.9-4H25.17v2.34l-1-2.36H17.11l-3.69,8.35v8.19h5l1.21-2.71h1.95l1.14,2.71h9.71V36l.65,1.34h5.2l.6-1.25v1.25h22.9V33h.42s.43,0,.43.52v3.86H74.1V36.2a7.51,7.51,0,0,0,3.75,1.17h5.74l1.25-3H86.7l1.33,3h9.48V34.5l1.8,2.89h7.63V20.83Zm-55.9,14.1H40.73V26.36l-3.94,8.57H34.16l-3.85-8.71v8.71h-5.8l-1.14-2.62H17.61l-1.12,2.62h-3l5.13-11.74H22.4l5,11.31V23.19H32l3.52,7.88L39,23.19h4.6Zm11.47-9.21H48.54v2.2H54.9v2.23H48.54v2.32h6.54v2.46H45.66V23.19h9.42Zm12.56,6.8.11,2.41H64.94l-.08-2.15c0-1-.42-2-1.41-2H59.67v4.14H56.79V23.19h7.5c1.41,0,3.46.63,3.46,3.15a3.21,3.21,0,0,1-2,3.25C67.12,29.74,67.64,30.63,67.64,32.52Zm4.5,2.41H69.26V23.18h2.88Zm32.63,0h-3.94l-5.18-8.6v8.6H90l-1.14-2.62H83.07l-1.13,2.62h-3.8c-3.2,0-4.61-2.68-4.55-5.93.1-4.82,3-5.82,4.26-5.82h3.77v2.55H79.84c-1.92,0-3.41.2-3.41,3v.85c0,2.07,1.1,2.56,1.79,2.71.17,0,1.85,0,1.85,0l4-9.1h3.81l4.91,11v-11H97l4.86,8.13V23.19h2.89Z"/><polygon class="cls-2" points="84.18 29.79 87.7 29.79 85.89 25.68 84.18 29.79"/><path class="cls-2" d="M62.18,46h-3.6v2.82h3.59a1.42,1.42,0,1,0,0-2.82Z"/><path class="cls-2" d="M74.59,46H71v2.66h3.59c1.18,0,1.6-.52,1.6-1.31A1.38,1.38,0,0,0,74.59,46Z"/><polygon class="cls-2" points="55.67 54.09 55.67 44.6 51.53 49.19 55.67 54.09"/><polygon class="cls-2" points="38.01 45.98 38.01 48.18 44.36 48.18 44.36 50.4 38.01 50.4 38.01 52.72 44.65 52.72 47.82 49.19 45.02 45.99 38.01 45.98"/><path class="cls-2" d="M108.31,55.24h-6V52.72H107c.8,0,2,0,2-1.12,0-.54-.2-.88-1.06-1-.37-.06-1.77-.13-2-.14-3.2-.08-3.94-1.67-3.94-3.61a3.24,3.24,0,0,1,3.43-3.41h6.06V46H107c-1,0-2.1-.12-2.1,1,0,.72.54.86,1.22.93l2,.08c3,.16,3.67,1.46,3.8,3V41h-6.76a5.31,5.31,0,0,0-2.23.6V41h-8.6a4.49,4.49,0,0,0-2.21.6V41H79v.65a5.23,5.23,0,0,0-2.4-.65H66.27v.57A5.21,5.21,0,0,0,64.16,41H52.61L50.4,43.41,48.23,41h-15V57.57H48L50.23,55l2.07,2.53h9.12v-4h2.66a5,5,0,0,0,2.19-.44v4.48h7.4V53.06H74c.35,0,.52.08.52.47v4H98.2a4.56,4.56,0,0,0,2.14-.5v.5h8.91a3.69,3.69,0,0,0,2.72-1v-4.4A3.43,3.43,0,0,1,108.31,55.24Zm-45.91-4H58.53v4H53l-3.38-3.9-3.46,3.88h-11V43.45H46.53l3.19,3.67L53,43.47H63.14a3.26,3.26,0,0,1,3.49,3.59C66.63,51.18,63.9,51.23,62.4,51.23ZM79,52.8l.1,2.41h-2.8l-.08-2.15c0-1-.42-2-1.41-2H71v4.14H68.1V43.47h7.5c1.41,0,3.45.63,3.45,3.15a3.2,3.2,0,0,1-2,3.25C78.43,50,79,50.91,79,52.8ZM90,46H83.42v2.21h6.36V50.4H83.42v2.32H90v2.47H80.54V43.45H90Zm7.5,9.27h-6V52.72h4.71c.8,0,2,0,2-1.12,0-.54-.22-.88-1.07-1-.38-.06-1.78-.13-2-.14-3.2-.08-3.94-1.67-3.94-3.61a3.24,3.24,0,0,1,3.43-3.41h6V46H96.18c-1,0-2.1-.12-2.1,1,0,.72.54.86,1.22.93l2,.08c3.55.18,3.84,1.95,3.84,3.84A3.42,3.42,0,0,1,97.46,55.24Z"/></g></g></svg>