<svg height="48" viewBox="0 0 144 48" width="144" xmlns="http://www.w3.org/2000/svg" xmlns:xlink="http://www.w3.org/1999/xlink"><mask id="a" fill="#fff"><path d="m0 .048h142.5996v47.952h-142.5996z" fill="#fff" fill-rule="evenodd"/></mask><g fill="none" fill-rule="evenodd" transform="translate(.833333)"><path d="m131.243017 0h-119.8804753c-.4373417 0-.868725 0-1.304875.0024-.36465003.0024-.7269167.0096-1.0951417.0156-.79365.0192-1.59564167.0684-2.3881.2112-.797225.1416-1.53844167.3816-2.26535833.7524-.71261667.3684-1.36445834.846-1.92811667 1.4148-.57080833.5688-1.04270833 1.2276-1.404975 1.9452-.37060833.7308-.60536667 1.4808-.74479167 2.2836-.143.7956-.19305 1.5996-.21330833 2.4024-.010725.3684-.01191667.738-.017875 1.1052v1.3104 25.1148 1.3128c.00595833.372.00715.7332.017875 1.1052.02025833.804.07030833 1.608.21330833 2.4024.139425.804.37418334 1.5576.74479167 2.286.36226667.714.83416667 1.3728 1.404975 1.9368.56365833.5736 1.2155 1.05 1.92811667 1.4148.72691666.3744 1.46813333.612 2.26535833.7572.79245833.1428 1.59445.1896 2.3881.2112.368225.0084.73049167.0132 1.0951417.0132.43615.0024.8675333.0024 1.304875.0024h119.8804753c.430191 0 .863958 0 1.291766-.0024.36465 0 .73645-.0048 1.099909-.0132.798416-.0216 1.599216-.0684 2.383333-.2112.798417-.1452 1.539633-.3828 2.2737-.7572.711425-.3648 1.363267-.8412 1.928117-1.4148.566041-.564 1.039133-1.2228 1.406166-1.9368.365842-.7284.604175-1.482.737642-2.286.147767-.7944.19305-1.5984.222842-2.4024.003575-.372.003575-.7332.003575-1.1052.009533-.4368.009533-.87.009533-1.3128v-25.1148c0-.4392 0-.8748-.009533-1.3104 0-.3672 0-.7368-.003575-1.1052-.029792-.8028-.075075-1.6068-.222842-2.4024-.133467-.8028-.3718-1.5528-.737642-2.2836-.367033-.7176-.840125-1.3764-1.406166-1.9452-.56485-.5688-1.216692-1.0464-1.928117-1.4148-.734067-.3708-1.475283-.6108-2.2737-.7524-.784117-.1428-1.584917-.192-2.383333-.2112-.363459-.006-.735259-.0132-1.099909-.0156-.427808-.0024-.861575-.0024-1.291766-.0024" fill="#a9aaa9" mask="url(#a)"/><path d="m10.063625 46.95c-.36345833 0-.71738333-.0048-1.07726667-.0132-.66733333-.018-1.45740833-.0564-2.22841666-.1956-.72691667-.132-1.3728-.348-1.9734-.6576-.62205-.3168-1.18094167-.7272-1.66475834-1.2192-.49335-.4884-.89970833-1.0476-1.21669166-1.6764-.30864167-.606-.51956667-1.2564-.647075-1.9884-.14538334-.8076-.182325-1.626-.19781667-2.25-.00834167-.2532-.017875-1.0956-.017875-1.0956v-27.7212s.010725-.8292.017875-1.0728c.01549167-.6288.05243333-1.4472.196625-2.2464.12750833-.7368.33843333-1.3872.64826667-1.9944.31579166-.63.72215-1.1928 1.20954166-1.6776.49215834-.4968 1.05343334-.9084 1.67071667-1.2276.61251667-.3132 1.25720833-.5268 1.969825-.6528.80318333-.144 1.6159-.1812 2.23556667-.1968l1.07488333-.0144h122.4652l1.087992.0156c.611325.0144 1.425233.0516 2.215308.1944.717383.1272 1.368033.342 1.991275.6576.611325.3156 1.170217.7272 1.657608 1.2192.489775.4872.896134 1.0536 1.220267 1.6848.30745.6132.515992 1.2636.638733 1.9788.137042.7572.179942 1.5348.206159 2.2644.003575.3396.003575.7056.003575 1.068.010725.45.010725.8784.010725 1.3104v25.1148c0 .4356 0 .8616-.010725 1.29 0 .39 0 .7476-.004767 1.116-.025025.7068-.067925 1.4832-.203775 2.2236-.123933.7356-.332475 1.386-.6435 2.004-.320558.624-.7293 1.1868-1.209542 1.6632-.49335.5016-1.052241.9108-1.667141 1.2264-.619667.3168-1.250059.5268-1.988892.66-.762667.1392-1.552742.1776-2.227225.1956-.347967.0084-.715.0132-1.070117.0132l-1.291766.0024z" fill="#000"/><g fill="#fffffe"><path d="m29.5163917 24.3612c-.0297917-3.3012 2.6836333-4.908 2.8087583-4.9836-1.53725-2.256-3.9205833-2.5644-4.7571333-2.5884-2.0008084-.2124-3.9408417 1.206-4.9609084 1.206-1.0391333 0-2.6085583-1.1856-4.2995333-1.1496-2.1759833.0336-4.2137333 1.3032-5.330325 3.2736-2.3046833 4.0176-.5851083 9.9228 1.6218583 13.17 1.104675 1.5912 2.39525 3.3684 4.0850334 3.3048 1.6528416-.0684 2.270125-1.062 4.264975-1.062 1.976975 0 2.556125 1.062 4.279275 1.0224 1.7732-.0288 2.8909833-1.5984 3.957525-3.204 1.276275-1.8228 1.7886916-3.6192 1.80895-3.7104-.0417084-.0144-3.4451084-1.3212-3.478475-5.2788"/><path d="m26.2607583 14.6532c.8889834-1.1196 1.4967334-2.6424 1.3287084-4.1892-1.287.0576-2.89575.8964-3.8228667 1.992-.8198667.9648-1.55155 2.5464-1.3632667 4.0332 1.4454917.1092 2.9303084-.7344 3.857425-1.836"/><path d="m45.3536417 30.7092h4.4711333l-2.2045833-6.5364h-.060775zm5.0562416 1.8588h-5.6401583l-1.354925 4.0272h-2.3892917l5.3434334-14.9016h2.4822416l5.3422417 14.9016h-2.4298083z"/><path d="m63.45625 31.164c0-2.1996-1.1297-3.6456-2.8516583-3.6456-1.6921667 0-2.8302084 1.476-2.8302084 3.6456 0 2.1888 1.1380417 3.6552 2.8302084 3.6552 1.7219583 0 2.8516583-1.4364 2.8516583-3.6552zm2.2760833 0c0 3.3756-1.79465 5.5452-4.5033083 5.5452-1.53725 0-2.7575167-.6924-3.3938667-1.9008h-.0512416v5.3808h-2.2153084v-14.4588h2.1438084v1.8072h.0405166c.6160917-1.1652 1.9293084-1.92 3.435575-1.92 2.73845 0 4.543825 2.1792 4.543825 5.5464z"/><path d="m75.3300167 31.164c0-2.1996-1.1285084-3.6456-2.8504667-3.6456-1.6921667 0-2.8302083 1.476-2.8302083 3.6456 0 2.1888 1.1380416 3.6552 2.8302083 3.6552 1.7219583 0 2.8504667-1.4364 2.8504667-3.6552zm2.2760833 0c0 3.3756-1.7934583 5.5452-4.5021167 5.5452-1.53725 0-2.7575166-.6924-3.3938666-1.9008h-.0512417v5.3808h-2.2153083v-14.4588h2.1438083v1.8072h.0405167c.6160916-1.1652 1.9281166-1.92 3.435575-1.92 2.73845 0 4.5426333 2.1792 4.5426333 5.5464z"/><path d="m85.4556083 32.4432c.1632584 1.4784 1.5896834 2.448 3.5368667 2.448 1.8673417 0 3.21035-.9696 3.21035-2.3028 0-1.1568-.8103333-1.8492-2.727725-2.3232l-1.9185833-.4656c-2.717-.6612-3.978975-1.9404-3.978975-4.0176 0-2.5704 2.2260333-4.3368 5.3851416-4.3368 3.1269334 0 5.2707417 1.7664 5.3422417 4.3368h-2.2355667c-.1334666-1.4868-1.354925-2.3844-3.1376583-2.3844-1.7851167 0-3.0053833.9084-3.0053833 2.2296 0 1.0536.77935 1.674 2.6872083 2.1492l1.6302.402c3.0363667.7236 4.2983417 1.9512 4.2983417 4.1316 0 2.7876-2.205775 4.5336-5.71285 4.5336-3.28185 0-5.49835-1.7052-5.64135-4.4004z"/><path d="m99.32065 23.16v2.5704h2.05205v1.7664h-2.05205v5.9892c0 .9312.411125 1.3644 1.313217 1.3644.225225 0 .585108-.0312.728108-.0516v1.7556c-.245483.0624-.737642.1032-1.2298.1032-2.184325 0-3.0363667-.8268-3.0363667-2.9328v-6.228h-1.5682333v-1.7664h1.5682333v-2.5704z"/><path d="m110.539 31.164c0-2.3448-1.066542-3.7296-2.861192-3.7296s-2.86 1.3944-2.86 3.7296c0 2.3544 1.06535 3.7272 2.86 3.7272s2.861192-1.3728 2.861192-3.7272zm-7.978208 0c0-3.4188 1.999616-5.5668 5.117016-5.5668 3.128125 0 5.118209 2.148 5.118209 5.5668 0 3.4272-1.979359 5.5656-5.118209 5.5656-3.137658 0-5.117016-2.1384-5.117016-5.5656z"/><path d="m114.62165 25.7304h2.112825v1.8492h.051242c.338433-1.2288 1.32275-1.962 2.594258-1.962.318175 0 .583917.042.759092.0828v2.0856c-.175175-.072-.56485-.1344-.995042-.1344-1.425233 0-2.307067.972-2.307067 2.4996v6.444h-2.215308z"/><path d="m122.863217 30.162h5.393483c-.051242-1.6632-1.107058-2.7576-2.6455-2.7576-1.527717 0-2.634775 1.116-2.747983 2.7576zm7.48605 3.2424c-.297917 1.9728-2.204584 3.3252-4.645117 3.3252-3.13885 0-5.087225-2.1168-5.087225-5.514 0-3.408 1.9591-5.6184 4.994275-5.6184 2.985125 0 4.862 2.0652 4.862 5.3592v.7644h-7.620708v.1344c0 1.8588 1.159491 3.0768 2.9029 3.0768 1.2298 0 2.19505-.588 2.491775-1.5276z"/><path d="m43.6126167 16.6248h1.340625c1.4872 0 2.3440083-.9324 2.3440083-2.5752 0-1.6176-.8711083-2.5608-2.3440083-2.5608h-1.340625zm1.4633666-6.1476c2.10925 0 3.3462 1.3044 3.3462 3.558 0 2.2872-1.2274166 3.6024-3.3462 3.6024h-2.5680416v-7.1604z"/><path d="m53.6416833 14.9328c0-1.1712-.5231416-1.8552-1.4395333-1.8552-.9211583 0-1.4383417.684-1.4383417 1.8552 0 1.1808.5171834 1.8612 1.4383417 1.8612.9163917 0 1.4395333-.6852 1.4395333-1.8612zm-3.971825 0c0-1.7412.96525-2.8032 2.5322917-2.8032 1.562275 0 2.5287167 1.062 2.5287167 2.8032 0 1.752-.961675 2.8092-2.5287167 2.8092-1.5718083 0-2.5322917-1.0572-2.5322917-2.8092z"/><path d="m61.457825 17.6376h-1.0987167l-1.10825-3.9804h-.0846083l-1.1034833 3.9804h-1.0879917l-1.48005-5.4036h1.0748833l.9604834 4.1232h.0798416l1.1034834-4.1232h1.0153l1.1034833 4.1232h.0834167l.9569083-4.1232h1.0593917z"/><path d="m64.1760167 12.234h1.018875v.858h.07865c.260975-.6.79365-.9624 1.6016-.9624 1.197625 0 1.8578083.7236 1.8578083 2.01v3.498h-1.0593917v-3.2304c0-.8688-.3741833-1.3008-1.1583-1.3008-.782925 0-1.2810416.5268-1.2810416 1.3692v3.162h-1.0582z"/><path d="m70.42035 17.6376h1.0593917v-7.5132h-1.0593917z"/><path d="m76.923275 14.9328c0-1.1712-.5231417-1.8552-1.4395333-1.8552-.9211584 0-1.4383417.684-1.4383417 1.8552 0 1.1808.5171833 1.8612 1.4383417 1.8612.9163916 0 1.4395333-.6852 1.4395333-1.8612zm-3.971825 0c0-1.7412.96525-2.8032 2.5322917-2.8032 1.562275 0 2.5287166 1.062 2.5287166 2.8032 0 1.752-.961675 2.8092-2.5287166 2.8092-1.5718084 0-2.5322917-1.0572-2.5322917-2.8092z"/><path d="m82.5765417 15.648v-.4524l-1.3096417.084c-.7388333.0504-1.0736917.3036-1.0736917.78 0 .486.418275.7692.99385.7692.7984167 0 1.3894834-.5112 1.3894834-1.1808zm-3.4486834.4608c0-.972.718575-1.5336 1.9960417-1.6128l1.4526417-.084v-.4668c0-.57-.3741834-.8928-1.097525-.8928-.5910667 0-1.001.2184-1.118975.6h-1.0248334c.1084417-.9276.9747834-1.5228 2.1926667-1.5228 1.3453917 0 2.1032917.6744 2.1032917 1.8156v3.6924h-1.018875v-.7596h-.0846084c-.3193666.5412-.9056666.8484-1.6111333.8484-1.0343667 0-1.7886917-.63-1.7886917-1.6176z"/><path d="m86.1169833 14.9328c0 1.146.53625 1.836 1.433575 1.836.8925584 0 1.4443-.6996 1.4443-1.8312 0-1.1256-.5577-1.836-1.4443-1.836-.8913666 0-1.433575.6948-1.433575 1.8312zm-1.09395 0c0-1.7076.8723-2.7888 2.227225-2.7888.7352584 0 1.354925.3528 1.6456917.948h.0798417v-2.9676h1.0582v7.5132h-1.0141084v-.8544h-.0846083c-.3193667.5916-.9461833.9432-1.6850167.9432-1.3644583 0-2.227225-1.0812-2.227225-2.7936z"/><path d="m98.387575 14.9328c0-1.1712-.5231417-1.8552-1.4395333-1.8552-.9211584 0-1.4383417.684-1.4383417 1.8552 0 1.1808.5171833 1.8612 1.4383417 1.8612.9163916 0 1.4395333-.6852 1.4395333-1.8612zm-3.971825 0c0-1.7412.9664417-2.8032 2.5322917-2.8032 1.562275 0 2.5287166 1.062 2.5287166 2.8032 0 1.752-.961675 2.8092-2.5287166 2.8092-1.5706167 0-2.5322917-1.0572-2.5322917-2.8092z"/><path d="m100.898417 12.234h1.018875v.858h.07865c.260975-.6.79365-.9624 1.6016-.9624 1.197625 0 1.857808.7236 1.857808 2.01v3.498h-1.059392v-3.2304c0-.8688-.374183-1.3008-1.1583-1.3008-.782925 0-1.281041.5268-1.281041 1.3692v3.162h-1.0582z"/><path d="m111.438708 10.8888v1.3692h1.163067v.8988h-1.163067v2.778c0 .5664.232375.8148.759092.8148.163258 0 .256208-.0108.403975-.0252v.888c-.172792.03-.370608.0552-.576767.0552-1.177366 0-1.645691-.4176-1.645691-1.4592v-3.0516h-.852042v-.8988h.852042v-1.3692z"/><path d="m114.048458 10.1244h1.049859v2.9772h.083416c.259784-.6048.827017-.9672 1.636159-.9672 1.142808 0 1.848275.7296 1.848275 2.0148v3.4884h-1.060584v-3.2256c0-.8628-.399208-1.3008-1.147575-1.3008-.867533 0-1.35135.552-1.35135 1.3704v3.156h-1.0582z"/><path d="m121.115042 14.4372h2.711041c-.025025-.8484-.537441-1.4004-1.321558-1.4004-.782925 0-1.3299.5568-1.389483 1.4004zm3.72515 1.7412c-.240717.9684-1.098717 1.5636-2.324942 1.5636-1.53725 0-2.478667-1.062-2.478667-2.79 0-1.7268.961675-2.8224 2.4739-2.8224 1.493159 0 2.394059 1.0272 2.394059 2.724v.372h-3.7895v.06c.03575.9468.582725 1.548 1.428808 1.548.642308 0 1.080842-.234 1.277467-.6552z"/></g></g></svg>