<?xml version="1.0" encoding="utf-8"?>
<!-- Generator: Adobe Illustrator 25.0.1, SVG Export Plug-In . SVG Version: 6.00 Build 0)  -->
<svg version="1.1" id="Layer_1" xmlns="http://www.w3.org/2000/svg" xmlns:xlink="http://www.w3.org/1999/xlink" x="0px" y="0px"
	 viewBox="0 0 505.2 155.5" style="enable-background:new 0 0 505.2 155.5;" xml:space="preserve">
<style type="text/css">
	.st0{fill:#FFFFFF;}
</style>
<g id="Group_3282" transform="translate(-4740 -1938.747)">
	<g id="Group_3279" transform="translate(7)">
		<path id="Path_21715" class="st0" d="M4737.6,2044.3c-3-3.6-4.6-8.8-4.6-15.8v-55.8h14.8v55.2c-0.1,1.9,0.2,3.8,0.7,5.7
			c0.4,1.3,1.7,2.2,3,2c1.4,0.1,2.6-0.7,3-2c0.5-1.9,0.8-3.8,0.7-5.7v-55.2h14.8v55.8c0,7-1.5,12.3-4.6,15.8c-3,3.5-7.7,5.3-14,5.3
			C4745.3,2049.6,4740.6,2047.8,4737.6,2044.3"/>
		<path id="Path_21716" class="st0" d="M4774.5,1972.6h20.2c6.1,0,10.4,2,13.1,5.9c2.6,3.9,3.9,9.7,3.9,17.3
			c0,7.6-1.2,13.3-3.5,17.1s-6.5,5.8-12.4,5.8h-6.2v30.2h-15L4774.5,1972.6z M4790.4,2004.9c1.4,0.1,2.8-0.2,4-1
			c0.9-0.7,1.5-1.8,1.7-2.9c0.3-1.8,0.4-3.6,0.4-5.5c0-3.2-0.4-5.5-1.1-6.9c-0.7-1.4-2.1-2.1-4.3-2.1h-1.7v18.5H4790.4z"/>
		<path id="Path_21717" class="st0" d="M4838,2048.9v-61.6h-9.1v-14.6h33.4v14.6h-9.1v61.6L4838,2048.9z"/>
		<path id="Path_21718" class="st0" d="M4870.3,2043.9c-3.2-3.8-4.8-9-4.8-15.8v-36.3c0-6.6,1.6-11.5,4.8-14.9c3.2-3.3,7.9-5,14-5
			c6.2,0,10.8,1.7,14,5s4.8,8.3,4.8,14.9v36.3c0,6.9-1.6,12.2-4.8,15.9c-3.2,3.7-7.9,5.6-14,5.6
			C4878.1,2049.6,4873.5,2047.7,4870.3,2043.9 M4887.1,2033.8c0.5-1.6,0.8-3.3,0.7-5v-37.3c0-1.4-0.2-2.8-0.7-4
			c-0.5-1.1-1.6-1.7-2.7-1.6c-2.5,0-3.8,1.9-3.8,5.8v37.2c-0.1,1.7,0.2,3.4,0.8,5c0.5,1.1,1.7,1.8,2.9,1.7
			C4885.5,2035.6,4886.6,2034.9,4887.1,2033.8"/>
		<path id="Path_21719" class="st0" d="M4934,2045.5c-3.6-3-5.4-7.4-5.4-13.3v-11.3h15.9v6.5c-0.1,2.1,0.2,4.1,0.8,6.1
			c0.4,1.4,1.8,2.3,3.3,2.2c1.3,0.1,2.5-0.4,3.2-1.5c0.6-1.4,0.9-2.9,0.8-4.4v-15c0.1-2-0.2-3.9-0.8-5.8c-0.4-1.4-1.7-2.3-3.2-2.2
			c-2.9,0-4.4,2.1-4.4,6.3h-13.9v-40.6h36.3v14.3h-21.8v10.7c0.8-1.1,1.9-1.9,3.1-2.5c1.4-0.7,2.9-1,4.4-1c6.4,0,10.8,2.2,13.1,6.7
			c2.3,4.5,3.5,10.9,3.5,19.1c0.1,5.6-0.4,11.1-1.5,16.6c-0.8,3.9-2.8,7.4-5.9,9.9c-3,2.4-7.3,3.6-13,3.6
			C4942.5,2049.9,4937.6,2048.4,4934,2045.5"/>
		<path id="Path_21720" class="st0" d="M4977.3,2044.1c-3.5-3.6-5.2-8.8-5.2-15.6v-34.4c0-7.2,1.7-12.7,5.1-16.5
			c3.4-3.8,8.4-5.7,15.1-5.7c6.7,0,11.8,1.9,15.2,5.7c3.4,3.8,5.1,9.3,5.1,16.5v34.4c0,6.8-1.7,12-5.2,15.6c-3.5,3.6-8.5,5.4-15,5.4
			C4985.8,2049.6,4980.8,2047.8,4977.3,2044.1 M4995,2034c0.7-1.1,1.1-2.4,1.1-3.7v-37.6c0.1-1.7-0.2-3.4-0.8-5
			c-0.5-1.2-1.8-1.9-3.1-1.7c-1.3-0.2-2.5,0.5-3,1.7c-0.5,1.6-0.8,3.3-0.7,5v37.6c0,1.3,0.3,2.6,1,3.7c0.6,1,1.6,1.6,2.7,1.6
			C4993.4,2035.6,4994.4,2035,4995,2034"/>
		<path id="Path_21721" class="st0" d="M5020.1,2021.1c-3-3.3-4.4-7.7-4.4-13.3V1992c0-5.9,1.4-10.3,4.2-13.5
			c2.8-3.1,7-4.7,12.7-4.7c5.7,0,9.9,1.6,12.8,4.7c2.8,3.1,4.3,7.6,4.3,13.5v15.7c0,5.6-1.5,10.1-4.5,13.3s-7.2,4.9-12.6,4.9
			C5027.2,2026,5023.1,2024.3,5020.1,2021.1 M5035.5,2013.4c0.8-0.8,1.2-1.9,1.2-3v-21c0.1-1.4-0.2-2.9-0.8-4.2
			c-0.6-0.9-1.6-1.3-3.2-1.3c-1.6,0-2.7,0.4-3.2,1.3c-0.6,1.3-0.9,2.7-0.8,4.2v21c0,1.1,0.4,2.2,1.2,3c0.7,0.8,1.8,1.3,2.8,1.2
			C5033.7,2014.6,5034.7,2014.2,5035.5,2013.4 M5042.4,2048.9l23.4-76.6h14l-23.4,76.6H5042.4z M5076.4,2044.7
			c-3-3.3-4.5-7.7-4.5-13.3v-15.8c0-5.9,1.4-10.4,4.2-13.5c2.8-3.1,7.1-4.6,12.7-4.6c5.6,0,9.9,1.6,12.7,4.7
			c2.8,3.1,4.3,7.6,4.3,13.5v15.8c0,5.6-1.5,10-4.5,13.3c-3,3.3-7.1,4.9-12.5,4.9C5083.5,2049.7,5079.4,2048,5076.4,2044.7
			 M5091.7,2037.1c0.8-0.8,1.2-1.9,1.2-3v-21.1c0.1-1.4-0.2-2.9-0.8-4.2c-0.5-0.9-1.6-1.3-3.2-1.3s-2.7,0.5-3.2,1.4
			c-0.6,1.3-0.9,2.7-0.8,4.1v21.1c0,1.1,0.4,2.2,1.2,3c0.7,0.8,1.8,1.3,2.9,1.2C5089.9,2038.3,5091,2037.9,5091.7,2037.1"/>
		<path id="Path_21722" class="st0" d="M5136,2043.9c-3.2-3.8-4.8-9-4.8-15.8v-36.3c0-6.6,1.6-11.5,4.8-14.9c3.2-3.3,7.9-5,14-5
			c6.2,0,10.8,1.7,14,5s4.8,8.3,4.8,14.9v36.3c0,6.9-1.6,12.2-4.8,15.9s-7.9,5.6-14,5.6C5143.9,2049.6,5139.2,2047.7,5136,2043.9
			 M5152.8,2033.8c0.5-1.6,0.8-3.3,0.7-5v-37.3c0-1.4-0.2-2.8-0.7-4c-0.5-1.1-1.6-1.7-2.7-1.6c-2.5,0-3.8,1.9-3.8,5.8v37.2
			c-0.1,1.7,0.2,3.4,0.8,5c0.5,1.1,1.7,1.8,2.9,1.7C5151.2,2035.6,5152.4,2034.9,5152.8,2033.8"/>
		<path id="Path_21723" class="st0" d="M5173.3,2048.9v-76.3h30.5v14.8h-15.2v12.2h14.4v14.6h-14.4v34.6H5173.3z"/>
		<path id="Path_21724" class="st0" d="M5207.6,2048.9v-76.3h30.5v14.8H5223v12.2h14.4v14.6H5223v34.6H5207.6z"/>
	</g>
	<g id="Group_3280" transform="translate(-0.836)">
		<path id="Path_21725" class="st0" d="M4828,1942.1h-5.2l0.6-3.1h14.2l-0.6,3.1h-5.2l-2.6,13.2h-3.8L4828,1942.1z"/>
		<path id="Path_21726" class="st0" d="M4854,1939l-3.2,16.2h-3.8l1.3-6.6h-7.4l-1.3,6.6h-3.8l3.2-16.2h3.8l-1.3,6.4h7.4l1.3-6.4
			H4854z"/>
		<path id="Path_21727" class="st0" d="M4860.6,1942l-0.7,3.5h7.6l-0.6,2.9h-7.6l-0.7,3.8h8.9l-0.6,3h-12.6l3.2-16.2h12.3l-0.6,3
			H4860.6z"/>
		<path id="Path_21728" class="st0" d="M4892.2,1950.1c0,3.5-3.1,5.1-7.3,5.1h-8.5l3.3-16.2h7.8c3.5,0,5.5,1.3,5.5,3.7
			c0,1.9-1.1,3.5-2.9,4.2C4891.4,1947.4,4892.3,1948.7,4892.2,1950.1 M4888.5,1950.1c0-1.2-1-1.7-2.4-1.7h-4.5l-0.8,4h4.4
			C4887.2,1952.4,4888.5,1951.7,4888.5,1950.1 M4882.8,1941.9l-0.8,3.8h3.8c1.9,0,3.1-0.8,3.1-2.3c0-1.1-0.9-1.5-2.4-1.5
			L4882.8,1941.9z"/>
		<path id="Path_21729" class="st0" d="M4900.2,1942l-0.7,3.5h7.5l-0.6,2.9h-7.6l-0.7,3.8h8.9l-0.6,3h-12.6l3.2-16.2h12.3l-0.6,3
			H4900.2z"/>
		<path id="Path_21730" class="st0" d="M4908.3,1953.7l1.5-2.9c1.6,1.1,3.4,1.7,5.4,1.7c2.1,0,3.4-0.7,3.4-1.9
			c0-2.6-8.1-1.2-8.1-6.4c0-3.3,2.9-5.5,7.4-5.5c2-0.1,3.9,0.4,5.6,1.4l-1.4,2.9c-1.3-0.8-2.8-1.3-4.4-1.3c-2.2,0-3.5,0.8-3.5,2
			c0,2.7,8.1,1.3,8.1,6.3c0,3.4-3,5.5-7.5,5.5C4912.5,1955.6,4910.2,1955,4908.3,1953.7"/>
		<path id="Path_21731" class="st0" d="M4929.6,1942.1h-5.2l0.6-3.1h14.2l-0.6,3.1h-5.2l-2.6,13.2h-3.8L4929.6,1942.1z"/>
		<path id="Path_21732" class="st0" d="M4945.1,1948.5c0-5.5,4.1-9.7,10-9.7c4.9,0,7.9,2.9,7.9,7.1c0,5.5-4.1,9.7-10,9.7
			C4948,1955.6,4945.1,1952.7,4945.1,1948.5 M4959.2,1946c0-2.4-1.6-4.1-4.4-4.1c-3.7,0-5.9,2.9-5.9,6.3c0,2.4,1.6,4.1,4.4,4.1
			C4957,1952.3,4959.2,1949.4,4959.2,1946"/>
		<path id="Path_21733" class="st0" d="M4970.1,1942l-0.9,4.3h7.5l-0.6,3h-7.5l-1.2,5.9h-3.8l3.3-16.2h12.3l-0.6,3H4970.1z"/>
		<path id="Path_21734" class="st0" d="M5000.9,1950.1c0,3.5-3.1,5.1-7.3,5.1h-8.5l3.2-16.2h7.8c3.5,0,5.5,1.3,5.5,3.7
			c0,1.9-1.1,3.5-2.9,4.2C5000.1,1947.4,5001,1948.7,5000.9,1950.1 M4997.1,1950.1c0-1.2-1-1.7-2.4-1.7h-4.5l-0.8,4h4.4
			C4995.9,1952.4,4997.1,1951.7,4997.1,1950.1 M4991.5,1941.9l-0.8,3.8h3.8c1.9,0,3.1-0.8,3.1-2.3c0-1.1-0.9-1.5-2.4-1.5
			L4991.5,1941.9z"/>
		<path id="Path_21735" class="st0" d="M5005.7,1939h3.8l-2.6,13.2h8.1l-0.6,3.1h-11.9L5005.7,1939z"/>
		<path id="Path_21736" class="st0" d="M5028.6,1951.8h-7.6l-2.1,3.5h-4l10.5-16.2h3.7l4,16.2h-3.8L5028.6,1951.8z M5028,1948.9
			l-1.4-6.3l-3.8,6.3H5028z"/>
		<path id="Path_21737" class="st0" d="M5034.2,1948.5c0-5.5,4.1-9.7,10.1-9.7c2.9,0,5.2,1,6.4,2.9l-2.7,2.2c-0.9-1.3-2.4-2-3.9-1.9
			c-3.7,0-6,2.8-6,6.3c0,2.5,1.6,4.1,4.5,4.1c1.6,0,3.2-0.7,4.3-1.9l2.2,2.3c-1.7,1.9-4.3,3-6.9,2.8
			C5037.3,1955.6,5034.2,1952.7,5034.2,1948.5"/>
		<path id="Path_21738" class="st0" d="M5060.2,1946.5l5.6,8.7h-4.2l-4.2-6.4l-2.6,2.3l-0.8,4h-3.7l3.2-16.2h3.7l-1.5,7.4l8.4-7.4
			h4.5L5060.2,1946.5z"/>
		<path id="Path_21739" class="st0" d="M5080.4,1942l-0.9,4.3h7.5l-0.6,3h-7.5l-1.2,5.9h-3.8l3.3-16.2h12.3l-0.6,3H5080.4z"/>
		<path id="Path_21740" class="st0" d="M5100,1950.3l2.8,5h-4l-2.6-4.6h-3.2l-0.9,4.5h-3.8l3.2-16.2h6.6c4,0,6.4,1.9,6.4,5
			C5104.7,1947,5102.8,1949.5,5100,1950.3 M5100.8,1944.4c0-1.6-1.1-2.3-3-2.3h-3l-1.1,5.6h3.2
			C5099.4,1947.7,5100.8,1946.6,5100.8,1944.4"/>
		<path id="Path_21741" class="st0" d="M5108.3,1939h3.8l-3.2,16.2h-3.8L5108.3,1939z"/>
		<path id="Path_21742" class="st0" d="M5115.5,1939h6.8c5,0,8,2.6,8,6.8c0,5.7-4.1,9.5-10.1,9.5h-7.9L5115.5,1939z M5120.3,1952.2
			c3.2,0.2,6-2.2,6.2-5.5c0-0.2,0-0.5,0-0.7c0-2.4-1.6-3.9-4.6-3.9h-3.2l-2,10.1L5120.3,1952.2z"/>
		<path id="Path_21743" class="st0" d="M5142,1951.8h-7.6l-2.1,3.5h-4l10.5-16.2h3.7l4,16.2h-3.8L5142,1951.8z M5141.4,1948.9
			l-1.4-6.3l-3.8,6.3H5141.4z"/>
		<path id="Path_21744" class="st0" d="M5154.9,1949.6l-1.1,5.6h-3.8l1.1-5.8l-4.2-10.4h3.8l2.9,7.2l5.8-7.2h3.9L5154.9,1949.6z"/>
	</g>
	<g id="Group_3281" transform="translate(-0.694)">
		<path id="Path_21745" class="st0" d="M4846.4,2079.7v4.4h6.3v1.5h-6.3v5.1h-1.8v-12.6h8.9v1.6L4846.4,2079.7z"/>
		<path id="Path_21746" class="st0" d="M4854.5,2085.9c0-2.7,2.1-5,4.9-5c2.7,0,5,2.1,5,4.9c0,2.7-2.1,5-4.9,5c0,0,0,0-0.1,0
			c-2.6,0.1-4.8-1.9-4.9-4.5C4854.5,2086.1,4854.5,2086,4854.5,2085.9 M4862.7,2085.9c-0.1-1.8-1.6-3.1-3.3-3
			c-1.8,0.1-3.1,1.6-3,3.3c0.1,1.7,1.5,3,3.2,3c1.7,0,3.2-1.3,3.2-3C4862.7,2086.1,4862.7,2086,4862.7,2085.9"/>
		<path id="Path_21747" class="st0" d="M4865.9,2085.9c0-2.7,2.1-5,4.9-5s5,2.1,5,4.9c0,2.7-2.1,5-4.9,5c0,0,0,0-0.1,0
			c-2.6,0.1-4.8-1.9-4.9-4.5C4865.9,2086.1,4865.9,2086,4865.9,2085.9 M4874.1,2085.9c-0.1-1.8-1.6-3.1-3.3-3
			c-1.8,0.1-3.1,1.6-3,3.3c0.1,1.7,1.5,3,3.2,3c1.7,0,3.2-1.3,3.2-3C4874.1,2086.1,4874.1,2086,4874.1,2085.9"/>
		<path id="Path_21748" class="st0" d="M4883.5,2090.1c-0.6,0.5-1.3,0.7-2.1,0.7c-1.5,0.2-2.8-0.9-3-2.4c0-0.2,0-0.4,0-0.6v-5.2
			h-1.6v-1.4h1.6v-2.1h1.7v2.1h2.7v1.4h-2.7v5.1c-0.1,0.8,0.4,1.5,1.2,1.6c0.1,0,0.2,0,0.3,0c0.5,0,1-0.2,1.3-0.4L4883.5,2090.1z"/>
		<path id="Path_21749" class="st0" d="M4899.8,2081.1l-3.5,9.5h-1.6l-2.7-7.2l-2.8,7.2h-1.6l-3.5-9.5h1.6l2.8,7.6l2.9-7.6h1.5
			l2.8,7.6l2.8-7.6H4899.8z"/>
		<path id="Path_21750" class="st0" d="M4909.8,2086.5h-7.7c0.2,1.7,1.7,2.9,3.4,2.8c1,0,2-0.4,2.7-1.1l1,1.1c-2,2-5.3,2.1-7.3,0.1
			c-0.9-0.9-1.5-2.1-1.5-3.4c-0.1-2.6,1.9-4.7,4.5-4.8c0.1,0,0.2,0,0.3,0c2.5-0.1,4.6,1.9,4.7,4.5c0,0.1,0,0.3,0,0.4
			C4909.9,2086.1,4909.8,2086.3,4909.8,2086.5 M4902.1,2085.2h6.1c-0.2-1.7-1.7-2.9-3.4-2.7
			C4903.4,2082.7,4902.3,2083.8,4902.1,2085.2"/>
		<path id="Path_21751" class="st0" d="M4919.5,2084.9v5.7h-1.6v-1.3c-0.7,1-1.9,1.5-3.1,1.4c-2.2,0-3.5-1.1-3.5-2.8
			c0-1.5,1-2.8,3.8-2.8h2.7v-0.3c0-1.5-0.8-2.3-2.5-2.3c-1.1,0-2.2,0.3-3,1l-0.7-1.3c1.1-0.8,2.5-1.3,3.9-1.2
			C4918,2081.1,4919.5,2082.3,4919.5,2084.9 M4917.8,2087.7v-1.3h-2.7c-1.7,0-2.2,0.7-2.2,1.5c0,0.9,0.8,1.5,2.1,1.5
			C4916.2,2089.5,4917.3,2088.8,4917.8,2087.7"/>
		<path id="Path_21752" class="st0" d="M4927.8,2081.1v1.7c-0.1,0-0.3,0-0.4,0c-1.8,0-3,1.1-3,3.2v4.7h-1.7v-9.5h1.6v1.6
			C4925.1,2081.6,4926.4,2080.9,4927.8,2081.1"/>
		<path id="Path_21753" class="st0" d="M4931.5,2089.5c0,0.4-0.1,0.9-0.3,1.3l-0.8,2.5h-1.1l0.7-2.7c-0.5-0.2-0.8-0.6-0.8-1.1
			c0-0.6,0.5-1.2,1.1-1.2c0,0,0.1,0,0.1,0C4930.9,2088.3,4931.5,2088.8,4931.5,2089.5C4931.5,2089.5,4931.5,2089.5,4931.5,2089.5"/>
		<path id="Path_21754" class="st0" d="M4938,2084.4c0-3.5,2.8-6.4,6.3-6.4c0.1,0,0.3,0,0.4,0c1.8-0.1,3.5,0.6,4.8,2l-1.2,1.1
			c-0.9-1-2.2-1.5-3.5-1.5c-2.7,0-4.9,2.1-4.9,4.8c0,2.7,2.1,4.9,4.8,4.9c0,0,0.1,0,0.1,0c1.3,0,2.6-0.5,3.5-1.5l1.2,1.1
			c-1.2,1.3-3,2-4.8,2c-3.5,0.2-6.5-2.5-6.6-6C4938,2084.6,4938,2084.5,4938,2084.4"/>
		<rect id="Rectangle_574" x="4951.7" y="2077.3" class="st0" width="1.7" height="13.3"/>
		<path id="Path_21755" class="st0" d="M4955.9,2085.9c0-2.7,2.1-5,4.9-5s5,2.1,5,4.9c0,2.7-2.1,5-4.9,5c0,0,0,0-0.1,0
			c-2.6,0.1-4.8-1.9-4.9-4.5C4955.9,2086.1,4955.9,2086,4955.9,2085.9 M4964,2085.9c-0.1-1.8-1.6-3.1-3.3-3s-3.1,1.6-3,3.3
			c0.1,1.7,1.5,3,3.2,3c1.7,0,3.2-1.3,3.2-3C4964,2086.1,4964,2086,4964,2085.9"/>
		<path id="Path_21756" class="st0" d="M4973.5,2090.1c-0.6,0.5-1.3,0.7-2.1,0.7c-1.5,0.2-2.8-0.9-3-2.4c0-0.2,0-0.4,0-0.6v-5.2
			h-1.6v-1.4h1.6v-2.1h1.7v2.1h2.7v1.4h-2.7v5.1c-0.1,0.8,0.4,1.5,1.2,1.6c0.1,0,0.2,0,0.3,0c0.5,0,1-0.2,1.3-0.4L4973.5,2090.1z"/>
		<path id="Path_21757" class="st0" d="M4984.6,2085.2v5.5h-1.7v-5.3c0-1.9-0.9-2.8-2.6-2.8c-1.6-0.1-2.9,1.1-3,2.6
			c0,0.2,0,0.4,0,0.6v4.9h-1.7v-13.3h1.7v5.1c0.8-1,2.1-1.5,3.4-1.4C4982.9,2081.1,4984.6,2082.4,4984.6,2085.2"/>
		<path id="Path_21758" class="st0" d="M4987.5,2078.2c0-0.6,0.5-1.1,1.1-1.1c0,0,0,0,0,0c0.6,0,1.1,0.5,1.1,1.2s-0.5,1.1-1.2,1.1
			C4987.9,2079.3,4987.5,2078.8,4987.5,2078.2 M4987.8,2081.1h1.7v9.5h-1.7V2081.1z"/>
		<path id="Path_21759" class="st0" d="M5001.8,2085.2v5.5h-1.7v-5.3c0-1.9-0.9-2.8-2.6-2.8c-1.6-0.1-2.9,1.1-3,2.6
			c0,0.2,0,0.4,0,0.6v4.9h-1.7v-9.5h1.6v1.4c0.8-1,2.1-1.6,3.4-1.5C5000.2,2081.1,5001.8,2082.4,5001.8,2085.2"/>
		<path id="Path_21760" class="st0" d="M5014.1,2081.2v8.2c0,3.4-1.7,4.9-4.9,4.9c-1.6,0.1-3.2-0.4-4.5-1.4l0.8-1.3
			c1,0.8,2.3,1.3,3.7,1.2c2.2,0,3.3-1,3.3-3.2v-0.8c-0.9,1-2.1,1.5-3.4,1.5c-2.5,0-4.6-2.1-4.6-4.6s2.1-4.6,4.6-4.6
			c1.4-0.1,2.7,0.5,3.5,1.6v-1.5H5014.1z M5012.4,2085.7c0.1-1.8-1.3-3.4-3.1-3.4c-1.8-0.1-3.4,1.3-3.4,3.1
			c-0.1,1.8,1.3,3.4,3.1,3.4c0.1,0,0.1,0,0.2,0c1.7,0.1,3.1-1.1,3.3-2.8C5012.4,2085.9,5012.4,2085.8,5012.4,2085.7"/>
		<path id="Path_21761" class="st0" d="M5031.7,2090.8l-1.7-1.7c-1.1,1.1-2.6,1.7-4.2,1.6c-2.5,0-4.4-1.3-4.4-3.3
			c0-1.5,0.9-2.6,3-3.9c-0.9-0.7-1.4-1.7-1.5-2.9c0-1.7,1.3-2.8,3.4-2.8c1.9,0,3.1,1,3.1,2.6c0,1.3-0.8,2.2-2.7,3.3l3.1,3.1
			c0.4-0.7,0.6-1.5,0.8-2.3l1.4,0.4c-0.2,1-0.6,2-1.1,2.9l1.7,1.7L5031.7,2090.8z M5029,2088.2l-3.6-3.6c-1.8,1-2.3,1.7-2.3,2.7
			c0,1.2,1.1,2,2.8,2C5027,2089.4,5028.2,2089,5029,2088.2 M5024.5,2080.8c0,0.6,0.3,1.1,1.3,2.2c1.6-0.9,2.2-1.5,2.2-2.3
			c0-0.8-0.6-1.4-1.7-1.4C5025.2,2079.2,5024.5,2079.9,5024.5,2080.8"/>
		<path id="Path_21762" class="st0" d="M5047.6,2087.5h-6.7l-1.4,3.1h-1.8l5.7-12.6h1.8l5.7,12.6h-1.9L5047.6,2087.5z M5047,2086.1
			l-2.7-6.2l-2.7,6.2H5047z"/>
		<path id="Path_21763" class="st0" d="M5051.5,2085.9c-0.1-2.6,2-4.8,4.6-4.8c0.1,0,0.2,0,0.4,0c1.6-0.1,3.1,0.7,3.9,2l-1.3,0.8
			c-0.6-0.9-1.5-1.4-2.6-1.4c-1.8,0-3.3,1.6-3.3,3.4c0,1.8,1.5,3.2,3.3,3.3c1,0,2-0.5,2.6-1.4l1.3,0.8c-0.8,1.3-2.3,2.1-3.9,2
			c-2.6,0.1-4.9-1.9-5-4.5C5051.5,2086.1,5051.5,2086,5051.5,2085.9"/>
		<path id="Path_21764" class="st0" d="M5061.6,2085.9c-0.1-2.6,2-4.8,4.6-4.8c0.1,0,0.2,0,0.4,0c1.6-0.1,3.1,0.7,3.9,2l-1.3,0.8
			c-0.6-0.9-1.5-1.4-2.6-1.4c-1.8,0-3.3,1.6-3.3,3.4c0,1.8,1.5,3.2,3.3,3.3c1,0,2-0.5,2.6-1.4l1.3,0.8c-0.8,1.3-2.3,2.1-3.9,2
			c-2.6,0.1-4.9-1.9-5-4.5C5061.6,2086.1,5061.6,2086,5061.6,2085.9"/>
		<path id="Path_21765" class="st0" d="M5081.1,2086.5h-7.7c0.2,1.7,1.7,2.9,3.4,2.8c1,0,2-0.4,2.7-1.1l0.9,1.1c-2,2-5.3,2.1-7.3,0
			c-0.9-0.9-1.5-2.1-1.5-3.4c-0.1-2.6,1.9-4.7,4.5-4.8c0.1,0,0.2,0,0.3,0c2.5-0.1,4.6,1.9,4.7,4.5c0,0.1,0,0.3,0,0.4
			C5081.2,2086.1,5081.2,2086.3,5081.1,2086.5 M5073.4,2085.2h6.1c-0.2-1.7-1.7-2.9-3.4-2.7
			C5074.7,2082.7,5073.6,2083.8,5073.4,2085.2"/>
		<path id="Path_21766" class="st0" d="M5082.4,2089.7l0.7-1.4c1,0.6,2.2,1,3.3,1c1.6,0,2.3-0.5,2.3-1.3c0-2.1-6-0.3-6-4.1
			c0-1.7,1.5-2.9,4-2.9c1.2,0,2.4,0.3,3.5,0.9l-0.7,1.4c-0.8-0.5-1.8-0.8-2.7-0.8c-1.5,0-2.2,0.6-2.2,1.3c0,2.2,6,0.4,6,4.1
			c0,1.7-1.6,2.8-4.1,2.8C5084.9,2090.8,5083.5,2090.4,5082.4,2089.7"/>
		<path id="Path_21767" class="st0" d="M5091.4,2089.7l0.7-1.4c1,0.6,2.2,1,3.3,1c1.6,0,2.3-0.5,2.3-1.3c0-2.1-6-0.3-6-4.1
			c0-1.7,1.5-2.9,4-2.9c1.2,0,2.4,0.3,3.5,0.9l-0.7,1.4c-0.8-0.5-1.8-0.8-2.7-0.8c-1.5,0-2.2,0.6-2.2,1.3c0,2.2,6,0.4,6,4.1
			c0,1.7-1.6,2.8-4.1,2.8C5093.9,2090.8,5092.5,2090.4,5091.4,2089.7"/>
		<path id="Path_21768" class="st0" d="M5100.7,2085.9c0-2.7,2.1-5,4.9-5s5,2.1,5,4.9c0,2.7-2.1,5-4.9,5c0,0,0,0-0.1,0
			c-2.6,0.1-4.8-1.9-4.9-4.5C5100.7,2086.1,5100.7,2086,5100.7,2085.9 M5108.8,2085.9c-0.1-1.8-1.6-3.1-3.3-3
			c-1.8,0.1-3.1,1.6-3,3.3c0.1,1.7,1.5,3,3.2,3c1.7,0,3.2-1.3,3.2-3C5108.8,2086.1,5108.8,2086,5108.8,2085.9"/>
		<path id="Path_21769" class="st0" d="M5118,2081.1v1.7c-0.1,0-0.3,0-0.4,0c-1.8,0-3,1.1-3,3.2v4.7h-1.7v-9.5h1.6v1.6
			C5115.3,2081.6,5116.6,2080.9,5118,2081.1"/>
		<path id="Path_21770" class="st0" d="M5119.8,2078.2c0-0.6,0.5-1.1,1.1-1.1c0,0,0,0,0,0c0.6,0,1.1,0.5,1.1,1.2s-0.5,1.1-1.2,1.1
			C5120.3,2079.3,5119.9,2078.8,5119.8,2078.2 M5120.1,2081.1h1.7v9.5h-1.7V2081.1z"/>
		<path id="Path_21771" class="st0" d="M5133.7,2086.5h-7.7c0.2,1.7,1.7,2.9,3.4,2.8c1,0,2-0.4,2.7-1.1l0.9,1.1c-2,2-5.3,2.1-7.3,0
			c-0.9-0.9-1.5-2.1-1.5-3.4c-0.1-2.6,1.9-4.7,4.5-4.8c0.1,0,0.2,0,0.3,0c2.5-0.1,4.6,1.9,4.7,4.5c0,0.1,0,0.3,0,0.4
			C5133.7,2086.1,5133.7,2086.3,5133.7,2086.5 M5126,2085.2h6.1c-0.2-1.7-1.7-2.9-3.4-2.7C5127.3,2082.7,5126.1,2083.8,5126,2085.2"
			/>
		<path id="Path_21772" class="st0" d="M5134.9,2089.7l0.7-1.4c1,0.6,2.2,1,3.3,1c1.6,0,2.3-0.5,2.3-1.3c0-2.1-6-0.3-6-4.1
			c0-1.7,1.5-2.9,4-2.9c1.2,0,2.4,0.3,3.5,0.9l-0.7,1.4c-0.8-0.5-1.8-0.8-2.7-0.8c-1.5,0-2.2,0.6-2.2,1.3c0,2.2,6,0.4,6,4.1
			c0,1.7-1.6,2.8-4.1,2.8C5137.5,2090.8,5136.1,2090.4,5134.9,2089.7"/>
		<rect id="Rectangle_575" x="4842.7" y="2092" class="st0" width="300.8" height="0.9"/>
	</g>
</g>
</svg>
