<svg xmlns="http://www.w3.org/2000/svg" viewBox="0 0 129.2 48.54"><title>Asset 2</title><g id="Layer_2" data-name="Layer 2"><g id="Layer_1-2" data-name="Layer 1"><path d="M1.53,40.91H3.06v3H5.73v-3H7.21v7.5H5.73V45.13H3.06v3.28H1.53Z"/><path d="M18.53,40.91v4.73c0,1.12.52,1.66,1.58,1.66s1.54-.55,1.54-1.73V40.91H23.1v4.62c0,2-1,3-3,3s-3-1-3-3V40.91Z"/><path d="M39.18,47.92a5.61,5.61,0,0,1-2.75.62,3.42,3.42,0,0,1-3.75-3.78c0-2.48,1.38-4,3.72-4,1.75,0,2.8.93,2.8,2.31v.13H37.77a1.32,1.32,0,0,0-1.46-1.42c-1.27,0-2.09,1.09-2.09,2.91s.8,2.69,2.32,2.69a4.45,4.45,0,0,0,1.16-.15V45.61H36.36v-1.2h2.82Z"/><path d="M52.12,40.79c2.07,0,3.37,1.45,3.37,3.83s-1.27,3.92-3.37,3.92-3.39-1.46-3.39-3.92S50,40.79,52.12,40.79Zm0,6.63c1.17,0,1.8-1,1.8-2.79s-.65-2.75-1.8-2.75-1.79.94-1.79,2.75S51,47.42,52.11,47.42Z"/><path d="M76.3,40.91h2.43c1.83,0,2.69.55,2.69,1.92a1.54,1.54,0,0,1-1.16,1.62,1.8,1.8,0,0,1,1.46,1.88,2.07,2.07,0,0,1-.5,1.44c-.56.59-1.35.64-2.48.64H76.3Zm2.44,3c.85,0,1.24-.2,1.24-.92s-.38-1-1.24-1h-1V44Zm0,3.26c1.05,0,1.49-.12,1.49-1.06s-.46-1-1.49-1h-1v2.11Z"/><path d="M94.43,40.79c2.07,0,3.37,1.45,3.37,3.83s-1.27,3.92-3.37,3.92-3.38-1.46-3.38-3.92S92.35,40.79,94.43,40.79Zm0,6.63c1.17,0,1.8-1,1.8-2.79s-.65-2.75-1.8-2.75-1.79.94-1.79,2.75S93.26,47.42,94.42,47.42Z"/><path d="M108.63,46c0,1,.46,1.5,1.39,1.5.77,0,1.27-.44,1.27-1s-.65-.94-1.83-1.36a5,5,0,0,1-1.48-.7,1.72,1.72,0,0,1-.62-1.41c0-1.3,1-2.2,2.69-2.2,1.56,0,2.45.82,2.45,2.19v0h-1.32A1.15,1.15,0,0,0,110,41.8c-.72,0-1.16.39-1.16,1s.66.91,1.84,1.32c1.46.51,2.17.91,2.17,2.23s-1,2.23-2.86,2.23-2.8-.83-2.8-2.46V46Z"/><path d="M123.57,46c0,1,.46,1.5,1.4,1.5.76,0,1.26-.44,1.26-1s-.65-.94-1.83-1.36a5,5,0,0,1-1.48-.7A1.75,1.75,0,0,1,122.3,43c0-1.3,1-2.2,2.69-2.2s2.45.82,2.45,2.19v0h-1.32a1.14,1.14,0,0,0-1.22-1.2c-.72,0-1.16.39-1.16,1s.65.91,1.83,1.32c1.46.51,2.18.91,2.18,2.23s-1,2.23-2.86,2.23-2.81-.83-2.81-2.46V46Z"/><path d="M20,16.81c5.37-1.52,8-3.8,8-7.87,0-5.78-4.72-8.68-13.37-8.68H0V1.41c2.7.1,3.35.76,3.35,3.41V31.36C3.35,34,2.7,34.67,0,34.78v1.14H16.72c8.47,0,13.55-3.61,13.55-9.45C30.27,19.66,25.31,17.16,20,16.81ZM13.25,1.39c5.46,0,7.63,2,7.63,7.26S18.75,16.2,13.2,16.2H9.92V4.09c0-.95,0-1.84,0-2.72Zm1.11,33.4-4.5,0q.06-2.87.06-6.1V17.53h3.56c6,0,9.07,3,9.07,8.73C22.55,32.44,20.19,34.79,14.36,34.79Z"/><path d="M52.09.29A15.55,15.55,0,0,0,39.86,6a19.44,19.44,0,0,0-4.54,12.65,19.42,19.42,0,0,0,4.49,12.61,16,16,0,0,0,24.61,0,19.42,19.42,0,0,0,4.49-12.61A19.44,19.44,0,0,0,64.37,6,15.65,15.65,0,0,0,52.09.29Zm0,35.52c-6.45,0-9.65-5.7-9.65-17.13s3.2-17.16,9.65-17.16,9.7,5.74,9.7,17.16S58.59,35.81,52.09,35.81Z"/><path d="M95.36,17.46C93.69,16,91,14.91,87.54,13.54c-5.19-2.06-8.1-3.58-8.1-7.26,0-2.8,2.31-5,5.64-5,4.51,0,8.18,3.28,10.6,9.69H97V3.25C93.94,1.12,89.31,0,85.22,0,78.74,0,74.81,3.88,74.81,9.76c0,5.59,3.47,8.44,10.37,11.14,6,2.35,9.07,4.22,9.07,8.29,0,3.77-2.6,6.28-6.81,6.28-5.23,0-8.55-3.4-11.3-10.6H74.86v8.7c1.6,1.72,7.76,3.22,11.84,3.22,8.15,0,12.82-4.12,12.82-10.69A10.63,10.63,0,0,0,95.36,17.46Z"/><path d="M125,17.46c-1.66-1.42-4.35-2.55-7.82-3.92-5.18-2.06-8.1-3.58-8.1-7.26,0-2.8,2.32-5,5.65-5,4.5,0,8.18,3.28,10.6,9.69h1.34V3.25C123.62,1.12,119,0,114.9,0c-6.48,0-10.41,3.88-10.41,9.76,0,5.59,3.47,8.44,10.36,11.14,6,2.35,9.07,4.22,9.07,8.29,0,3.77-2.59,6.28-6.8,6.28-5.24,0-8.56-3.4-11.31-10.6h-1.28v8.7c1.61,1.72,7.77,3.22,11.85,3.22,8.14,0,12.82-4.12,12.82-10.69A10.63,10.63,0,0,0,125,17.46Z"/></g></g></svg>