<svg xmlns="http://www.w3.org/2000/svg" viewBox="0 0 18.33 16.67"><title>Business</title><g id="Layer_2" data-name="Layer 2"><g id="Layer_1-2" data-name="Layer 1"><path d="M15.83,3.33h-2.5V2.5A2.5,2.5,0,0,0,10.83,0H7.5A2.5,2.5,0,0,0,5,2.5v.83H2.5A2.5,2.5,0,0,0,0,5.83v8.34a2.5,2.5,0,0,0,2.5,2.5H15.83a2.5,2.5,0,0,0,2.5-2.5V5.83A2.5,2.5,0,0,0,15.83,3.33ZM5,15H2.5a.83.83,0,0,1-.83-.83V5.83A.83.83,0,0,1,2.5,5H5Zm6.67,0h-5V5h5Zm0-11.67h-5V2.5a.83.83,0,0,1,.83-.83h3.33a.84.84,0,0,1,.84.83Zm5,10.84a.84.84,0,0,1-.84.83h-2.5V5h2.5a.84.84,0,0,1,.84.83Z"/></g></g></svg>