<svg xmlns="http://www.w3.org/2000/svg" viewBox="0 0 18.33 18.33"><title>Corporate</title><g id="Layer_2" data-name="Layer 2"><g id="Layer_1-2" data-name="Layer 1"><path d="M18.25,13a.85.85,0,0,1-.38,1.12L9.54,18.25a.89.89,0,0,1-.75,0L.46,14.08a.83.83,0,1,1,.75-1.49l8,4,8-4A.83.83,0,0,1,18.25,13ZM17.13,8.42l-8,4-8-4a.84.84,0,0,0-1.12.37A.83.83,0,0,0,.46,9.91l8.33,4.17a.83.83,0,0,0,.75,0l8.33-4.17a.83.83,0,1,0-.74-1.49Zm.74-2.67L9.54,9.91a.83.83,0,0,1-.75,0L.46,5.75a.84.84,0,0,1,0-1.5L8.79.09a.83.83,0,0,1,.75,0l8.33,4.16A.84.84,0,0,1,17.87,5.75ZM15.64,5,9.17,1.77,2.7,5,9.17,8.23Z"/></g></g></svg>