<?xml version="1.0" encoding="utf-8"?>
<!-- Generator: Adobe Illustrator 23.1.1, SVG Export Plug-In . SVG Version: 6.00 Build 0)  -->
<svg version="1.1" id="Layer_1" xmlns="http://www.w3.org/2000/svg" xmlns:xlink="http://www.w3.org/1999/xlink" x="0px" y="0px"
	 viewBox="0 0 79.5 20.5" style="enable-background:new 0 0 79.5 20.5;" xml:space="preserve">
<g id="Group_2326" transform="translate(-275.798 -311.082)">
	<g id="Group_2307" transform="translate(351.666 327.736)">
		<path id="Path_1471" d="M3.6,1.8c0,1-0.8,1.8-1.8,1.9C0.8,3.7,0,2.9,0,1.8S0.8,0,1.8,0c0,0,0,0,0.1,0C2.8,0,3.6,0.8,3.6,1.8
			C3.6,1.8,3.6,1.8,3.6,1.8z M0.5,1.8c0,0.8,0.6,1.4,1.3,1.4c0,0,0,0,0.1,0c0.7,0,1.4-0.6,1.4-1.3c0,0,0,0,0,0
			c0-0.8-0.5-1.4-1.3-1.4S0.5,0.9,0.5,1.6C0.5,1.7,0.5,1.7,0.5,1.8z M1.5,2.7H1.1l0-1.8c0.2,0,0.5-0.1,0.7,0c0.2,0,0.4,0,0.6,0.1
			c0.1,0.1,0.2,0.2,0.2,0.4c0,0.2-0.2,0.4-0.4,0.4v0c0.2,0.1,0.3,0.2,0.3,0.4c0,0.2,0.1,0.3,0.1,0.4H2.2C2.2,2.6,2.1,2.4,2.1,2.3
			C2.1,2.1,2,2,1.7,2H1.5L1.5,2.7z M1.6,1.7h0.2c0.2,0,0.4-0.1,0.4-0.3c0-0.2-0.1-0.3-0.4-0.3c-0.1,0-0.2,0-0.2,0L1.6,1.7z"/>
	</g>
	<g id="Group_2316" transform="translate(275.798 311.082)">
		<g id="Group_2308" transform="translate(0 0.248)">
			<path id="Path_1472" d="M8.3,0L5.7,0l0,8.8l-2.6,0L3,0L0.4,0l0,8.8L0,9.7l0.4,0.9l0,9.7l2.6,0l0-8.8l2.6,0l0,8.8l2.6,0l0-9.7
				l0.4-0.9L8.3,8.8L8.3,0z"/>
		</g>
		<g id="Group_2309" transform="translate(9.979 0.221)">
			<path id="Path_1473" d="M8.3,2.6L5.7,0L3,0L0.4,2.7l0,6.2L0,9.7l0.4,0.9l0,7l2.6,2.6l2.6,0l2.6-2.6l0-7l0.4-0.9L8.3,8.8L8.3,2.6z
				 M5.7,17.6l-2.6,0L3,2.7l2.6,0L5.7,17.6z"/>
		</g>
		<g id="Group_2310" transform="translate(19.957 0.184)">
			<path id="Path_1474" d="M8.3,2.6L5.7,0L3,0L0.4,2.7l0,6.2L0,9.7l0.4,0.9l0,7l2.6,2.6l2.6,0l2.6-2.6l0-7l0.4-0.9L8.3,8.8L8.3,2.6z
				 M5.7,17.6l-2.6,0L3,2.6l2.6,0L5.7,17.6z"/>
		</g>
		<g id="Group_2311" transform="translate(30.815 0.143)">
			<path id="Path_1475" d="M8.3,2.6L5.7,0L0.4,0l0,8.8L0,9.7l0.4,0.9l0,9.7l5.3,0l2.6-2.6l0-7l0.4-0.9L8.3,8.8L8.3,2.6z M5.7,17.6
				l-2.6,0L3,2.6l2.6,0L5.7,17.6z"/>
		</g>
		<g id="Group_2312" transform="translate(41.672 0.102)">
			<path id="Path_1476" d="M0.4,0l0,8.8L0,9.7l0.4,0.9l0,9.7l2.6,0l0-8.8l2.6,0l0,8.8l2.6,0l0-8.8L7,10.1l1.3-1.3l0-6.2L5.7,0L0.4,0
				z M5.7,8.8l-2.6,0l0-6.2l2.6,0L5.7,8.8z"/>
		</g>
		<g id="Group_2313" transform="translate(51.651 0.075)">
			<path id="Path_1477" d="M3,0L0.4,0l0,8.8L0,9.7l0.4,0.9l0,9.7l2.6,0l0-9.7l0.4-0.9L3.1,8.8L3,0z"/>
		</g>
		<g id="Group_2314" transform="translate(56.359 0.047)">
			<path id="Path_1478" d="M3,0L0.4,2.7l0,6.2L0,9.7l0.4,0.9l0,7l2.6,2.6l2.6,0l2.6-2.6l0-3.5l-2.6,0l0,3.5l-2.6,0l0-7l0.5-0.8
				L3.1,8.9l0-6.2l2.6,0l0,3.5l2.6,0l0-3.5L5.7,0L3,0z"/>
		</g>
		<g id="Group_2315" transform="translate(66.338)">
			<path id="Path_1479" d="M8.3,8.8l0-8.8L5.7,0l0,8.8l-2.6,0L3,0L0.4,0l0,8.8L0,9.7l0.4,0.9l0,9.7l2.6,0l0-8.8l2.6,0l0,8.8l2.6,0
				l0-9.7l0.4-0.9L8.3,8.8z"/>
		</g>
	</g>
</g>
</svg>
