<svg xmlns="http://www.w3.org/2000/svg" viewBox="0 0 30 30"><defs><style>.cls-1{fill:none;}.cls-2{fill:#b2b2b2;}</style></defs><title>Instagram</title><g id="Layer_2" data-name="Layer 2"><g id="Layer_1-2" data-name="Layer 1"><polygon class="cls-1" points="15 0 15 0 15 0 15 0"/><path class="cls-2" d="M25.62,25.62v0l0,0Z"/><path class="cls-2" d="M4.38,4.38v0l0,0Z"/><path class="cls-2" d="M25.62,4.38h0l0,0Z"/><path class="cls-2" d="M4.38,25.62h0l0,0Z"/><path class="cls-2" d="M25.62,4.41l0,0A14.92,14.92,0,0,0,15,0h0A14.92,14.92,0,0,0,4.41,4.38l0,0a15,15,0,0,0,0,21.18l0,0a15,15,0,0,0,21.18,0l0,0a15,15,0,0,0,0-21.18Zm-3.8,13.42a5.13,5.13,0,0,1-.32,1.66,3.46,3.46,0,0,1-.79,1.22,3.55,3.55,0,0,1-1.22.79,5.13,5.13,0,0,1-1.66.32c-.73,0-1,0-2.83,0s-2.1,0-2.83,0a5.13,5.13,0,0,1-1.66-.32,3.55,3.55,0,0,1-1.22-.79,3.46,3.46,0,0,1-.79-1.22,5.13,5.13,0,0,1-.32-1.66c0-.73,0-1,0-2.83s0-2.1,0-2.83a5.13,5.13,0,0,1,.32-1.66,3.47,3.47,0,0,1,2-2,5.13,5.13,0,0,1,1.66-.32c.73,0,1,0,2.83,0s2.1,0,2.83,0a5.13,5.13,0,0,1,1.66.32,3.47,3.47,0,0,1,2,2,5.13,5.13,0,0,1,.32,1.66c0,.73,0,1,0,2.83S21.85,17.1,21.82,17.83Z"/><path class="cls-2" d="M15,12.71A2.29,2.29,0,1,0,17.29,15,2.3,2.3,0,0,0,15,12.71Z"/><path class="cls-2" d="M20.35,11A2.34,2.34,0,0,0,19,9.65a3.89,3.89,0,0,0-1.27-.23c-.72,0-.94,0-2.77,0s-2.05,0-2.77,0A3.89,3.89,0,0,0,11,9.65,2.34,2.34,0,0,0,9.65,11a3.89,3.89,0,0,0-.23,1.27c0,.72,0,.94,0,2.77s0,2.05,0,2.77A3.89,3.89,0,0,0,9.65,19,2.34,2.34,0,0,0,11,20.35a3.89,3.89,0,0,0,1.27.23c.72,0,.94,0,2.77,0s2.05,0,2.77,0A3.89,3.89,0,0,0,19,20.35,2.34,2.34,0,0,0,20.35,19a3.89,3.89,0,0,0,.23-1.27c0-.72,0-.94,0-2.77s0-2.05,0-2.77A3.89,3.89,0,0,0,20.35,11ZM15,18.52A3.52,3.52,0,1,1,18.52,15,3.53,3.53,0,0,1,15,18.52Zm3.66-6.36a.82.82,0,1,1,.82-.82A.82.82,0,0,1,18.66,12.16Z"/></g></g></svg>