<?xml version="1.0" encoding="utf-8"?>
<!-- Generator: Adobe Illustrator 24.0.2, SVG Export Plug-In . SVG Version: 6.00 Build 0)  -->
<svg version="1.1" id="Layer_1" xmlns="http://www.w3.org/2000/svg" xmlns:xlink="http://www.w3.org/1999/xlink" x="0px" y="0px"
	 viewBox="0 0 104.9 97.9" style="enable-background:new 0 0 104.9 97.9;" xml:space="preserve">
<title>Asset 8</title>
<g id="Layer_2_1_">
	<g id="Layer_1-2">
		<path d="M57,6.7c0-0.2-0.1-0.4-0.1-0.7c-0.2-3.1,2.1-5.8,5.2-6s5.8,2.1,6,5.2s-2.1,5.8-5.2,6c-0.2,0-0.4,0-0.6,0
			c-0.1,0-0.2,0.1-0.3,0.1c-0.3,0.5,0.8,0.4,0,2.6c0,0.2,0,0.3-0.1,0.5c-0.1,0.8-0.4,3.3-0.4,4.6c0.2,0.2,0.2,0.3,0.2,0.7
			c-0.1,1.1-0.2,2.1-0.5,3.1c-0.1,0.5-0.4,1-0.8,1.2c-0.2,1.8-0.7,3.6-1.4,5.3c0,1-0.2,1.9-0.5,2.8c0,2.4,0.1,2.7-1.5,6.5
			c-0.4,1.8,0,3,0.4,4.8s1.7,2.6,1.9,4.6c0.5,3.7,0.3,7.5-0.6,11.1l0.8,2c1,0.5,3.7,1.8,2.2,3.9c2,1.1,5.1,2.2,7.6,4.4
			c1.1,0.9,2.1,1.8,3,2.8c1.8,0.3,1.6,0.4,3,1.3c5,3.2,9.7,6.8,14.2,10.8c0.6,0.4,0.9,0.6,1.4,0.9c0.1,0.2,0.1,0.2,0.1,0.2
			c-0.2,0.4-0.2,0.5-0.3,0.8c0.2,0.2,0.6,0.4,0.8,0.6s0.2,0,0.6-0.1c0.3,0.4,0.8,0.6,1.2,0.8c0.6-0.2,0.5,0,1.1-0.6
			c0.2-0.2,0.5,0,0.5,0c0.4-0.4,0.8-0.7,1.2-1c0.4-0.2,0.9-0.3,1.3-0.3c0.3,0,0.2,0.3,0.2,0.4c-0.5,0.2-1,0.4-1.4,0.6
			c-0.6,0.6-1.1,1.3-1.5,2.1c1.7-0.2,2.8,0.2,4.2,0c0.8,0.1,1.5-0.2,2.2-0.6c0.5-0.3,1-0.6,1.5-0.9c0.7-0.3,1.4-0.2,1.9,0.3
			c0.4,0.5,0.7,0.5,0,1.2c-0.2,0.3-0.6,0.6-1,1c-0.9,0.9-1.9,1.8-2.8,2.6c-0.9,0.8-2,1.4-3.1,2c-1.1,0.7-2.1,1.5-3,2.4
			c-0.2,0.2-0.7,0.5-0.9,0.6c-0.6,0.4-0.8,0.1-1.2-0.7c-0.2-0.3-0.3-0.6-0.5-0.8c-0.3-0.6-0.6-1.3-0.5-1.3c-0.9-0.6-1.5-1.4-2-2.3
			c-0.7-0.4-1.4-1-1.8-1.8l-1.3-1c-1.5,0.3-1.8-0.6-5.7-3.4c-0.8-0.1-1.5-0.5-2.1-1c-1.8-1.4-6-4.6-6.7-5c-0.8-0.3-1.5-0.7-2.2-1.2
			c-0.8-0.2-1.3-0.2-1.7-0.4c-0.6-0.2-1.2-0.4-1.9-0.5c-1.9-0.3-3.7-0.9-5.4-1.8c-0.8-0.4-1.6-0.6-2.3-0.9c-1.3-0.6-2.6-1.1-4-1.5
			c-1.2-0.3-2.3-0.7-3.4-1.2c-0.2-0.2-0.5-0.3-0.8-0.4c-0.4-0.1-0.8,0-1.1,0.2c-1.3,0.7-2.5,1.3-3.6,1.9s-2,1.1-3,1.7s-2,1-3.1,1.6
			c0,0-3.1,1.6-4.8,2.2c-2,1.6-4.1,3-6.3,4.3c-0.9,0.4-2.7,1.6-3.5,1.8c-0.5,0.4-2.1,1.6-3.4,2.5c-1,0.8-1.8,1.4-1.8,1.4
			C19,90.2,19.1,90.5,18,90c-0.3,0.2-0.5,0.4-0.8,0.6C16.4,91.2,16.3,91,16,91c-0.6,0.5-0.6,0.2-1.1,0.8c-0.3,0.5,0,0.4-0.7,0.6
			c-0.1,0.1-0.2,0.2-0.3,0.3c-0.6,0.4-0.6,1.7-1.9,1.8c-0.8,0.5-0.6,1.2-1.1,1.2c0,0.6-1,1.4-1.2,1.4c-1.7,0.6-1.8-0.7-3.8,0.3
			c-0.3,0.2-0.7,0.4-1.1,0.5c-0.9,0.2-1.9,0-2.6-0.5c-0.8-0.7-1.5-1.4-2-2.3C-0.2,94.2,0,93.8,1,93c0.3-0.3,0.8-0.5,1.2-0.5
			c0.3-0.1,0.2,0.1,0.9-0.2c0.4-0.1,0.4,0,1.1-0.1C4.4,92.1,4.7,92,4.9,92C5.5,91.8,6,91.6,6,91.6s0.2-0.2,0.7-0.1
			c0.5-0.2,1-0.5,1.2-0.6c-0.1-0.7,0-0.7,0.4-1s0.5-0.3,0.8-0.1c0.1-0.1,0.2-0.1,0.2-0.2c0-0.4-0.4-0.6-0.3-1.4
			c-0.2-0.3-0.3-0.6-0.3-1c0.1-0.3,0.1-0.4,0.3-0.5s0.2,0,0.3,0.1c0.1,0.2,0.2,0.5,0.3,0.8c0.1,0.7,0.3,1.5,0.9,1
			c0.4-0.4,0.5-1.4,1.2-1.2l0.6,0.5c0.2-0.2,0.5-0.5,0.8-0.6c0,0-0.4-0.4-0.1-0.8c0.4-0.3,0.8-0.6,1.2-1c1.3-1.4,2.6-2.7,4.1-3.9
			c2.9-2.4,6.2-4.3,9.7-5.7c0.8-1.1,2-1.8,3.4-1.9c1.9-2.9,4.3-5.4,7.1-7.3c0.8-1.4,1.1-1.2,2.1-1.5c0.8-0.6,1-0.6,1.3-1.3
			c0.3-1.3-0.8-5,2.1-5.2c0.3-0.5,0.7-1,1.2-1.5c-0.4-0.9-0.6-1.9-0.8-2.9c0-0.1-1.2-0.9-0.8-1.9c-0.6-0.8-1.2-1.7-1.7-2.6
			c-0.1,0-0.3,0-0.4-0.1c-0.1,0-0.3,0-0.5,0c-0.2,0.8-0.9,1.4-1.7,1.5c-1.4,3-1.9,4.3-6,6.8c-1,1.1-1.7,2.4-2.1,3.8
			c-0.2,0.6-0.2,1.3,0,1.9C31,64.4,31,64.4,31,64.4c0.1,0.3,0.3,0.5,0.6,0.6c0.5,0.1,1,0.1,0.9,0.7s-1,0.6-1.4,0.5
			c-1.6-0.3-1.1-1.3-2.1-1c-0.8,0.5-1.1,2-2.4,1.8c-0.2-0.1-0.1-0.4,0-0.7s0.5-0.7,0.3-0.8c-0.8,0.3-2.5,0.8-2.5,0.8
			c-0.8,0.2-1.7-0.2-0.9-0.7c0.5-0.2,1.1-0.4,1.5-0.7c0,0,0.3-0.4-0.3-0.2c-0.8,0.3-1.6,0.4-2.4,0.3c-0.6-0.1-1.1-0.2-1.7-0.3
			c-0.2-0.1-0.4-0.6,0.1-0.6c1.1,0,2.2-0.2,3.3-0.5c0.6-0.2,1.6-0.8,2.2-1.2c0.3-0.4,0.6-0.8,1-1.1c0.6-0.7,1.1-1.1,1.6-1.8
			c0.8-1.9,1.7-3.6,2.8-5.3c0.9-1.4,1.9-2.7,3-3.8c0.3-1.3,0.9-2.5,1.9-3.5c0.4-0.9,0.9-1.8,1.4-2.7c0.2-0.3,0.4-0.7,0.6-1
			c0.5-0.8,1-2.2,3-2.5c0.4-0.3,0.8-0.6,1.1-1c0.5-0.4,0.4-1.1,0.8-1.5c-0.6-0.6-2.2-1.7-2.3-3.3c-0.2-1.5,0.4-3,1.4-4.1
			c0.9-1.1,2.3-1.7,3.7-1.6c1.1,0.1,2.1,0.6,2.7,1.5c0.5,0.5,0.8,0.2,1,0.9c1.5,0.4,1.4,0.2,1.4,1.3c0.4,0.3,0.6,0.8,0.6,1.2
			c0.4-1,1.1-1.8,2-2.4c0.3-0.9,0.5-1.9,0.8-2.8s0.6-1.8,0.8-2.4c-0.3-1.9,0.3-2.2,1-3.9c-0.1-0.2-0.1-0.3,0-0.7
			c0.3-1.1,0.7-2.5,1-3.5c0.1-0.2,0.3-0.4,0.5-0.4c0.3-1.2,0.8-3.4,0.9-3.9c0.3-0.8,0.2-1.6-0.1-2.4c-0.1-0.2,0-0.6-0.2-0.8
			c-0.4-0.7-0.9-1.7-1.2-2.4C57.4,8.1,57.2,7.4,57,6.7C56.7,5.8,57,6.7,57,6.7"/>
	</g>
</g>
</svg>
