<svg xmlns="http://www.w3.org/2000/svg" viewBox="0 0 305.34 242.84"><defs><style>.cls-1{fill-rule:evenodd;}</style></defs><title>Asset 1</title><g id="Layer_2" data-name="Layer 2"><g id="Layer_1-2" data-name="Layer 1"><g id="GreEkw"><path class="cls-1" d="M77.93,116.79c.7-.9,1.4-1.7,2-2.6,2.6-4.2,5.2-8.5,7.7-12.8a30.47,30.47,0,0,0,2.1-4,1.36,1.36,0,0,1,1.9-.8c1.4.5,2.7,1.1,4.1,1.6,1.7.6,1.8,1,.9,2.6a113.12,113.12,0,0,0-7.3,15.8,60.7,60.7,0,0,0-3.4,16.3,9.29,9.29,0,0,0,.4,1.3c.3-.3.8-.5,1-.9,2.2-4.4,4.3-8.9,6.6-13.3a189,189,0,0,1,12.5-20.2,9.58,9.58,0,0,1,5.7-4.3,4.73,4.73,0,0,1,5,1.6,41.92,41.92,0,0,1,2.6,3.3c.9,1.2,1.5,1.3,2.5.2.9-.9,1.7-1.9,2.6-2.8,1-1.1,1.8-1,2.6.2,1.2,1.7,2.4,3.5,3.6,5.3a1.9,1.9,0,0,1,.1,1.3c-1.3,3.1-2.7,6.3-4,9.4-2.3,5.3-4.5,10.6-6.8,15.8v.1l-.3,1.8a11.27,11.27,0,0,0,1.8-.3,39.68,39.68,0,0,1,11.3-1.7,27.1,27.1,0,0,1,4,.4c.3,0,.5.2.7.6l-2,.3-8,1.8a1.42,1.42,0,0,0-.6.2c-.8.5-1.7.9-1.7,2s.9,1.5,1.8,1.8a31.24,31.24,0,0,0,11.7,1.9c1.7-.1,3.2-.5,4-2.2a4.14,4.14,0,0,0-.8-4.6c-2.8-3.2-5.6-6.3-8.3-9.6a22,22,0,0,1-3.2-5.3,6.3,6.3,0,0,1,1.6-7.5c2.8-2.5,5.8-4.8,8.8-7a51.87,51.87,0,0,1,7.7-4.8c3.2-1.6,5-4.2,6.5-7.3.7-1.4.7-1.5,2.2-.8s2.8,1.4,4.1,2.2,1.4,1.5.1,2.5a2.94,2.94,0,0,0-1,1.2,180.17,180.17,0,0,0-12.2,23.5,2.77,2.77,0,0,0-.3,1.3c0,2.7-1.9,3.9-4.3,2.9a23.29,23.29,0,0,0-2.8-1.1c-1.3-.5-1.3-.7-.8-2,1.4-3.2,2.7-6.3,4.1-9.5.1-.3.3-.7.4-1a1.8,1.8,0,0,0-.2-1,1,1,0,0,0-.9.1,16.37,16.37,0,0,0-5.6,5.5c-1.3,2.4-.7,4.7.6,6.9,2.4,4.2,5.8,7.7,8.9,11.5a17.94,17.94,0,0,1,2.7,4.4c1.1,2.3.1,4.2-2.4,4.6a21.5,21.5,0,0,1-6.2.2,54.82,54.82,0,0,1-16.8-4.8,33.25,33.25,0,0,1-5-3.3c-.7-.5-1.1-.4-1.5.2a2.51,2.51,0,0,0-.4.7c-1.7,3.5-3.3,7-4.9,10.4-.7,1.5-.4,2,1.3,2.1,7.8.1,15.5.1,23.3.3,3.5.1,7,.4,10.5.7,1.4.1,1.8-.2,2.1-1.6.7-3.2,1.4-6.3,2.1-9.5.3-1.3.5-1.4,1.7-1,1.7.5,3.4,1,5.1,1.4,1.5.4,1.6.6,1.5,2.1a6.28,6.28,0,0,0,.3,1.9c.2,1.4.3,2.9.5,4.3-.1,0-.3.1-.4.1a2.18,2.18,0,0,1-.5-.4c-.7-.6-1.3-.4-1.5.4a35.83,35.83,0,0,0-.9,4.5c-.2,1.1.7,1.6,1.5,2a27.38,27.38,0,0,1,9.1,7.1,31.43,31.43,0,0,1,6.5,13.5,41.6,41.6,0,0,1,.8,14.5,65.77,65.77,0,0,1-10.4,30,53,53,0,0,1-16.6,16.4,30.17,30.17,0,0,1-10.4,4.1,2.67,2.67,0,0,0-2.4,2.4c-.6,3.1-.8,3.1-3.5,1.5l-3.6-2.1c-.4-.3-.9-.7-1-1.1-.3-1.4-1.3-2-2.5-2.6a45.18,45.18,0,0,1-10.6-6.7c-3.1-2.7-5.5-5.9-6.1-10.1a20.27,20.27,0,0,1,.1-5.5c.2-1.2.9-1.4,1.9-.7a11.82,11.82,0,0,0,4.3,1.9,4.59,4.59,0,0,1,2.2,1.5,1.55,1.55,0,0,1-.1,1.6,9,9,0,0,0-.8,7.7,8,8,0,0,0,4.3,5.2,21.53,21.53,0,0,0,7,2.4c2,.2,2.5-.2,2.9-2.1,3-13,5.9-26,8.9-39a9.64,9.64,0,0,0,0-2.4,14.27,14.27,0,0,0-2.2.8,11.92,11.92,0,0,1-10.7,1,30.74,30.74,0,0,1-11-6.8,13.44,13.44,0,0,1-4-11.5,22.44,22.44,0,0,1,3.9-10.9,3.71,3.71,0,0,0,.4-1.5c-.5-.1-1.1-.4-1.5-.2-3.1.7-6.1,1.5-9.1,2.3a4.91,4.91,0,0,0-2.8,2.1c-4.7,6.4-9.2,13-14.3,19.2-7.5,9.1-16,17.1-26.4,22.8a49.78,49.78,0,0,1-14.1,5.2c-1.7.3-3.3,1.2-5,1a38.54,38.54,0,0,1-7.5-1.6c-6.5-2.2-11.6-6.2-14.3-12.8a20.13,20.13,0,0,1-1.2-10.3c.9-8.9,5.9-15.3,12.6-20.7a61.89,61.89,0,0,1,18.9-9.8c4.9-1.7,9.9-3.4,14.9-4.8,4.1-1.1,8.4-1.9,12.6-2.7a186.41,186.41,0,0,1,23.5-3,3.18,3.18,0,0,0,2.6-1.7,136.74,136.74,0,0,0,8.7-18.1c1-2.5,1.9-4.9,2.9-7.4a2.77,2.77,0,0,0,.3-1.3c0-.6-.3-.9-.9-.6a3.92,3.92,0,0,0-1,.8c-4.8,5.1-9.5,10.2-14.3,15.3-2.7,2.9-5.4,5.9-8.2,8.8-1.2,1.3-1.4,1.3-3,.5-.4-.2-.7-.3-1.2-.5-.2,2.1-1.5,1.3-2.5,1s-2.1-.4-3.1-.7c-2.4-.7-3.6-2-3.5-4.4.1-4.7,0-9.4,1-14.1a5,5,0,0,0,.2-1.2c0-.4-.2-.9-.2-1.3-.4.2-.9.3-1.1.7-2,3-4,6-5.9,9.1-2.1,3.5-4.2,7-6.2,10.6a12.13,12.13,0,0,0-1.1,3.7c-.2,1-.6,1.4-1.5,1.1-1.9-.5-3.9-.9-5.8-1.4a1.53,1.53,0,0,1-1.2-2.2q1.35-3.75,3-7.5c4.2-9.2,8.5-18.3,12.7-27.4a43.56,43.56,0,0,0,1.7-5.1c.2-.6.5-1,1.2-.8,1.9.4,3.8.7,5.6,1.1,1.2.3,1.2.6.7,1.7-1.4,3.1-2.8,6.3-4.1,9.5-.1.2,0,.4,0,.6C77.73,116.69,77.83,116.79,77.93,116.79ZM36,208.29a40.59,40.59,0,0,0,14.9-3.5,68.62,68.62,0,0,0,25.7-18.2,172.21,172.21,0,0,0,15.2-18.9c.3-.4.3-1.1.5-1.6a5,5,0,0,0-1.7-.2c-1.2.2-2.5.6-3.7.9-6,1.7-12,3.4-18,5.3-3.8,1.2-7.5,2.5-11.3,3.8a1.41,1.41,0,0,1-1.8-.6,26.39,26.39,0,0,1-1.5-2.9c-.4-.8,0-1.3.7-1.6,5.9-2,11.8-4.1,17.8-6,3.6-1.2,7.3-2.1,10.9-3.1a72.22,72.22,0,0,1,8.9-2.2c3.3-.4,5.6-1.6,6.9-4.7,0-.1.1-.1.1-.2.1-.5.4-1.1.3-1.5s-.9-.4-1.4-.4l-7.3.9c-3.9.6-7.9,1.1-11.8,2-5.2,1.2-10.4,2.7-15.5,4.3a102.84,102.84,0,0,0-23.1,10c-5.9,3.5-10.8,7.9-13.6,14.3-2.4,5.4-3.5,11.1-1.5,16.9,1,3,2.8,5.7,6.2,6.5A27,27,0,0,0,36,208.29ZM169.33,180c-.3-2.7-.4-5.4-.8-8a24,24,0,0,0-9-16.1c-1.5-1.2-2.2-.9-2.7,1-2.7,11.2-5.5,22.4-8.2,33.6-2.6,10.7-5.2,21.5-7.9,32.2-.6,2.5-1.2,5.1-1.8,7.6a1.55,1.55,0,0,0,.2,1.2c.2.2.8.1,1.2,0,.8-.3,1.7-.8,2.5-1.2a44.52,44.52,0,0,0,15.1-15.1A75.91,75.91,0,0,0,169.33,180Zm-22.7-24.5c-1.3.2-2.8.5-4.3.7-4.1.6-8.1,1.1-12.2,1.7a4.52,4.52,0,0,0-2.5,1.2,26.61,26.61,0,0,0-7.7,23.5c.3,2.5,1.5,3.5,4,3.7a9.49,9.49,0,0,0,8.5-3.4,2.09,2.09,0,0,1,2.5-.8c1.6.6,3.3,1.2,4.9,1.9,1.2.5,1.8.4,2.1-.9.5-1.6.9-3.3,1.3-4.9,1.7-7,3.4-14.1,5-21.1C148.53,156.09,148,155.49,146.63,155.49ZM100.33,124c.1.1.2.1.3.2a5.8,5.8,0,0,0,1.2-1c2.4-2.4,4.7-4.9,7-7.4,2.9-3.2,5.9-6.4,8.8-9.6a1.83,1.83,0,0,0,.2-2.7,2.32,2.32,0,0,0-3.4-.4,8.33,8.33,0,0,0-2,2.2c-4,5.9-7.9,11.8-11.8,17.7A3.81,3.81,0,0,0,100.33,124Zm25.7,28.7a.9.9,0,0,0-.1-.5,8,8,0,0,0-1.5-.3c-3.8,0-7.6.1-11.4-.1a4.37,4.37,0,0,0-4.5,2.7c-.2.4-.4,1-.2,1.2s.8.3,1.3.4c.3,0,.5-.1.8-.1l11.4-2.1Z"/><path class="cls-1" d="M266.43,144.69a17.67,17.67,0,0,0-1.2,1.7c-5.2,9.6-9.9,19.5-11.2,30.6-.1,1-.6,1.4-1.6,1.1-1.3-.4-2.7-.5-4.1-.8-1.1-.2-1.4-.7-1.1-1.8,1.6-6.3,3.2-12.6,4.6-19,1.5-6.7,2.9-13.4,4.3-20.2a20.61,20.61,0,0,0,.3-2.6c-.2-.1-.3-.1-.5-.2a13.44,13.44,0,0,0-1.1,1.4,97.68,97.68,0,0,0-8.7,19.9,3.43,3.43,0,0,0,.3,2.8,15.5,15.5,0,0,1,1.4,2.9c.3.7.1,1-.7.9-2.9-.2-3-.2-3.4,2.6a97.3,97.3,0,0,0-1.8,19.4c.1,1.5-.3,1.7-1.7,2-3.6.8-5.9-1.4-7.4-4.2a71,71,0,0,1-6.3-16c-.3-1.4-.5-2.8-.8-4.1a11.61,11.61,0,0,0-.6-1.6c-.5.7-.9,1.1-1.2,1.6a26.61,26.61,0,0,1-7.3,9,19,19,0,0,0-1.9,2.1c-.1.1-.3.3-.4.3-2,1.1-4.1,2.1-6.1,3.2a2.7,2.7,0,0,0-1,1.7,66.35,66.35,0,0,0-.5,7.7c0,2.2,1.2,2.8,2.9,1.5a13.17,13.17,0,0,0,3.4-4,35.51,35.51,0,0,0,2.2-6.5,4.71,4.71,0,0,0-.2-2,9.32,9.32,0,0,0-.2-1.4,6.83,6.83,0,0,1,1.3.4c1.8,1.1,3.6,2.1,5.3,3.2a1.78,1.78,0,0,1,.8,2.2c-1.5,4.3-3.4,8.2-7.3,10.9a9.53,9.53,0,0,1-13-1.8,9.75,9.75,0,0,1-1.6-4.4,55.82,55.82,0,0,1-.1-7.1,3.19,3.19,0,0,0-1-2.6,11.61,11.61,0,0,1-3.6-7.6c0-.4-.4-.8-.6-1.2-.4.3-.9.5-1.1.9-3.4,6.6-6.4,13.4-7.6,20.9-.7,4.4-1.4,8.9-2.1,13.3-.2,1.2-.5,1.4-1.7,1-1.5-.6-3-1.1-4.5-1.6-1-.3-1.1-1.1-1-1.9a75.84,75.84,0,0,1,.8-8.2c1.4-8,2.9-16,4.3-24,.1-.5.1-1,.2-1.6.2-1.4.6-1.7,1.9-1.3a28.49,28.49,0,0,1,3.1,1.2c1.3.5,1.8.4,2.4-.9,2.5-5.1,4.9-10.3,7.4-15.4.7-1.6,1.1-1.7,2.7-1,3.4,1.6,3.4,1.6,2.4,5.2a48,48,0,0,0-1.9,13.6,6,6,0,0,0,1,3.7c.4-.8.6-1.3.8-1.8,1.7-5.1,3.2-10.3,5.2-15.3a39.57,39.57,0,0,1,4.4-8.1c1.7-2.6,4-2.9,6.7-1.6,1.5.7,3,1.4,4.5,2.2a4.62,4.62,0,0,1,2.7,4.3,21.3,21.3,0,0,0,.3,2.5c.2,1.2.6,1.4,1.6.7a10.44,10.44,0,0,1,8.9-1.3,8.8,8.8,0,0,1,1.5.5,1.38,1.38,0,0,0,2.1-.9c1-2.3,2-4.6,2.9-6.9a4.82,4.82,0,0,0,0-1.2,5.85,5.85,0,0,0-1.3.2c-3.1,1.6-6.2,3.3-9.3,4.9a6.36,6.36,0,0,1-1.8.6,1.44,1.44,0,0,1-1.8-1.8c.2-1.4.5-2.8.8-4.3a2.27,2.27,0,0,1,2.2-1.9,18.15,18.15,0,0,0,3-1.1c1.2-.5,1.4-.4,1.3.9-.1.9.4,1.3,1.3.8a22.31,22.31,0,0,0,3.3-2l14.7-11.4a2.27,2.27,0,0,1,1.8-.3c1.9.4,3.7,1.1,5.6,1.6,1.1.3,1.6.8,1.4,1.9-.1.9,0,1.9-.1,2.8a6.31,6.31,0,0,1-.8,2.3,2.89,2.89,0,0,0-.2,2.9c.6-.8,1.2-1.3,1.7-1.9l5.7-8.1c1.2-1.6,1.9-1.7,3.6-.7,2.7,1.7,2.7,1.7,2,4.9-.4,1.8-.8,3.7-1.2,5.5a3.1,3.1,0,0,0,.3,1.8,9.55,9.55,0,0,0,1.2-1.6c1.9-3.3,3.6-6.6,5.6-9.8,1.7-2.8,3.4-5.5,5.3-8.2,1.4-1.9,2.7-2.1,4.8-1a1.47,1.47,0,0,1,.5.6,5.83,5.83,0,0,1,0,5.3c-3.8,8.2-5.8,16.9-7.1,25.8-.8,5.5-1.3,11-1.7,16.5a33.68,33.68,0,0,0,.1,5.5c0,.9-.2,1.2-1.1.9-1.6-.6-3.3-1.2-4.9-1.9a2.17,2.17,0,0,1-1.4-2.5,101.86,101.86,0,0,1,2-16.5c.3-1.5.5-3,.7-4.5a2.46,2.46,0,0,0-.1-1.2c-.1,0-.2-.1-.4-.1a11.27,11.27,0,0,0-1.2,1.8c-1.9,4.3-3.8,8.7-5.6,13.1a51.73,51.73,0,0,0-1.8,5.1,20.48,20.48,0,0,0-.5,2.4c-.1.9-.4,1.3-1.3,1.1s-2.1-.4-3.2-.6c-1.4-.2-1.7-.7-1.6-2.2.6-7.1,2.2-14,3.7-20.9.1-.6.1-1.1.2-1.7C266.73,144.89,266.53,144.79,266.43,144.69Zm-46.6,3.5c-.3-.6-.6-1.3-.9-1.9-.5.5-1.1.9-1.6,1.4-.1.1-.1.2-.2.3a104.67,104.67,0,0,0-7.2,16.9,1.85,1.85,0,0,0-.2.7c0,.7.3,1,1,.6a4.35,4.35,0,0,0,.7-.6A28.15,28.15,0,0,0,219.83,148.19Zm15.1,26.9a.9.9,0,0,0,.5-.1c.1-.4.1-.8.2-1.2.5-4.4.9-8.7,1.4-13.1a39.92,39.92,0,0,1,1.1-4.7,2.65,2.65,0,0,0-2-3.2c-1.3-.4-2,.2-2.5,1.9a27.41,27.41,0,0,0-.5,2.8,47.86,47.86,0,0,0,.6,13.1A33.05,33.05,0,0,0,234.93,175.09Z"/><path class="cls-1" d="M45.13,107.19a4.22,4.22,0,0,0-1.2.3c-6.2,3.5-12.4,7-18.5,10.6a5,5,0,0,0-1.8,2c-2.8,6-5.4,12-8.1,18-.6,1.3-1.1,2.6-1.7,3.9s-.3,1.9.9,2.5a.37.37,0,0,0,.3.1c2.5,1.1,2.5,1.1.8,3.2-2.8,3.3-5.6,6.5-8.3,9.8a1.9,1.9,0,0,1-2.1.7c-1.7-.5-3.5-.7-4.9-2-.5-.5-.8-.9-.2-1.5a5.3,5.3,0,0,0,.6-1c3.8-8.7,7.5-17.4,11.2-26.1a1.42,1.42,0,0,0,.2-.6V126c-.4,0-.9-.1-1.2.1a9.06,9.06,0,0,0-1.6,1.1,2.63,2.63,0,0,1-2.7.4c-1.2-.4-2.5-.6-3.7-1-.3-.1-.9-.4-.9-.6a1.43,1.43,0,0,1,.5-1.1c5.4-3.8,9.6-8.9,14.3-13.5a7.76,7.76,0,0,0,1.6-2.4c6.9-15.9,13.7-31.9,20.5-47.8a12.9,12.9,0,0,0,.7-4c.1-.7.2-1.1,1-.8l5.7,2.7a2.11,2.11,0,0,1,.8,2.9c-1.8,3.6-3.5,7.3-5.2,11-2.3,5-4.5,10-6.8,15a8.43,8.43,0,0,0-.6,1.4,9.15,9.15,0,0,0-.1,1.7,3.69,3.69,0,0,0,1.4-.7,121.29,121.29,0,0,1,15.2-11.5,23.51,23.51,0,0,1,3.9-1.9,2.75,2.75,0,0,1,2,.2c2.1,1.2,4.2,2.5,6.3,3.7.3.2.6.3.7.6.2.5.7,1.3.5,1.6-.4.8-1,.2-1.5-.1a3.18,3.18,0,0,0-3-.1,47.73,47.73,0,0,0-15,9.3c-5,4.4-9.7,9.1-14.4,13.7-.4.4-.5,1.1-.8,1.6a4.71,4.71,0,0,0,1.7-.4c9.5-5.2,18.9-10.5,28.4-15.7.3-.2.5-.3.8-.5,3.8-2.1,3.1-1.9,6.8.7a21.37,21.37,0,0,0,3.2,2,2,2,0,0,1,1.3,2.1,14.36,14.36,0,0,1-3.8,7.8,1.8,1.8,0,0,1-1.6.2,37.8,37.8,0,0,1-4.3-2.6c-.8-.6-1.4-.3-2,.3-3.4,3.8-6.9,7.6-10.2,11.5a90.08,90.08,0,0,0-11.7,17,34.79,34.79,0,0,0-3.9,11.5,15.74,15.74,0,0,0,2,10.2c.1.2.3.4.4.6.4.7.9,1.5.2,2-.2.2-1.2-.2-1.6-.6a72.66,72.66,0,0,1-5.6-5.5c-3-3.6-3-7.9-2-12.3,1.4-6.1,4.4-11.4,7.9-16.4,2.6-3.7,5.5-7.2,8.3-10.7.4-.5.7-1.1,1.1-1.6C45.23,107.39,45.13,107.29,45.13,107.19Z"/><path class="cls-1" d="M197.43,76.09c-1.2-.4-2.3-.8-3.5-1.3l.9,1.2a7.63,7.63,0,0,1-4-2.5,23.26,23.26,0,0,1-5-9.9,109.6,109.6,0,0,1-2.1-13.8c-.5-7.1-.4-14.2-.6-21.3,0-1.4.1-2.8.2-4.3-.1,0-.2-.1-.3-.1a11.78,11.78,0,0,0-1.1,1.9c-3.2,6-6.2,12.1-9.5,18.1a47,47,0,0,1-3.8,5.3,7.63,7.63,0,0,0-.8,1.1c-.8,1.8-2.5,1.5-4,1.7-.3.1-.7-.4-1.1-.7,1-.3,2.1.2,2.5-.8-1.4-.2-2.7-.4-4-.7-.2,0-.5-.3-.6-.6-1.6-4.8-3.2-9.5-4.7-14.3-.4-1.2-.6-2.4-1-3.6h-.4c-.5,1.8-1.1,3.5-1.5,5.3-.7,2.9-1.3,5.9-1.8,8.9-.2,1.3-.7,2.8-.2,3.9s-.1,1.6-.6,2.3A3.58,3.58,0,0,0,150,53c-.3,1-.6,2.1-1,3.1a2.45,2.45,0,0,1-2.1,1.5,10.18,10.18,0,0,1-4.6.1,8.24,8.24,0,0,1-5.1-4.2c-2.8-4.5-4.7-9.4-6.7-14.3-.3-.7-.6-1.3-1-2.1-1.2,2.7-2.2,5.3-3.3,7.7-2.3,5.3-4.7,10.5-7,15.7a5.71,5.71,0,0,1-4.8,3.5c-2.5.4-4.7.4-6.5-1.8s-3.7-4.1-5.6-6.1l-.8-.8c-.5,2-.9,3.8-1.4,5.7-.1.3-.6.6-.9.8-.1.1-.3,0-.5.1-.6.2-1.5.7-1.6.6a7.49,7.49,0,0,1-1.3-2.7,52.25,52.25,0,0,0-2.4-13.1,15.19,15.19,0,0,0-1.8-3.3c-.6-1.1-.5-1.4.7-1.8-.1-1.1.5-1.7,1.6-1.4a9.29,9.29,0,0,1,4.7,3.1,87.2,87.2,0,0,0,11.2,13,29.43,29.43,0,0,1,2.4,2.5c.7-1.5,1.2-2.9,1.8-4.3,2.6-6.1,5.5-12.1,7.8-18.3,1.4-3.8,2-8,3-12,.2-.8.3-1.6.5-2.4.7-3.1,3.2-4,6.1-3.1a3.87,3.87,0,0,1,3,3.8c.7,7.5,3.3,14.4,6.1,21.2.5,1.3,1.1,2.6,1.6,3.8a1.2,1.2,0,0,0,.7.7c.1-.4.1-.7.2-1.1.9-7,2.3-13.9,5.7-20.2a46.23,46.23,0,0,1,3.5-5.5c1.8-2.4,4.2-2.5,6.8-1.9a3.66,3.66,0,0,1,3.1,3.6,71.55,71.55,0,0,0,1.4,9.1c.6,2.7,1.5,5.3,2.4,8.1,1.3-2.4,2.4-4.6,3.6-6.7,4.2-7.1,8.5-14.2,12.8-21.2a7.89,7.89,0,0,1,1.2-1.5c1.8-2.2,3.4-2.7,6.6-1.4,2.3.9,2.3,1.2,2.2,3.6a368.21,368.21,0,0,0-1.2,37.9c.1,5.4.5,10.9,2.4,16,.8,2.1,1.7,4.2,2.7,6.2a14.37,14.37,0,0,0,1.8,2.5C197.63,76,197.53,76,197.43,76.09Z"/><path class="cls-1" d="M253,115.89c-.4.6-.7,1.1-1.1,1.7-3.5,4.6-7,9.1-10.4,13.7-.7.9-1.2,1.8-1.9,2.7-1,1.4-1.8,1.6-3.2.7s-2.8-1.9-4.2-2.8c-.7-.5-.6-1-.3-1.7l2.1-5.1a5,5,0,0,0,.2-1.2c-.1-.1-.2-.1-.3-.2a10.63,10.63,0,0,0-1.1.9c-2.6,3.4-5.2,6.7-7.7,10.1-1.5,2-2.1,2.2-4.1.8-1.2-.8-2.3-1.7-3.6-2.4-.8-.5-.7-1.2-.4-1.9,1.3-3.2,2.7-6.4,4-9.6,4.9-12.1,9.6-24.3,14.6-36.3,4.1-9.9,8.5-19.6,12.7-29.4.6-1.4,1.4-2.7,2-4.1.4-.7.8-1.1,1.6-.6l5.1,2.7c.7.4,1.1,1,.7,1.8-1.2,2.2-1,4.6-1.1,6.9v1c-.1.7-.5.9-1.1.4-1.4-1-1.7-.9-2.4.6-3.5,7.9-7.1,15.8-10.5,23.8-4.4,10.4-8.6,21-12.8,31.4-.4,1-.8,1.9-1.1,2.9a1.21,1.21,0,0,0,.3,1,1.08,1.08,0,0,0,.9-.2c2.4-2.3,4.9-4.5,7.1-7a12.62,12.62,0,0,0,1.6-3.3c6.1-14.9,12.1-29.8,18.3-44.7,2.5-6,5.4-11.8,8.1-17.7.5-1.1,1.1-1.4,2.1-.8,1.5.8,3.1,1.6,4.6,2.5.7.4,1.2,1,.8,1.9-1.1,2.1-1,4.3-1.1,6.6v1.2c-.1.8-.5,1.1-1.2.5-1.3-1-1.6-.9-2.3.7-2.9,6.5-5.9,12.9-8.6,19.5-4.7,11.3-9.4,22.6-14,33.9-.6,1.5-1.1,3-1.6,4.5a5.7,5.7,0,0,0,.1,1.3,2.57,2.57,0,0,0,1.2-.5c2-1.8,3.9-3.7,5.8-5.5a10.38,10.38,0,0,1,1.7-1.2C252.73,115.59,252.83,115.79,253,115.89Z"/><path class="cls-1" d="M179.83,114.49c.4-.4.9-.7,1.1-1.1l9-13.2c1-1.6,2-3.2,2.9-4.9,1-1.9,2-3.9,2.9-5.8.5-1,.9-1.2,1.8-.6,1.1.7,2.2,1.5,3.4,2.3.8.6.7,1.2.4,2-1.9,5.2-3.8,10.4-5.6,15.6-.4,1.2-.6,2.4-.9,3.6a6.53,6.53,0,0,0,0,1.4c.1.1.2.1.3.2a6.89,6.89,0,0,0,1.1-1.3c2-3.7,4.1-7.3,5.9-11,2.2-4.4,4.3-9,6.4-13.5a30.38,30.38,0,0,0,1.2-4,3.85,3.85,0,0,0-1.7-4.5,6.47,6.47,0,0,1-.9-.8c.1-.1.1-.2.2-.3.3.1.6.1.9.2,1.6.7,3.1,1.4,4.7,2.2,3.3,1.6,4.4,3.9,3.3,7.4a95.83,95.83,0,0,1-3.9,9.3c-5.7,11.9-11.6,23.8-17.3,35.7a65,65,0,0,0-2.2,6.2c-.3.9-.7,1.4-1.7,1-1.4-.6-2.7-1.1-4.1-1.7a1.71,1.71,0,0,1-1.1-2c.3-3.8.4-7.6.7-11.4.2-2.3.5-4.6.8-6.9a5.54,5.54,0,0,0-.2-1.8c-.5.4-1.1.6-1.4,1.1-3.3,4.6-6.6,9.3-9.9,13.9-1.6,2.2-3,4.4-4.6,6.6-1.3,1.8-2,2-4,1-1.2-.6-2.5-1.1-3.7-1.7a1.29,1.29,0,0,1-.6-2c3.4-7.6,6.8-15.2,10.2-22.9,2.6-5.8,5.1-11.7,7.6-17.6.9-2.2,1.5-2.4,3.6-1.4,1.1.5,2.2.9,3.3,1.4.7.3,1.1.8.5,1.5-2.6,3-3.8,6.7-5.5,10.1-1,2-1.8,4.1-2.7,6.2a6.11,6.11,0,0,0-.3,1.3C179.63,114.29,179.73,114.39,179.83,114.49Z"/><path class="cls-1" d="M305.33,181.19c-.1,2.4-.1,2.4-2.7,2.8-16.8,2.4-33.4,5.4-49.9,9.2-17.7,4.1-35.2,8.8-52.3,15.2-4.4,1.6-8.7,3.4-13,5.1-.1.1-.3.1-.4.2-1.8.9-2.5.8-3.5-1-.5-.9-.9-1.9-1.4-2.8a1.11,1.11,0,0,1,.7-1.7,420.27,420.27,0,0,1,46.3-15.7c5-1.4,10-3,15.1-4.2,9-2,18.1-3.8,27.1-5.7,3.9-.8,7.7-1.9,11.7-2.5,6.1-1,12.1-1.7,18.2-2.5A3.83,3.83,0,0,1,305.33,181.19Z"/><path class="cls-1" d="M44.23,144.79a19.38,19.38,0,0,1,.7-2.2c4.3-10.9,8.6-21.9,13-32.8.5-1.3,1.2-2.5,1.8-3.8.4-.8.8-1,1.7-.5,1.5.9,3,1.6,4.6,2.4s1.8,1.2.9,2.7c-3.5,5.6-5.7,11.8-8.2,17.8-1.7,4-3.1,8.1-4.6,12.2a5.86,5.86,0,0,0-.1,2.3,3.21,3.21,0,0,1-.1,1.4,28.17,28.17,0,0,1-2.1,3.8,1.42,1.42,0,0,1-1.4.4c-1.7-.7-3.4-1.6-5-2.4A13.1,13.1,0,0,1,44.23,144.79Z"/><path class="cls-1" d="M225.93,96.49c-.4.9-.7,1.5-1,2.1-.8,1.5-1.7,2.9-2.4,4.4-3.3,8-6.5,16-9.8,24.1a4.46,4.46,0,0,0-.3,3.4,1.76,1.76,0,0,1-.2,1.4c-.6,1.2-1.2,2.3-1.9,3.5a1,1,0,0,1-1.5.5c-1.5-.8-3.1-1.5-4.6-2.3s-1.8-1-1.2-2.7c1.8-5,3.6-10,5.5-14.9,2.4-6.1,5-12.2,7.5-18.3.6-1.5,1.4-2.9,2.1-4.3.4-.8.8-1,1.7-.5,1.5.9,3.2,1.6,4.8,2.5A4.49,4.49,0,0,1,225.93,96.49Z"/><path class="cls-1" d="M172.83,65.29c-.1.8-.1,1.3-.2,1.9-1.2.3-2.5.7-3.9,1.1a229.43,229.43,0,0,1-29.8,5.3c-8.3,1-16.6,1.8-24.8,2.6a15.65,15.65,0,0,1-5.3-.2c-1.2-.2-2.2-1.2-3.2-2a1.21,1.21,0,0,1,.1-1,12.79,12.79,0,0,1,7.6-2,45.33,45.33,0,0,0,5.2-.3c14.8-1.6,29.6-3.3,44.4-4.9,1.5-.2,3.1-.5,4.6-.6C169.33,65.09,171,65.29,172.83,65.29Z"/><path class="cls-1" d="M144.43,75.69c0,.5-.2.9-.1,1.2a1,1,0,0,1-.7,1.3c-4,1.7-7.9,3.7-11.9,5.1s-8.1,2.2-12.1,3.4c-2.7.8-5.2-.9-6.5-2.7-.4-.5-.6-1.2.4-1.5.2-.1.4-.2.4-.3.1-.9.8-1,1.4-1.1l24.4-5.7A9.18,9.18,0,0,1,144.43,75.69Z"/><path class="cls-1" d="M230.63,83.79a16.74,16.74,0,0,1-3.8,7.5,1.76,1.76,0,0,1-1.6.2,19.12,19.12,0,0,1-3.2-1.6,2.53,2.53,0,0,1-1.3-3.3,52,52,0,0,1,2.1-5.5c1-1.9,1.9-2.1,3.8-1,.9.5,1.7,1,2.6,1.4A2,2,0,0,1,230.63,83.79Z"/><path class="cls-1" d="M151.83,8.59c-1.1.2-1.9.4-2.7.5-1.2.2-1.3-1.2-2.1-1.7-.1,0-.1-.3,0-.3a5.39,5.39,0,0,1,1.4-1.6c.4-.3,1-.1,1.5-.2.1,0,.1.1.2.1.9.4,1.8.8,2.5,1.2-.1.5-.2.9-.3,1.7a8.52,8.52,0,0,1,2.2-1.6,7.2,7.2,0,0,1,2.4.2,5.44,5.44,0,0,0,.8-.4c.4,1.8-.8,3-1.4,4.2a7,7,0,0,1-4.7,3.8c-.8.2-1.3.1-1.6-.5a3.52,3.52,0,0,1-.3-2c.1-.6.7-1,1.1-1.6A6.61,6.61,0,0,1,151.83,8.59Z"/><path class="cls-1" d="M85.23,28.49c-1,.4-1.9,1-3,.4s-2-1.3-2-2.5c.4-.1.7-.1,1.2-.2a6.89,6.89,0,0,0-.3-.8c1.3-1.1,2.8-.7,5.1,1.2-.6.6-.5,1.1.3,1.4a12.44,12.44,0,0,1,2,1,1.21,1.21,0,0,1,.5.5,4.23,4.23,0,0,1-2.8,5.1,1.27,1.27,0,0,0-.6.1c-.6.4-1.3,1-2,.2s-1.7-1.7-.7-3.1c.4-.5.4-1.3.8-1.8a9.34,9.34,0,0,1,1.5-1.3C85.33,28.69,85.23,28.59,85.23,28.49Z"/><path class="cls-1" d="M128.33,10.49c.1,1.3-.6,1.9-1.6,2.5-.8.5-1.2,1.7-2.1,2.1a16,16,0,0,1-4.2,1.4c-.9.2-2.5-1.3-2.6-2.3a1.45,1.45,0,0,1,.2-.7l2.4-1.8c.4-.3.8-.4,1-.8a2.09,2.09,0,0,1,2.3-.9A38,38,0,0,0,128.33,10.49Z"/><path class="cls-1" d="M184.43,2c-.1,1.8-1.5,2.7-2.8,3.5a7.61,7.61,0,0,1-2.1.8,3.55,3.55,0,0,1-4.3-1.9c-.1-.2-.2-.7-.1-.8a15.67,15.67,0,0,1,2.5-2,26,26,0,0,1,2.5-1,3.07,3.07,0,0,1,2.8-.4C183.93.49,184.73.69,184.43,2Z"/><path class="cls-1" d="M180.73,216.79a10.19,10.19,0,0,1-1.5-.8c-1-1.1-2-2.2-3-3.4-.5-.7-.3-1.2.3-1.8,1.7-1.3,2.7-1.2,3.8.6a25.43,25.43,0,0,1,1.6,2.8c.2.5.4,1.2.2,1.5C181.93,216.19,181.23,216.39,180.73,216.79Z"/><path class="cls-1" d="M175.33,218.79a3.65,3.65,0,0,1-1.4-.7,28.34,28.34,0,0,1-2.4-2.5c-.4-.5-.9-1.2-.2-1.8s1.7-1.3,2.5-.5a29.45,29.45,0,0,1,3.6,4.2C177.83,218,176.93,218.79,175.33,218.79Z"/><path class="cls-1" d="M52.73,177.89a3.74,3.74,0,0,1-1-.6,22,22,0,0,1-2-2.3c-.5-.7-.8-1.4.2-2,1.1-.8,2-.8,2.6.2s1.2,2,1.7,3C54.53,177.09,54,177.89,52.73,177.89Z"/><path class="cls-1" d="M48.43,179.59a3.35,3.35,0,0,1-1.3-.7,9.09,9.09,0,0,1-1.8-2.1c-.3-.4-.3-1.4-.1-1.5.6-.3,1.6-.6,1.9-.4a18.09,18.09,0,0,1,2.8,3.4C50.33,179,49.63,179.59,48.43,179.59Z"/></g></g></g></svg>