<?xml version="1.0" encoding="utf-8"?>
<!-- Generator: Adobe Illustrator 23.1.1, SVG Export Plug-In . SVG Version: 6.00 Build 0)  -->
<svg version="1.1" id="Layer_1" xmlns="http://www.w3.org/2000/svg" xmlns:xlink="http://www.w3.org/1999/xlink" x="0px" y="0px"
	 viewBox="0 0 376.6 52.9" style="enable-background:new 0 0 376.6 52.9;" xml:space="preserve">
<style type="text/css">
	.st0{fill:#11FA78;}
	.st1{fill:#FFFFFF;}
	.st2{fill:#E0E0E0;}
	.st3{fill:#12D862;}
</style>
<g>
	<g>
		<g>
			<path class="st0" d="M348.4,12.8c-0.2-0.3-0.6-0.8-1.9-0.4c-0.4-0.4-1.1-0.5-2.1,0c-0.7,0.4-1.8,0.6-2.2,0.6v-0.6h0.4
				c0.2,0,0.4-0.2,0.4-0.4s-0.1-0.4-0.4-0.4h-0.4v-0.3c0-0.2-0.2-0.4-0.4-0.4c-0.2,0-0.3,0.2-0.3,0.4v0.3h-0.4
				c-0.2,0-0.4,0.2-0.4,0.4s0.2,0.4,0.4,0.4h0.4V13c-0.5-0.1-1.5-0.3-2.3-0.6c-0.9-0.5-1.6-0.4-2.1,0c-1.2-0.4-1.7,0.1-1.8,0.4
				c-0.4,0.6-0.1,1.5,0.5,2.2c1.3,1.3,1.5,2.5,1.5,2.5c0,0.2,0.2,0.3,0.4,0.3l0,0h8.2l0,0h0.1h0.1l0,0l0,0l0.1-0.1v-0.1l0,0
				c0,0,0.3-1.2,1.5-2.5C348.6,14.3,348.8,13.3,348.4,12.8 M338,17c-0.2-0.5-0.6-1.5-1.6-2.6c-0.4-0.4-0.5-1-0.4-1.2
				s0.4-0.2,0.8-0.1c-0.2,0.6,0,1.2,0.5,1.7c1,1.1,1.2,1.9,1.2,2.2H338z M337.8,14.2c-0.4-0.4-0.4-0.9-0.2-1.1
				c0.2-0.3,0.8-0.3,1.4,0c0.9,0.5,2.1,0.7,2.6,0.7v0.8c-0.3,0.1-0.5,0.3-0.6,0.6h-2.3C338.4,14.9,338.2,14.5,337.8,14.2z M341.6,17
				h-2.3c0-0.2-0.1-0.5-0.2-1h1.9c0.1,0.4,0.3,0.6,0.7,0.8V17H341.6z M341.3,15.7c0-0.4,0.3-0.7,0.6-0.7c0.3,0,0.6,0.3,0.6,0.7
				s-0.3,0.7-0.6,0.7C341.6,16.3,341.3,16,341.3,15.7z M344.6,17h-2.3v-0.2c0.3-0.1,0.6-0.4,0.7-0.8h1.9
				C344.7,16.4,344.6,16.8,344.6,17z M342.9,15.2c-0.1-0.3-0.3-0.5-0.6-0.6v-0.8c0.5-0.1,1.7-0.3,2.5-0.7c0.6-0.3,1.2-0.3,1.4,0
				c0.2,0.3,0.1,0.7-0.2,1.1c-0.3,0.3-0.6,0.7-0.8,1H342.9z M347.4,14.4c-1,1.1-1.5,2.1-1.6,2.6h-0.4c0-0.3,0.2-1.2,1.2-2.2
				c0.5-0.5,0.6-1.2,0.5-1.7c0.4-0.1,0.7-0.1,0.8,0.1C348,13.4,347.8,13.9,347.4,14.4z M346.3,18.6c0,0.2-0.2,0.4-0.3,0.4h-8.1
				c-0.2,0-0.3-0.2-0.3-0.4c0-0.2,0.2-0.4,0.3-0.4h8.1C346.1,18.2,346.3,18.3,346.3,18.6z M346.3,20.7c0,0.2-0.2,0.4-0.3,0.4h-8.1
				c-0.2,0-0.3-0.2-0.3-0.4c0-0.2,0.2-0.4,0.3-0.4h8.1C346.1,20.3,346.3,20.5,346.3,20.7z M338.7,19.7c0,0.2-0.2,0.4-0.4,0.4
				c-0.2,0-0.4-0.2-0.4-0.4c0-0.2,0.2-0.4,0.4-0.4C338.6,19.3,338.7,19.4,338.7,19.7z M340.2,19.7c0,0.2-0.2,0.4-0.4,0.4
				c-0.2,0-0.4-0.2-0.4-0.4c0-0.2,0.1-0.4,0.4-0.4C340,19.3,340.2,19.4,340.2,19.7z M341.6,19.7c0,0.2-0.2,0.4-0.4,0.4
				c-0.2,0-0.4-0.2-0.4-0.4c0-0.2,0.1-0.4,0.4-0.4C341.4,19.3,341.6,19.4,341.6,19.7z M343,19.7c0,0.2-0.2,0.4-0.4,0.4
				s-0.4-0.2-0.4-0.4c0-0.2,0.2-0.4,0.4-0.4S343,19.4,343,19.7z M344.4,19.7c0,0.2-0.2,0.4-0.4,0.4c-0.2,0-0.4-0.2-0.4-0.4
				c0-0.2,0.2-0.4,0.4-0.4C344.2,19.3,344.4,19.4,344.4,19.7z M345.5,19.3c-0.2,0-0.4,0.2-0.4,0.4c0,0.2,0.2,0.4,0.4,0.4
				c0.2,0,0.3-0.2,0.3-0.4C345.8,19.4,345.7,19.3,345.5,19.3z"/>
			<path class="st0" d="M338.3,10.8c0.1,0.2,0,0.5-0.2,0.6c-0.3,0.1-0.5,0-0.6-0.3c-0.1-0.2,0-0.5,0.3-0.6
				C338,10.5,338.3,10.6,338.3,10.8"/>
			<path class="st0" d="M340.3,10.1c0.1,0.2,0,0.5-0.3,0.6c-0.2,0.1-0.5,0-0.6-0.3c-0.1-0.2,0-0.5,0.3-0.6
				C340,9.7,340.2,9.8,340.3,10.1"/>
			<path class="st0" d="M342.2,9.4c0.1,0.2,0,0.5-0.3,0.6c-0.2,0.1-0.5,0-0.6-0.3c-0.1-0.2,0-0.5,0.3-0.6
				C341.9,9,342.2,9.1,342.2,9.4"/>
			<path class="st0" d="M345.3,10.8c-0.1,0.2,0,0.5,0.3,0.6c0.2,0.1,0.5,0,0.6-0.3c0.1-0.2-0.1-0.5-0.3-0.6
				C345.6,10.5,345.4,10.6,345.3,10.8"/>
			<path class="st0" d="M343.4,10.1c-0.1,0.2,0,0.5,0.3,0.6c0.2,0.1,0.4,0,0.5-0.3c0.1-0.2,0-0.5-0.2-0.6
				C343.7,9.7,343.4,9.8,343.4,10.1"/>
			<path class="st0" d="M374.4,26.1c-0.6-0.3-0.2-2.1-1.8-2.2c0,0,1.5,0.1,2.2-1.1c0,0,0.4-0.9-0.3-1.6c0,0,0.3,0.6,0,1.1
				c-0.2,0.3-0.7,0.5-1.4,0.4c-0.8-0.1-0.8-0.1-1.6-0.1c-0.8,0.1-1.1,0.5-1.3,0.8c-0.6,0-1.3,0.1-1.8,0.7s-1.9,2-0.4,4
				c0.3,0.4,0.8,1,1.4,1.5l0.1,0.1c-0.2,0.8-0.2,1-0.1,1.1c-0.3-0.3-1.4-1.3-2.3-0.5c-1,1,0,3.4,0,3.4c-0.1-2.1,0.4-2.4,0.9-2.2
				c0.6,0.2,1.9,2.2,3.2,2.1c0.6,0,0.8-0.2,1-0.3c0.2,0.7,0.2,1.7-0.5,2.1c-0.9,0.7-3.8,1.1-5.6-0.5c-0.4-0.4-1-1.3-1.2-2.1
				c-0.3-0.8-0.1-1.6,0-2.4c0.1-0.7,0-1.3-0.1-1.8c-0.2-0.6-0.1-0.8-0.1-0.8c0.1-0.1,1.3,1,1.3,1c-0.7-2.9,0.3-2.7,0.8-3.7
				c0.3-0.6,0.1-1.5,0-1.9s-0.3-1-0.3-1s0.3,0.4,0.5,0.5c0.6,0.4,0.4,1.1,0.4,1.1c0.4-0.4,0.2-1.2,0.1-1.6c-0.1-0.2,0-0.5,0-0.5
				c0.1,0.3,0.5,0.4,0.5,0.4c-0.1-0.1-0.2-0.2-0.3-0.5c-0.2-0.7,0.2-0.7,0.3-1.1c0.1-0.4-0.5-1.4-0.3-1.4s0.7-0.2,0.7-0.2
				c-0.5-0.1-0.4-0.3-0.4-1c0-1-0.5-1.4-0.9-1.6c0.6-0.1,0.6-0.6,0.6-0.6c0-0.2-0.2-0.7-0.2-0.7c0,0.6-0.4,0.5-0.8,0.5
				c-0.5,0-0.8-0.2-1.1-0.2c-0.4,0-0.4-0.3-0.8-0.4H364c-0.7-0.1-1.1,0.1-1.5,0.5s-1.7,0.3-1.9,0.5c-0.2,0.2-0.1,0.4-0.1,0.4
				c0.1,0.1-0.7,0.7-0.8,1c-0.1,0.3-0.5,0.3-0.4,0.6c0.1,0.2,0.2,0.2,0.2,0.3c0,0.1-0.4,0.9,0.1,1.2c0.1,0,0.1,0.1,0.2,0.1
				c0.1,0.3,0.5,0.5,0.5,0.5c-0.1-0.2-0.1-0.3-0.1-0.5c0.5,0,1.2-0.2,1.5-0.2c0.1,0,0.3,0.2,0.4,0.3c-0.4,0-0.7,0.1-1.3,0.4
				l-0.6,0.3c-0.3,0.1-0.5,0.2-0.8,0.2c-1.2,0.2-1.3-0.8-1.5-1.1c-0.3-0.3-0.5-0.2-0.5-0.2s-0.2,0.2-0.1,0.5c0,0.2,0.3,0.6,0.7,0.9
				h0.1c0.1,0.1,0.3,0.2,0.5,0.2c0.3,0.1,0.6,0.1,1-0.1c0.2-0.1,0.5-0.1,0.7-0.2l0.6-0.3c0.6-0.3,0.8-0.4,1.3-0.4
				c0,0.3-0.6,0.5-0.9,0.6c-0.7,0.1-0.8,0.4-0.6,0.6c0.2,0.2-0.7,0.8,0.2,1.3c0,0-0.3-0.4,0-0.5s1.3-0.3,1.3-0.3
				c0,0.8-0.7,1-1.3,1.2c-0.6,0.2-0.7,0.3-1.7,1.1c-0.8,0.6-1.8,0.2-2.2-0.2c-0.3-0.3-0.6-1-0.6-1c0,1.1,0.6,2,0.6,2l-4.3-1.5
				c0,0,0,0-0.1,0V23l-0.3,0.2c-0.1-0.1-0.3-0.2-0.4-0.3c-0.2-0.2-0.5-0.1-0.6-0.1s-0.1-0.1-0.3-0.2c-0.1-0.1-0.5,0.1-0.7,0.1
				c-0.1,0-0.1-0.1-0.4-0.1c-0.2,0-0.9,0.1-1,0.2s-0.3,0.2-0.6,0.5c-0.3,0.3-0.4,0.4-0.2,0.7c-0.1,0.2,0.1,0.6,0.1,0.7
				c-1.9,0.2-4.2-0.1-6.1-2.2l-0.4-0.4l-0.4,0.4c-1.9,2.1-4.2,2.5-6.1,2.2c0-0.1,0.2-0.4,0.1-0.7c0.2-0.2,0.1-0.3-0.2-0.7
				c-0.3-0.4-0.5-0.4-0.6-0.5s-0.8-0.2-1-0.2s-0.2,0.1-0.3,0.1c-0.1,0-0.5-0.2-0.7-0.1c-0.1,0.1-0.2,0.2-0.3,0.2
				c-0.1,0-0.4-0.2-0.6,0.1c-0.1,0.1-0.2,0.2-0.4,0.3l-0.3-0.2v0.3c-0.1,0-0.1,0-0.1,0l-4.3,1.5c0,0,0.6-0.9,0.6-2
				c0,0-0.3,0.7-0.6,1c-0.4,0.4-1.4,0.8-2.2,0.2c-1-0.8-1.1-0.9-1.8-1.1c-0.6-0.2-1.3-0.4-1.3-1.2c0,0,1,0.2,1.3,0.3
				c0.3,0.1,0,0.5,0,0.5c0.9-0.5,0.1-1.1,0.3-1.3c0.2-0.2,0.1-0.5-0.6-0.6c-0.4-0.1-0.9-0.4-0.9-0.6c0.5,0,0.7,0.1,1.3,0.4l0.6,0.3
				c0.2,0.1,0.5,0.2,0.7,0.2c0.4,0.1,0.7,0.1,1,0.1c0.2,0,0.4-0.1,0.5-0.2h0.1c0.5-0.3,0.7-0.7,0.7-0.9c0.1-0.4-0.1-0.5-0.1-0.5
				s-0.3-0.2-0.6,0.2c-0.2,0.3-0.3,1.3-1.5,1.1c-0.2,0-0.5-0.1-0.7-0.2l-0.6-0.3c-0.6-0.2-0.8-0.4-1.2-0.4c0.1-0.2,0.3-0.3,0.4-0.3
				c0.3,0,0.9,0.1,1.5,0.2c0,0.1,0,0.3-0.1,0.5c0,0,0.5-0.2,0.5-0.5c0.1,0,0.2,0,0.3-0.1c0.5-0.3,0.1-1.1,0.1-1.2
				c0,0,0.1-0.1,0.2-0.3c0.1-0.3-0.3-0.3-0.4-0.6c-0.1-0.3-0.9-0.9-0.8-1s0.1-0.3-0.1-0.4c-0.2-0.2-1.5-0.1-1.9-0.5
				s-0.8-0.6-1.5-0.5h-0.8c-0.4,0.1-0.4,0.4-0.8,0.4c-0.3,0-0.5,0.2-1,0.2c-0.4,0-0.8,0.1-0.8-0.5c0,0-0.2,0.5-0.2,0.7
				c0,0-0.1,0.5,0.6,0.6c-0.4,0.3-0.9,0.7-0.9,1.6c0,0.7,0.1,1-0.4,1c0,0,0.4,0.2,0.7,0.2c0.2,0-0.3,1-0.3,1.4
				c0.1,0.4,0.4,0.4,0.2,1.1c-0.1,0.3-0.2,0.4-0.3,0.5c0,0,0.4-0.1,0.5-0.4c0,0,0.1,0.3,0,0.5c-0.2,0.4-0.3,1.2,0,1.6
				c0,0-0.1-0.7,0.5-1.1c0.1-0.1,0.5-0.5,0.5-0.5s-0.2,0.6-0.3,1c-0.1,0.4-0.3,1.3,0,1.9c0.5,1.1,1.5,0.9,0.8,3.7c0,0,1.1-1.1,1.3-1
				c0,0,0.1,0.2-0.1,0.8c-0.2,0.5-0.2,1.2-0.1,1.8c0.1,0.8,0.3,1.6,0,2.4c-0.2,0.8-0.8,1.6-1.2,2.1c-1.9,1.6-4.7,1.1-5.6,0.5
				c-0.7-0.5-0.6-1.5-0.5-2.1c0.2,0.2,0.5,0.3,1,0.3c1.3,0.1,2.5-1.9,3.2-2.1c0.5-0.1,1,0.1,0.9,2.2c0,0,1-2.5,0-3.4
				c-0.9-0.8-2,0.1-2.3,0.5c0-0.1,0-0.4-0.1-1.1l0.1-0.1c0.5-0.5,1-1.1,1.4-1.5c1.5-2,0.1-3.5-0.4-4c-0.6-0.6-1.2-0.8-1.8-0.7
				c-0.2-0.3-0.5-0.7-1.3-0.8c-0.8,0-0.8,0-1.5,0.1c-0.8,0.1-1.3-0.1-1.5-0.4c-0.3-0.5,0-1.1,0-1.1c-0.7,0.7-0.3,1.6-0.3,1.6
				c0.7,1.2,2.1,1.1,2.1,1.1c-1.6,0.1-1.2,1.9-1.8,2.2c-0.6,0.3-1.4-0.6-1.4-0.6c0.7,1.6,1.5,1.8,2.6,1.5c0.8-0.2,1.3-1.4,1.5-1.2
				c0.2,0.2,0,0.9-0.5,1.4c-0.3,0.4-0.1,1-0.1,1s0.1-0.9,1.3-1.2c0.8-0.2,1.1-0.5,1.2-0.9c0.1-0.3,0.1-0.6-0.1-1.4
				c-0.1-0.8,0.4-0.6,0.9-0.3c0.1,0.1,0.2,0.2,0.3,0.3c0.9,1,1.3,1.9,0.3,3.2c-0.3,0.4-0.7,0.9-1.2,1.3c-0.3-1.9,1.3-1.9,1.3-1.9
				s-2.1-0.7-2.5,1.3c-0.1,0.6-0.1,1.3,0,1.9c-0.8,0.9-1.6,1.8-1.8,2.7c-0.3,0.9-0.5,1.9,0.3,2.8c0.7,0.7,2.6,1.5,5,1
				c-0.1,0.3-0.2,0.7-0.3,1.2c0,0,0,0.1-0.1,0.3c-0.1,0.1-0.1,0.3-0.3,0.4c0,0-0.4,0.2-0.6,0.3s-0.4,0-0.4-0.2c0,0-0.3,0.6,0.7,0.5
				c0,0-0.4,0.7-0.5,0.7s-0.6,0.1-0.7,0.4c0,0.2-0.1,0.2-0.1,0.3c0,0,0,0,0,0.1c0,0.2-0.2,0.5-0.5,0.3c-0.3-0.1-0.5-0.4-0.4-0.8
				c0.1-0.4,0-0.5-0.2-0.7c0,0,0.2,0.4,0,0.6c0,0-0.3,0.4-0.3,0.7s0.3,0.8,0.4,0.9c0.1,0.1-0.5-0.3-1-0.1c-0.5,0.1-0.9,0.5-1.3,1.2
				c-0.3,0.4-0.7,0.4-0.9,0.3c-0.2-0.2,0.5,0.9,1.2,0.3c0.7-0.6,1.1-0.5,1.1-0.3c0,0-1.1,0.8-1.1,1.5c0,0.6-0.2,0.9-0.6,0.9
				c0,0,0.7,0.4,1.2-0.7c0,0-0.3,0.8-0.2,1.5c0,0.6-0.8,0.8-0.8,0.8s0.8,0.2,1.2-0.2c0,0,0.2,0.3,0,0.5c-0.1,0.1-0.5,0.3-0.7,0.6
				v0.1l0,0c-0.3,0.2-0.1,0.8-0.1,0.8c0.1-0.2,0.3-0.3,0.4-0.4c0.1,0.3,0.6-0.1,1.1,0c0.5,0,0.9,1.2,1,1.3c0.1,0,0.1,0,0.3,0
				c0.1,0.1,0.2,0.3,0.2,0.6c0,0,0.3-0.5,0.2-0.8h0.1c0.1,0,0.1-0.1,0.1-0.3s0.5,0,0.5,0s0.2,0,0.2-0.2c0.1,0,0.3,0.1,0.5,0.3
				c0,0,0-0.6-0.3-0.8h-0.1V49c-0.1-0.1,0.4,0,0.4-0.1v-0.2c0.1,0,0.3-0.1,0.5-0.1c0,0-0.3-0.4-0.6-0.4v-0.1
				c-0.1-0.1-0.6,0.1-0.8,0.1c-0.3,0-0.5,0.1-0.7-0.4c-0.2-0.4,0.1-2.4,0.7-2.9c0.7-0.6,1.9-1,1.9-1l1.2-0.4c0,0-1.2,1.7,1,3
				c0,0-0.8-1.2,0.2-2.2c0.8-0.9,0.7-1.6,0.7-2.1s0.2-0.9,0.4-1.4c0.2-0.5,0.4-1.9,0.4-2.3v-0.4c0,0,1,0.2,1.4,0.8
				c0.2,0.3,0.1,0.9,0.1,1.2s-0.2,0.8-0.5,1c-0.2,0.2-0.5,0.7-0.4,1.1c0.1,0.6-0.4,0.9-0.5,0.9c-0.2,0,0.2,0.1,1.1-0.1
				c0.9-0.2,0.8-0.4,1.4-0.6l0.6,0.3c0,0,0.5,0.2,0.3,0.4s-0.8,0.7-1.1,0.7c0,0,0.5,0.3,2.1,0c0,0-0.1,0.3,0,0.5
				c0.1,0.1,0.5,0.2,0.6,0.4c0.2,0.2,0.2,0.3,0.4,0.2l0.1-0.1c0.1,0.1,0.2,0.3,0.3,0.5c0,0,0.3-0.6,0.1-0.8l-0.1-0.1
				c0.1-0.1,0.2-0.1,0.2-0.1s0.2,0.2,0.4,0.2c0.2,0,0.7,0.5,0.9,0.6c0.1,0.1,0.2,0,0.3,0c0.1,0.1,0.2,0.2,0.3,0.5
				c0,0,0.3-0.5,0.1-0.8l0,0c0.1-0.1,0.2-0.2,0.2-0.2c0-0.2-0.2-0.3-0.2-0.3s0.2-0.1,0.3-0.1l0.1-0.1c0.1,0,0.4-0.1,0.6,0
				c0,0-0.2-0.5-0.5-0.6l-0.1-0.2c-0.1-0.3-0.2-0.4-0.2-0.4s0-0.1,0-0.2c0.1-0.1,0.3-0.1,0.4-0.2c0,0-0.5-0.4-0.7-0.2l0,0
				c-0.2,0-0.4,0-0.5,0.1c-0.2,0.2-0.5,0.6-1,0.5c-0.5-0.2-1.5-0.8-1.6-1.6c0-0.7,0.1-1.1,0.2-1.5c0-0.1,0.3-0.7,0.6-0.7
				c0.4,0,0,0.7,0,0.7c0.7-0.3,0.6-1.3,0.6-1.3c0-0.7-0.2-0.8-0.8-1.3c-0.8-0.6-1.4-0.6-1.4-0.7c0-0.2-0.3-0.3-0.6-0.3
				c-0.6-0.1-0.9-0.1-2-0.1c-0.8,0-0.8-0.4-0.8-0.4s0.7-0.6,1.1-0.8c0.4-0.1,1.4-0.4,1.7-0.7c0.3-0.3,0.8-1.7,0.8-1.7
				s0.7-0.1,0.5,0.6c-0.1,0.6-0.7,0.8-0.7,0.8s1.1-0.1,1.2-0.6c0,0,1.2,1.1,0.5,1.7c0,0,0.6-0.1,0.7-0.5c0,0,0.1-0.3,0.2-0.2
				s0.5,0.5,0.4,0.8l-0.3,0.3c0,0,0.5-0.1,0.6-0.2l-0.1,0.4c0,0.1,0.3,0.6,0.3,0.8s0,0.5,0.1,0.3h0.1c0.1,0.1,0.1,0.3,0.1,0.6
				c0,0,0.4-0.3,0.4-0.6l0.1-0.1c0.2-0.2,0.3-0.3,0.6-0.3c0.2,0,0.9,0.9,1,0.9c0.1,0.1,0.1,0.3,0.2,0.3h0.1c0.1,0.1,0.1,0.2,0.2,0.3
				c0,5.1,0.7,8.8,7.9,12l1,0.4c0.6,0.2,1.2,0.5,1.5,0.7l0.3,0.2l0.3-0.2c0.3-0.2,0.9-0.4,1.5-0.7l1-0.4c7.7-3.5,7.9-7.4,7.9-12
				c0-0.2,0.1-0.3,0.2-0.3s0.1,0,0.1,0c0.1,0,0.1-0.2,0.2-0.3s0.8-0.9,1-0.9s0.4,0.1,0.6,0.3l0.1,0.1c0,0.3,0.4,0.6,0.4,0.6
				c0-0.3,0-0.5,0.1-0.6h0.1c0.1,0.1,0.1-0.2,0.1-0.3c0-0.2,0.3-0.7,0.3-0.8s-0.1-0.4-0.1-0.4c0.1,0.1,0.6,0.2,0.6,0.2l-0.3-0.4
				c-0.1-0.3,0.3-0.7,0.4-0.8s0.2,0.2,0.2,0.2c0.1,0.4,0.7,0.5,0.7,0.5c-0.7-0.6,0.5-1.7,0.5-1.7c0.2,0.5,1.2,0.6,1.2,0.6
				s-0.6-0.2-0.7-0.8c-0.2-0.6,0.5-0.6,0.5-0.6s0.5,1.3,0.8,1.7s1.4,0.6,1.7,0.7c0.4,0.1,1.1,0.8,1.1,0.8s-0.1,0.4-0.8,0.4
				c-1.1,0-1.4,0-2,0.1c-0.4,0.1-0.6,0.2-0.6,0.3c0,0.2-0.6,0.1-1.4,0.7c-0.6,0.4-0.8,0.5-0.8,1.3c0,0-0.1,1,0.6,1.3
				c0,0-0.3-0.7,0-0.7c0.4,0,0.6,0.6,0.6,0.7c0.1,0.4,0.2,0.8,0.2,1.5c-0.1,0.8-1.1,1.4-1.6,1.6c-0.5,0.2-0.8-0.2-1-0.5
				c-0.1-0.1-0.3-0.1-0.5-0.1c-0.3-0.2-0.8,0.2-0.8,0.2c0.2,0,0.3,0.1,0.4,0.2c0,0.1,0,0.2,0,0.2s-0.1,0.1-0.2,0.4v0.2
				c-0.3,0-0.5,0.6-0.5,0.6c0.2-0.1,0.5,0,0.6,0l0.1,0.1c0.1,0.1,0.3,0.1,0.3,0.1s-0.2,0.2-0.2,0.3s0.1,0.2,0.2,0.2l0,0
				c-0.2,0.3,0.1,0.8,0.1,0.8c0.1-0.3,0.2-0.5,0.3-0.5c0.1,0.1,0.2,0.1,0.3,0c0.1-0.1,0.6-0.6,0.8-0.6c0.2,0,0.4-0.2,0.4-0.2
				l0.1,0.1l-0.1,0.1c-0.2,0.2,0.1,0.8,0.1,0.8c0.1-0.2,0.2-0.4,0.3-0.5l0.1,0.1c0.2,0.2,0.2,0,0.4-0.2c0.1-0.2,0.5-0.2,0.6-0.4
				c0.1-0.1,0-0.5,0-0.5c1.6,0.2,2.1,0,2.1,0c-0.2,0-0.9-0.5-1.1-0.7s0.3-0.4,0.3-0.4l0.6-0.3c0.5,0.2,0.4,0.4,1.3,0.6
				c0.9,0.2,1.3,0.1,1.1,0.1c-0.1,0-0.7-0.3-0.6-0.9c0.1-0.4-0.2-0.9-0.4-1.1c-0.2-0.2-0.5-0.7-0.5-1s-0.1-0.9,0.1-1.2
				c0.4-0.6,1.5-0.8,1.5-0.8v0.4c0,0.4,0.2,1.8,0.4,2.3c0.2,0.5,0.4,0.8,0.4,1.4c0,0.5-0.1,1.2,0.8,2.1c1,1,0.1,2.2,0.1,2.2
				c2.2-1.3,1-3,1-3l1.2,0.4c0,0,1.1,0.5,1.8,1c0.7,0.5,0.9,2.5,0.7,2.9c-0.2,0.5-0.4,0.4-0.7,0.4c-0.2,0-0.7-0.2-0.8-0.1v0.1
				c-0.3,0-0.5,0.4-0.5,0.4c0.2,0,0.4,0,0.5,0.1v0.2c0,0.2,0.4,0.1,0.4,0.1V49h-0.1c-0.3,0.1-0.3,0.8-0.3,0.8
				c0.2-0.2,0.3-0.3,0.5-0.3c0,0.2,0.3,0.2,0.3,0.2s0.5-0.2,0.5,0s0,0.3,0.1,0.3h0.1c-0.1,0.3,0.2,0.8,0.2,0.8
				c0.1-0.3,0.2-0.5,0.3-0.6c0.1,0,0.2,0,0.3,0c0.1-0.1,0.6-1.3,1.1-1.3s1,0.4,1.1,0c0.1,0.1,0.3,0.2,0.4,0.4c0,0,0.1-0.6-0.1-0.8
				h-0.1l0.1-0.1c-0.2-0.4-0.6-0.5-0.7-0.6s0-0.5,0-0.5c0.4,0.4,1.2,0.2,1.2,0.2s-0.9-0.2-0.8-0.8s-0.2-1.5-0.2-1.5
				c0.5,1,1.2,0.7,1.2,0.7c-0.4,0-0.6-0.3-0.6-0.9c0-0.6-1.1-1.5-1.1-1.5c0-0.1,0.5-0.2,1.1,0.3c0.7,0.6,1.3-0.5,1.2-0.3
				c-0.1,0.2-0.6,0.2-0.9-0.3c-0.4-0.7-0.8-1.1-1.2-1.2c-0.5-0.1-1.2,0.3-1,0.1c0.1-0.1,0.4-0.7,0.4-0.9c0-0.3-0.3-0.7-0.3-0.7
				c-0.2-0.2,0.1-0.6,0.1-0.6c-0.2,0.2-0.3,0.3-0.2,0.7c0.1,0.4-0.1,0.7-0.3,0.8c-0.3,0.2-0.5-0.1-0.5-0.3c0-0.3,0.1,0.2-0.1-0.4
				c-0.1-0.4-0.5-0.4-0.7-0.4s-0.5-0.7-0.5-0.7c0.9,0.1,0.7-0.5,0.7-0.5c0,0.2-0.2,0.2-0.4,0.2c-0.2-0.1-0.6-0.3-0.6-0.3
				c-0.1-0.2-0.2-0.3-0.3-0.4c-0.1-0.2-0.1-0.3-0.1-0.3c-0.1-0.5-0.2-0.9-0.3-1.2c2.3,0.5,4.3-0.3,4.9-1c0.8-0.9,0.6-1.9,0.3-2.8
				c-0.3-0.9-1-1.8-1.8-2.7c0-0.6,0.1-1.3,0-1.9c-0.4-2-2.5-1.3-2.5-1.3s1.7,0,1.3,1.9c-0.5-0.5-0.9-1-1.2-1.3
				c-1-1.3-0.6-2.2,0.4-3.2c0.1-0.1,0.2-0.2,0.3-0.3c0.5-0.3,1-0.4,0.9,0.3c-0.1,0.7-0.1,1.1-0.1,1.4c0.1,0.4,0.4,0.7,1.2,0.9
				c1.2,0.3,1.2,1.2,1.2,1.2s0.2-0.6-0.1-1c-0.5-0.5-0.7-1.2-0.5-1.4c0.2-0.2,0.6,1,1.5,1.2c1.1,0.3,1.8,0.1,2.6-1.5
				C375.9,25.5,375,26.4,374.4,26.1 M313.1,31.1c0.1,0.7,0.1,1.2-0.1,1.4c-0.4,0.5-0.9,0.5-1.1,0.5
				C312.1,32.4,312.5,31.8,313.1,31.1z M331.2,34.8C331.2,34.8,331.1,34.8,331.2,34.8c-0.3,0-0.9-0.1-1.3-0.7
				c-0.4-0.6-1.3-2-1.7-3.2c-0.4-1.2-0.3-1.3-0.4-1.6c-0.1-0.3,0.1-0.7,0.3,0.1c0,0,0.2-0.9-0.4-1.6c0,0,0-0.1,0.3-0.3
				c0.3-0.2,0.4-0.2,0.4-0.2c0.3,0.4,0.2,1.1,1,1.3c0,0-0.7-0.9,0.2-1.5c0.9-0.6,1.1-1.2,1,0c0,0,0.2-0.1,0.4-0.7
				c0.1-0.3,0.1-0.7,0.3-1.1L331.2,34.8L331.2,34.8z M332.9,42.6c-0.6-1.7-0.6-3.4-0.6-5.3c0,0,0-0.4,0-1c0.1,0,0.3,0,0.5,0.1
				c0,0-0.2-0.5-0.5-0.6c0-0.1,0-0.2,0-0.3v-0.3c0.1,0,0.1,0,0.2,0c0,0-0.1-0.2-0.2-0.3v-10c0.2,0.1,0.4,0.2,0.6,0.2V42.6z
				 M334.1,44.8c-0.3-0.3-0.5-0.7-0.7-1V25.3c0.2,0.1,0.5,0.1,0.7,0.2V44.8z M335.4,29.4L335.4,29.4v0.2l0,0v12.6l0,0v0.1l0,0v3.8
				c-0.3-0.2-0.5-0.4-0.7-0.7V25.6c0.2,0,0.5,0.1,0.7,0.1V29.4z M334.3,24.4c0-0.1,0-0.2,0-0.2c0.1,0,0.2-0.1,0.3,0.1
				c0.1,0.1,0.3,0.1,0.5,0c0.1,0.1,0.2,0.3,0.3,0.4C335,24.6,334.7,24.5,334.3,24.4z M336.6,47c-0.2-0.2-0.5-0.3-0.7-0.5v-4.3h0.7
				V47z M336.6,41.3c-0.1,0.1-0.1,0.3-0.2,0.4c-0.1,0.2-0.3,0.3-0.5,0.3V29.6c0.2,0,0.3,0.1,0.4,0.2s0.2,0.2,0.3,0.4L336.6,41.3
				L336.6,41.3z M336.6,29.4h-0.7v-3.6c0.2,0,0.5,0,0.7,0V29.4z M337.8,47.7c-0.2-0.1-0.5-0.3-0.7-0.4v-5.1h0.7V47.7z M337.8,29.4
				h-0.7v-3.6c0.2,0,0.5,0,0.7-0.1V29.4z M339.1,48.4c-0.2-0.1-0.5-0.2-0.7-0.3v-5.8h0.7V48.4z M339.1,42.1c-0.3,0-0.5-0.2-0.7-0.4
				l0,0V36h0.7V42.1z M338.4,29.8h0.7v5.8h-0.7V29.8z M339.1,29.4h-0.7v-3.8c0.2-0.1,0.5-0.1,0.7-0.2V29.4z M340.4,48.9l-0.7-0.3V36
				h0.2c0.2,0,0.3,0,0.5,0V48.9z M340.4,35.6c-0.2,0-0.4,0-0.5,0h-0.2v-5.8h0.7V35.6z M340.4,29.4h-0.7v-4.3
				c0.3-0.1,0.5-0.2,0.7-0.4V29.4z M341.6,49.5c-0.2-0.1-0.4-0.2-0.7-0.3v-13c0.2,0.1,0.4,0.1,0.5,0.2c0.1,0.1,0.2,0.3,0.2,0.4V49.5
				z M341.6,34.8c-0.1,0.2-0.2,0.3-0.3,0.5c-0.1,0.1-0.2,0.2-0.4,0.2v-5.7l0,0c0.3,0,0.5,0.1,0.7,0.3L341.6,34.8L341.6,34.8z
				 M341.6,29.4h-0.7v-5c0.2-0.2,0.5-0.4,0.7-0.6V29.4z M342.9,49.2c-0.3,0.1-0.5,0.2-0.7,0.3V30.9l0.7,2V49.2z M342.9,29.4h-0.7
				v-5.6c0.2,0.2,0.5,0.4,0.7,0.6V29.4z M344.1,48.6l-0.7,0.3V34.4l0.7,2.1V48.6z M344.1,32.7l-0.7-2.1v-5.9
				c0.2,0.1,0.5,0.3,0.7,0.4V32.7z M345.4,48.1c-0.2,0.1-0.5,0.2-0.7,0.3v-6.2h0.7V48.1z M345.4,41.9C345.3,42,345.3,42,345.4,41.9
				c-0.2,0.1-0.4,0.1-0.7,0.1v-4l0.7,2.1V41.9z M345.4,36.2l-0.7-2v-8.9c0.2,0.1,0.5,0.2,0.7,0.2V36.2z M346.6,47.4
				c-0.2,0.1-0.5,0.3-0.7,0.4v-5.5h0.7V47.4z M346.6,39.8l-0.7-2V25.6c0.2,0,0.5,0.1,0.7,0.1V39.8z M347.9,46.5
				c-0.2,0.2-0.4,0.3-0.7,0.5v-4.8h0.7V46.5z M347.9,42c-0.2-0.1-0.3-0.2-0.5-0.5c0-0.1-0.1-0.2-0.2-0.3V25.8c0.2,0,0.5,0,0.7,0V42z
				 M349.1,45.5c-0.2,0.2-0.4,0.4-0.7,0.6v-3.9h0.1v-0.1h-0.1V25.7c0.2,0,0.5-0.1,0.7-0.1V45.5z M349.5,24.4c-0.3,0.1-0.7,0.2-1,0.2
				c0-0.2,0.2-0.3,0.2-0.4c0.2,0.1,0.4,0.1,0.5,0s0.2-0.1,0.3-0.1C349.5,24.3,349.5,24.3,349.5,24.4z M350.4,43.9
				c-0.2,0.3-0.4,0.7-0.7,1V25.5c0.3-0.1,0.5-0.1,0.7-0.2V43.9z M351.5,35c-0.1,0.2-0.2,0.3-0.2,0.3c0.1,0,0.1,0,0.2,0v0.6
				c-0.3,0.1-0.5,0.6-0.5,0.6c0.1-0.1,0.3-0.1,0.5-0.1c0,0.6,0,1,0,1c0,2,0,3.8-0.6,5.4V25.1c0.2-0.1,0.4-0.2,0.6-0.2V35z
				 M355.7,29.4c0.2-0.8,0.4-0.4,0.3-0.1s0,0.4-0.4,1.6c-0.4,1.2-1.4,2.6-1.7,3.2c-0.4,0.6-1,0.7-1.2,0.7h-0.1v-9.6
				c0.1,0.4,0.2,0.8,0.3,1.1c0.2,0.6,0.4,0.7,0.4,0.7c-0.1-1.1,0.1-0.5,1,0c0.9,0.6,0.2,1.5,0.2,1.5c0.8-0.2,0.6-0.9,0.9-1.3
				c0,0,0.1,0,0.4,0.2s0.3,0.3,0.3,0.3C355.4,28.5,355.7,29.4,355.7,29.4z M370.8,31.1c0.5,0.6,1,1.3,1.3,1.9c-0.3,0-0.7,0-1.2-0.5
				C370.7,32.3,370.7,31.8,370.8,31.1z"/>
		</g>
		<path class="st1" d="M23.5,15.3h25v6.2H30.8v8.1h15.5v6H30.8v14.8h-7.3V15.3z"/>
		<path class="st2" d="M34.1,15.3l-10.6,6V38c1.2-0.4,2.7-1.2,2.8-2.3c0.1-1.7,3.4-1.1,4.5-2c0.9-0.7,1.4-3,2-4.2h-1.9v-8.1h11.3
			c0.7-0.9,1.2-1.8,1.9-2.7c1-1.2,3.5-2.1,3.9-3.5H34.1V15.3z"/>
		<path class="st1" d="M76.2,47.3c-2.7,2.7-6.5,4.1-11.5,4.1s-8.9-1.4-11.5-4.1c-3.6-3.4-5.3-8.2-5.3-14.5c0-6.5,1.8-11.3,5.3-14.5
			c2.7-2.7,6.5-4.1,11.5-4.1s8.9,1.4,11.5,4.1c3.5,3.2,5.3,8.1,5.3,14.5C81.5,39.1,79.7,43.9,76.2,47.3z M71.6,42
			c1.7-2.2,2.6-5.2,2.6-9.2s-0.9-7-2.6-9.2s-4-3.2-6.9-3.2s-5.2,1.1-7,3.2c-1.7,2.2-2.6,5.2-2.6,9.2s0.9,7,2.6,9.2
			c1.7,2.2,4.1,3.2,7,3.2S69.9,44.1,71.6,42z"/>
		<path class="st1" d="M111.3,47.3c-2.7,2.7-6.5,4.1-11.5,4.1s-8.9-1.4-11.5-4.1c-3.6-3.4-5.3-8.2-5.3-14.5c0-6.5,1.8-11.3,5.3-14.5
			c2.6-2.7,6.5-4.1,11.5-4.1s8.9,1.4,11.5,4.1c3.5,3.2,5.3,8.1,5.3,14.5C116.6,39.1,114.8,43.9,111.3,47.3z M106.7,42
			c1.7-2.2,2.6-5.2,2.6-9.2s-0.9-7-2.6-9.2s-4-3.2-6.9-3.2s-5.2,1.1-7,3.2c-1.7,2.2-2.6,5.2-2.6,9.2s0.9,7,2.6,9.2s4.1,3.2,7,3.2
			S105,44.1,106.7,42z"/>
		<path class="st1" d="M144,15.2v6.2h-10.6v29h-7.3v-29h-10.6v-6.2C115.5,15.2,144,15.2,144,15.2z"/>
		<path class="st1" d="M147.7,15.2h8.3l12.4,35.2h-8l-2.3-7.3h-12.9l-2.4,7.3h-7.7L147.7,15.2z M147.2,37.1h9l-4.4-13.9L147.2,37.1z
			"/>
		<path class="st1" d="M196.1,39.6c0,3.6-1.3,6.5-4,8.6s-6.3,3.1-10.9,3.1c-4.5,0-8-1.1-10.5-3.2c-2.5-2.1-3.7-4.8-3.7-8
			c0-3.1,1-5.5,3.1-7.2c1.3-1.1,3.4-1.9,6.1-2.6l6.2-1.5c2.4-0.6,3.9-1,4.7-1.5c1.1-0.6,1.7-1.6,1.7-2.8c0-1.4-0.6-2.4-1.7-3.2
			c-1.2-0.8-2.7-1.2-4.6-1.2c-1.7,0-3.2,0.3-4.4,0.9c-1.8,0.9-2.7,2.4-2.8,4.5h-7c0.1-3.7,1.5-6.6,4.2-8.6c2.6-2,5.8-3,9.6-3
			c4.5,0,7.9,1,10.2,3.1s3.5,4.7,3.5,7.9c0,3.5-1.2,6-3.6,7.6c-1.4,1-4,1.9-7.7,2.7l-3.8,0.8c-2.2,0.5-3.9,1-4.9,1.6
			s-1.5,1.5-1.5,2.7c0,2,1,3.3,3.1,4.1c1.1,0.4,2.5,0.6,4.3,0.6c3,0,5-0.7,6.3-2.2c0.7-0.8,1.1-2,1.3-3.6h6.8V39.6z"/>
		<path class="st1" d="M216,15.2h8.3l-11.8,22v13.2h-7.3V37.3L193,15.2h8.7l7.3,15.3L216,15.2z"/>
		<path class="st1" d="M238.7,50.4h-24.8v-6.3h17.5V15.2h7.3V50.4z"/>
		<path class="st1" d="M240.1,15.2h7.5v21.6c0,2.4,0.3,4.2,0.9,5.3c0.9,2,2.8,3,5.8,3c3,0,4.9-1,5.8-3c0.6-1.1,0.9-2.9,0.9-5.3V15.2
			h7.5v21.6c0,3.7-0.6,6.7-1.7,8.7c-2.2,3.8-6.3,5.7-12.4,5.7s-10.2-1.9-12.4-5.7c-1.2-2.1-1.7-5-1.7-8.7V15.2H240.1z"/>
		<path class="st1" d="M293.2,15.2h10.5v35.2H297V26.6c0-0.7,0-1.6,0-2.9c0-1.2,0-2.2,0-2.9l-6.7,29.5h-7.1l-6.6-29.5
			c0,0.7,0,1.6,0,2.9c0,1.2,0,2.2,0,2.9v23.8h-6.8V15.2h10.7l6.4,27.7L293.2,15.2z"/>
	</g>
	<path class="st0" d="M3.4,24.1l7.4-14.5c0,0,4-7.5,8.5-8.6s14.9,5.3,14.9,5.3s7,4,8,6.4s-3.6,4.7-3.6,4.7L23.6,31L20,32.7
		c0,0-1.3-2.8-2.3-5.8s-1.2-3.8-1.2-3.8s-3.1-0.7-8.7,3.5S3.4,24.1,3.4,24.1z"/>
	<path class="st3" d="M5.9,26.4c0,0,4.8-1.9,5.2-5.6c0.4-3.5-0.5-10.6,3.9-7.4s8.7,6.7,13.2,5.4c4.5-1.2,5.8-2.2,5.8-2.2
		s4.1-2.3,5.7-3.8c1.7-1.6,2.4-0.4,2.4-0.4L25.9,28.6l-6.1,4l-0.9-1.8l-2.2-6.4l-0.5-1.3l-1.6,0.1l-3.4,1.2L7,26.9L5.9,26.4z"/>
	<g>
		<path class="st1" d="M20.8,30.2c0,0,0,0.5-0.5,0.7s-2.2,3.1-0.4,4c1.8,1,3.3,0.1,3.6-1c0.4-1.1,1.3-2.4,2-2.7
			c0.6-0.2,3.4-0.1,4-1.8c0.6-1.7,0.7-3.6,2.9-4.1s3.4-0.4,3.8-2.2c0.4-1.8,1.2-2.7,2.4-2.8c1.1-0.1,1.9-0.4,2.8-2.2
			c0.9-1.8,1.1-2.3,2.2-2.3s2.4-1.9,1.3-3c-1-1.2-2.9-2.5-4.1-0.7c-1.2,1.8-1.2,2.5-2.3,3c-1,0.5-4,0-4.8,2.4
			c-0.7,2.3-2.4,2.9-2.8,2.9s-3-0.2-3.6,1.9c-0.5,2-1.7,2.3-2.3,2.4c-0.6,0.2-2.3-0.4-2.8,1.2C22,28,20.3,26.4,20.8,30.2z"/>
	</g>
	<g>
		<circle class="st1" cx="4.3" cy="28" r="4.1"/>
	</g>
</g>
</svg>
