<svg xmlns="http://www.w3.org/2000/svg" viewBox="0 0 125.43 78.39"><defs><style>.cls-1{fill:#13457c;}.cls-2{fill:#ec1c2e;}.cls-3{fill:#0084c4;}.cls-4{fill:#fff;}</style></defs><title>Maestro</title><g id="Layer_2" data-name="Layer 2"><g id="Layer_1-2" data-name="Layer 1"><rect class="cls-1" width="125.43" height="78.39" rx="4.18"/><polygon class="cls-2" points="77.64 61.71 78.81 61.68 79.95 61.59 81.08 61.45 82.19 61.25 83.28 61 84.35 60.7 85.4 60.34 86.43 59.93 87.43 59.48 88.39 58.99 89.34 58.45 90.25 57.85 91.14 57.23 91.99 56.56 92.81 55.85 93.59 55.1 94.33 54.32 95.05 53.5 95.72 52.65 96.35 51.77 96.93 50.85 97.47 49.9 97.97 48.93 98.43 47.93 98.83 46.91 99.18 45.86 99.48 44.79 99.73 43.7 99.94 42.59 100.08 41.46 100.16 40.31 100.19 39.15 100.16 38 100.08 36.86 99.94 35.74 99.73 34.63 99.48 33.55 99.18 32.49 98.83 31.44 98.43 30.42 97.97 29.43 97.47 28.46 96.93 27.52 96.35 26.6 95.72 25.73 95.05 24.87 94.33 24.06 93.59 23.28 92.81 22.54 91.99 21.83 91.14 21.16 90.25 20.53 89.34 19.95 88.39 19.41 87.43 18.9 86.43 18.45 85.4 18.05 84.35 17.7 83.28 17.39 82.19 17.14 81.08 16.94 79.95 16.8 78.81 16.71 77.64 16.68 76.48 16.71 75.34 16.8 74.21 16.94 73.1 17.14 72.01 17.39 70.94 17.7 69.89 18.05 68.87 18.45 67.87 18.9 66.9 19.41 65.96 19.95 65.05 20.53 64.17 21.16 63.31 21.83 62.5 22.54 61.72 23.28 60.98 24.06 60.27 24.87 59.6 25.73 58.97 26.6 58.39 27.52 57.85 28.46 57.35 29.43 56.91 30.42 56.5 31.44 56.15 32.49 55.85 33.55 55.6 34.63 55.4 35.74 55.26 36.86 55.17 38 55.14 39.15 55.17 40.31 55.26 41.46 55.4 42.59 55.6 43.7 55.85 44.79 56.15 45.86 56.5 46.91 56.91 47.93 57.35 48.93 57.85 49.9 58.39 50.85 58.97 51.77 59.6 52.65 60.27 53.5 60.98 54.32 61.72 55.1 62.5 55.85 63.31 56.56 64.17 57.23 65.05 57.85 65.96 58.45 66.9 58.99 67.87 59.48 68.87 59.93 69.89 60.34 70.94 60.7 72.01 61 73.1 61.25 74.21 61.45 75.34 61.59 76.48 61.68 77.64 61.71"/><polygon class="cls-3" points="47.78 61.71 48.95 61.68 50.09 61.59 51.22 61.45 52.33 61.25 53.42 61 54.49 60.7 55.54 60.34 56.56 59.93 57.56 59.48 58.53 58.99 59.47 58.45 60.38 57.85 61.27 57.23 62.12 56.56 62.93 55.85 63.71 55.1 64.45 54.32 65.16 53.5 65.83 52.65 66.46 51.77 67.05 50.85 67.58 49.9 68.08 48.93 68.53 47.93 68.93 46.91 69.28 45.86 69.58 44.79 69.83 43.7 70.03 42.59 70.17 41.46 70.26 40.31 70.29 39.15 70.26 38 70.17 36.86 70.03 35.74 69.83 34.63 69.58 33.55 69.28 32.49 68.93 31.44 68.53 30.42 68.08 29.43 67.58 28.46 67.05 27.52 66.46 26.6 65.83 25.73 65.16 24.87 64.45 24.06 63.71 23.28 62.93 22.54 62.12 21.83 61.27 21.16 60.38 20.53 59.47 19.95 58.53 19.41 57.56 18.9 56.56 18.45 55.54 18.05 54.49 17.7 53.42 17.39 52.33 17.14 51.22 16.94 50.09 16.8 48.95 16.71 47.78 16.68 46.63 16.71 45.48 16.8 44.35 16.94 43.24 17.14 42.15 17.39 41.08 17.7 40.03 18.05 39 18.45 38.01 18.9 37.04 19.41 36.09 19.95 35.18 20.53 34.29 21.16 33.44 21.83 32.62 22.54 31.84 23.28 31.1 24.06 30.39 24.87 29.71 25.73 29.08 26.6 28.5 27.52 27.96 28.46 27.45 29.43 27 30.42 26.61 31.44 26.25 32.49 25.95 33.55 25.7 34.63 25.5 35.74 25.36 36.86 25.27 38 25.24 39.15 25.27 40.31 25.36 41.46 25.5 42.59 25.7 43.7 25.95 44.79 26.25 45.86 26.61 46.91 27 47.93 27.45 48.93 27.96 49.9 28.5 50.85 29.08 51.77 29.71 52.65 30.39 53.5 31.1 54.32 31.84 55.1 32.62 55.85 33.44 56.56 34.29 57.23 35.18 57.85 36.09 58.45 37.04 58.99 38.01 59.48 39 59.93 40.03 60.34 41.08 60.7 42.15 61 43.24 61.25 44.35 61.45 45.48 61.59 46.63 61.68 47.78 61.71"/><polygon class="cls-2" points="59.94 25.26 71.36 25.26 71.36 24 61.04 24 59.94 25.26"/><polygon class="cls-2" points="58.15 27.92 71.36 27.92 71.36 26.67 58.95 26.67 58.15 27.92"/><polygon class="cls-2" points="56.81 30.63 71.36 30.63 71.36 29.37 57.43 29.37 56.81 30.63"/><polygon class="cls-2" points="55.94 33.29 71.36 33.29 71.36 32.04 56.32 32.04 55.94 33.29"/><polygon class="cls-2" points="55.37 35.96 71.36 35.96 71.36 34.71 55.6 34.71 55.37 35.96"/><polygon class="cls-2" points="55.25 41.13 71.36 41.13 71.36 39.88 55.14 39.88 55.25 41.13"/><polygon class="cls-2" points="55.64 43.95 71.36 43.95 71.36 42.7 55.41 42.7 55.64 43.95"/><polygon class="cls-2" points="56.4 46.24 71.36 46.24 71.36 44.98 56.01 44.98 56.4 46.24"/><polygon class="cls-2" points="57.53 49.02 71.36 49.02 71.36 47.76 56.93 47.76 57.53 49.02"/><polygon class="cls-2" points="59.14 51.84 71.36 51.84 71.36 50.58 58.3 50.58 59.14 51.84"/><polygon class="cls-2" points="61.15 54.55 71.25 54.55 71.25 53.29 60.05 53.29 61.15 54.55"/><path class="cls-2" d="M98,52.86l0,0,0,0,0,0-.08,0h-.6v.92h.2v-.38h.19l.23.38H98l-.27-.38h.13l.05,0,0,0v0l0,0,0,0v-.2Zm-.17.17v0l0,0h0l0,0h-.36v-.3h.38l0,0,0,0,0,0V53Z"/><path class="cls-2" d="M98.65,53h0l-.07-.2-.1-.19-.14-.16-.16-.13L98,52.2l-.21-.07-.22,0-.22,0-.2.07-.18.1-.16.13-.14.16-.12.19-.06.2h0l0,.18v0l0,.22.06.21.12.18.14.16.16.12.18.1.2.06.22,0,.22,0L98,54.2l.18-.1.16-.12.14-.16.1-.18.07-.21,0-.22v0Zm-.21.22v.19l-.06.18-.08.15-.1.14-.13.11-.15.08-.17,0-.17,0-.18,0-.17,0L97.07,54l-.13-.11-.1-.14-.09-.15,0-.18V53l0-.14.09-.16.1-.13.13-.1.15-.08.17-.06h.35l.17.06.15.08.13.1.1.13.08.16,0,.14v.23Z"/><polygon class="cls-4" points="68.7 37.85 68.75 37.75 68.83 37.66 68.93 37.56 69.06 37.48 69.19 37.4 69.52 37.28 69.72 37.24 69.92 37.21 70.48 37.17 70.94 37.17 71.48 37.2 72.46 37.34 72.86 37.37 73.43 34.77 72.36 34.62 71.17 34.54 69.78 34.52 68.89 34.58 68.36 34.65 67.87 34.74 67.44 34.86 67.04 35.02 66.86 35.11 66.52 35.3 66.22 35.52 66.09 35.65 65.86 35.91 65.65 36.21 65.48 36.53 65.34 36.88 65.2 37.46 65.14 37.87 65.09 38.45 65.1 38.78 65.14 39.09 65.2 39.37 65.3 39.63 65.4 39.87 65.53 40.08 65.69 40.28 65.84 40.46 66.02 40.63 66.21 40.77 66.4 40.9 66.82 41.14 67.03 41.23 68.25 41.72 68.75 41.96 68.88 42.04 68.99 42.13 69.08 42.22 69.16 42.32 69.21 42.42 69.24 42.54 69.25 42.67 69.23 42.82 69.19 42.98 69.13 43.13 69.06 43.28 68.96 43.42 68.83 43.54 68.67 43.65 68.44 43.72 68.16 43.77 67.84 43.79 67.23 43.78 66.63 43.74 65.8 43.63 64.23 43.29 63.73 45.81 64.19 45.98 64.74 46.14 65.15 46.21 65.88 46.3 67.63 46.35 68.43 46.34 69.13 46.28 69.5 46.22 69.87 46.13 70.24 46.02 70.6 45.88 70.95 45.72 71.29 45.51 71.6 45.27 71.89 45 72.14 44.67 72.36 44.31 72.54 43.9 72.68 43.44 72.76 42.93 72.8 42.25 72.76 41.67 72.64 41.18 72.46 40.76 72.22 40.42 71.94 40.14 71.63 39.92 71.3 39.73 70.96 39.58 69.61 39.13 69.33 39 69.09 38.86 68.89 38.68 68.79 38.55 68.72 38.43 68.67 38.3 68.64 38.18 68.64 38.07 68.66 37.96 68.7 37.85"/><polygon class="cls-4" points="79.22 37.37 79.67 34.79 77.85 34.79 78.31 32.2 75.11 32.2 73.12 43.87 73.08 44.14 73.05 44.63 73.06 44.86 73.1 45.08 73.15 45.28 73.24 45.47 73.37 45.63 73.52 45.79 73.7 45.92 73.92 46.04 74.18 46.13 74.47 46.21 74.81 46.27 75.19 46.32 75.63 46.35 76.44 46.35 76.62 46.33 77.46 46.19 77.94 46.03 78.31 45.85 78.65 43.62 78.19 43.77 77.85 43.83 77.65 43.85 77.3 43.85 76.85 43.8 76.76 43.77 76.6 43.7 76.49 43.63 76.41 43.51 76.37 43.35 76.37 43.26 77.35 37.33 79.22 37.37"/><path class="cls-4" d="M64.39,38.24l0-.33-.13-.61L64.13,37,64,36.76l-.12-.24-.13-.22-.14-.22-.17-.19-.16-.18-.37-.31-.39-.25L62.33,35l-.43-.17-.44-.13-.45-.1-.86-.08-.66,0-.42,0-.41,0-.38.08-.36.09-.34.11-.32.13L57,35.2l-.28.16-.27.17-.25.18-.44.4-.2.21-.36.44-.29.45-.25.47-.2.47-.16.46-.17.65-.1.57-.09.79v.84l0,.39,0,.38.07.34.09.34.1.31.12.3.14.28.15.26.17.25.17.23.2.21.21.2.21.18.22.16.24.16.49.26.51.21.53.17.53.12.27,0,.55.07.53,0h.26l1.5,0,.64-.07.18,0,.35-.08.49-.19.39-.2.51-2.9-.8.45-.31.13-.29.11-.29.09-.29.07-.57.1-.56,0h-.27l-.55,0-.79-.1-.21-.05-.21-.07-.2-.09-.19-.11-.18-.14-.16-.14-.16-.16-.26-.35-.1-.18-.08-.19-.1-.37v-.41h6.85l.23-1.2.07-.45.06-.81V38.6Zm-3.13.49v.43H57.63l.12-.5.07-.2.08-.18.1-.18.22-.31.13-.14.13-.12.15-.1.15-.1.16-.07.16-.06.37-.06h.2l.36,0,.32.1.15.07.14.08.13.1.11.12.11.14.09.15.07.18.05.19,0,.2Z"/><polygon class="cls-4" points="54.27 37.47 54.2 37.08 54.07 36.71 53.9 36.38 53.69 36.08 53.44 35.81 53.15 35.57 52.85 35.36 52.53 35.18 52.19 35.02 51.85 34.89 51.51 34.8 51.17 34.71 50.84 34.67 50.53 34.64 48.8 34.62 47.88 34.66 47.3 34.73 46.77 34.83 46.51 34.89 46.02 35.08 45.76 35.2 44.9 38.02 45.24 37.83 45.38 37.77 46.05 37.59 46.94 37.45 47.61 37.37 48.29 37.32 49.27 37.28 49.56 37.29 49.8 37.33 50.02 37.38 50.24 37.49 50.41 37.61 50.49 37.69 50.63 37.86 50.73 38.05 50.79 38.28 50.8 38.56 50.77 38.76 50.72 38.93 49.69 38.9 47.82 39.01 46.75 39.16 46.39 39.25 46.04 39.37 45.69 39.52 45.35 39.7 45.03 39.9 44.74 40.12 44.46 40.38 44.21 40.65 43.97 40.95 43.78 41.27 43.6 41.61 43.46 41.98 43.36 42.37 43.29 42.77 43.26 43.2 43.27 43.43 43.32 43.92 43.36 44.17 43.43 44.42 43.52 44.66 43.62 44.9 43.75 45.13 43.91 45.37 44.1 45.57 44.31 45.77 44.55 45.95 44.83 46.11 45.14 46.25 45.48 46.37 45.87 46.47 46.17 46.51 46.47 46.53 46.78 46.52 47.1 46.5 47.73 46.4 48.05 46.31 48.36 46.22 48.94 45.98 49.21 45.84 49.46 45.7 49.7 45.55 49.9 45.39 49.94 45.35 49.79 46.35 52.68 46.35 53.12 43.9 54.22 38.34 54.28 37.88 54.27 37.47"/><polygon class="cls-3" points="50.46 41.1 50.45 41.04 50.4 40.99 50.33 40.96 50.24 40.94 50.11 40.92 49.98 40.91 49.82 40.91 49.66 40.91 49.49 40.93 49.31 40.95 49.14 40.97 48.97 41 48.81 41.03 48.65 41.06 48.52 41.1 48.4 41.13 48.33 41.15 48.24 41.18 48.13 41.22 48.02 41.27 47.89 41.32 47.75 41.39 47.61 41.47 47.47 41.55 47.33 41.65 47.19 41.77 47.07 41.88 46.96 42.02 46.85 42.16 46.78 42.31 46.72 42.48 46.68 42.66 46.67 43.02 46.72 43.3 46.81 43.52 46.94 43.69 47.1 43.8 47.27 43.87 47.46 43.91 47.64 43.92 47.97 43.91 48.25 43.88 48.52 43.83 48.77 43.76 48.99 43.69 49.19 43.6 49.37 43.5 49.52 43.38 49.66 43.27 49.78 43.15 49.89 43.03 49.98 42.9 50.05 42.78 50.11 42.66 50.15 42.54 50.19 42.43 50.23 42.27 50.26 42.1 50.3 41.92 50.34 41.73 50.37 41.56 50.4 41.39 50.43 41.24 50.46 41.1"/><polygon class="cls-4" points="39.1 32.2 35.83 40.13 35.36 32.2 30.13 32.2 27.68 46.22 27.66 46.35 30.77 46.35 32.54 36.24 33.03 44.65 33.13 46.35 36.55 46.35 40.7 36.28 38.96 46.22 38.94 46.35 42.05 46.35 44.5 32.33 44.53 32.2 39.1 32.2"/><polygon class="cls-4" points="87.44 34.71 87.01 34.64 86.6 34.66 86.29 34.7 85.75 34.83 85.51 34.92 85.28 35.02 85.07 35.14 84.69 35.42 84.51 35.58 84.19 35.92 83.85 36.36 84.14 34.79 80.91 34.75 78.91 46.22 78.89 46.35 82.11 46.35 83.16 40.25 83.2 40.01 83.31 39.56 83.46 39.15 83.56 38.96 83.68 38.77 83.81 38.6 83.97 38.45 84.15 38.3 84.37 38.18 84.61 38.06 84.9 37.97 85.22 37.9 85.58 37.85 85.99 37.82 86.42 37.86 86.57 37.17 86.81 36.32 87 35.84 87.19 35.45 87.52 34.89 87.59 34.71 87.44 34.71"/><polygon class="cls-4" points="96.47 45.78 96.81 45.78 96.81 46.51 97 46.51 97 45.78 97.34 45.78 97.34 45.67 96.47 45.67 96.47 45.78"/><polygon class="cls-4" points="98.33 45.67 98.03 46.31 97.72 45.67 97.45 45.67 97.45 46.51 97.64 46.51 97.64 45.86 97.94 46.51 98.1 46.51 98.4 45.86 98.4 46.51 98.6 46.51 98.6 45.67 98.33 45.67"/><path class="cls-4" d="M97.7,39.51l-.08-.59-.13-.56-.17-.53-.23-.5-.28-.46-.32-.42-.37-.39-.19-.17-.22-.17-.45-.3L95,35.29l-.52-.23-.27-.1-.57-.16-.31-.06L93,34.69l-.65,0H92l-.65,0-.62.07-.6.13-.56.18-.53.22-.5.27-.23.15L87.9,36l-.21.19-.39.4-.34.46-.31.5-.14.26-.23.56-.19.6-.14.64,0,.34,0,.35,0,.36v.69l0,.33,0,.33,0,.3.07.31.17.57.22.52.28.49.31.43.37.4.2.18.42.33.46.27.49.24.53.18.27.08.29.06.57.1.3,0,.61,0,.62,0,.6-.07.57-.11.29-.08.54-.19.51-.23.25-.14.47-.3.43-.36.2-.19.38-.42.18-.24.32-.5.27-.55.11-.29.2-.63.14-.67.1-.72,0-.7ZM94,39.6v.31l0,.32-.07.4-.07.38-.1.35-.11.32-.12.28-.14.27-.15.24-.15.2-.18.19-.19.15-.19.14-.21.1-.22.08-.23.05-.25,0h-.48l-.21,0-.21-.06-.18-.08-.18-.11L90.2,43l-.14-.16-.13-.18-.1-.22-.08-.23L89.68,42l0-.3,0-.32V41l0-.38,0-.42,0-.24,0-.25.07-.26.09-.25.1-.25.11-.24.14-.23.15-.22.17-.21.18-.19.21-.16.22-.15.24-.11.26-.09.28,0,.31,0h.24l.22,0,.21.06.19.1.17.12.16.15.13.16.12.19.1.22.08.23.06.25L94,39v.57Z"/></g></g></svg>