<svg xmlns="http://www.w3.org/2000/svg" viewBox="0 0 125.43 78.39"><defs><style>.cls-1{fill:#13457c;}.cls-2{fill:#fbb231;}.cls-2,.cls-3,.cls-5{fill-rule:evenodd;}.cls-3{fill:#ec1c2e;}.cls-4,.cls-5{fill:#fff;}</style></defs><title>Mastercard</title><g id="Layer_2" data-name="Layer 2"><g id="Layer_1-2" data-name="Layer 1"><rect class="cls-1" width="125.43" height="78.39" rx="4.18"/><polygon class="cls-2" points="77.77 61.7 78.93 61.67 80.07 61.59 81.2 61.44 82.31 61.24 83.4 60.99 84.47 60.69 85.52 60.33 86.54 59.93 87.54 59.48 88.52 58.98 89.46 58.44 90.38 57.85 91.26 57.22 92.11 56.55 92.93 55.85 93.71 55.1 94.46 54.31 95.16 53.49 95.83 52.65 96.46 51.76 97.05 50.85 97.59 49.9 98.09 48.93 98.54 47.93 98.94 46.91 99.3 45.86 99.61 44.79 99.86 43.7 100.05 42.59 100.2 41.46 100.28 40.32 100.31 39.16 100.28 38 100.2 36.86 100.05 35.74 99.86 34.64 99.61 33.55 99.3 32.49 98.94 31.44 98.54 30.43 98.09 29.43 97.59 28.46 97.05 27.53 96.46 26.61 95.83 25.73 95.16 24.89 94.46 24.07 93.71 23.28 92.93 22.54 92.11 21.83 91.26 21.17 90.38 20.54 89.46 19.95 88.52 19.41 87.54 18.92 86.54 18.46 85.52 18.06 84.47 17.7 83.4 17.4 82.31 17.15 81.2 16.95 80.07 16.81 78.93 16.73 77.77 16.69 76.61 16.73 75.47 16.81 74.34 16.95 73.23 17.15 72.15 17.4 71.08 17.7 70.04 18.06 69.01 18.46 68.02 18.92 67.06 19.41 66.11 19.95 65.2 20.54 64.32 21.17 63.47 21.83 62.66 22.54 61.88 23.28 61.13 24.07 60.43 24.89 59.76 25.73 59.14 26.61 58.55 27.53 58.02 28.46 57.51 29.43 57.07 30.43 56.66 31.44 56.31 32.49 56.01 33.55 55.76 34.64 55.56 35.74 55.42 36.86 55.34 38 55.3 39.16 55.34 40.32 55.42 41.46 55.56 42.59 55.76 43.7 56.01 44.79 56.31 45.86 56.66 46.91 57.07 47.93 57.51 48.93 58.02 49.9 58.55 50.85 59.14 51.76 59.76 52.65 60.43 53.49 61.13 54.31 61.88 55.1 62.66 55.85 63.47 56.55 64.32 57.22 65.2 57.85 66.11 58.44 67.06 58.98 68.02 59.48 69.01 59.93 70.04 60.33 71.08 60.69 72.15 60.99 73.23 61.24 74.34 61.44 75.47 61.59 76.61 61.67 77.77 61.7 77.77 61.7 77.77 61.7"/><polygon class="cls-3" points="47.66 61.7 48.81 61.67 49.96 61.59 51.09 61.44 52.19 61.24 53.28 60.99 54.35 60.69 55.39 60.33 56.41 59.93 57.41 59.48 58.37 58.98 59.31 58.44 60.23 57.85 61.1 57.22 61.95 56.55 62.77 55.85 63.55 55.1 64.29 54.31 65 53.49 65.67 52.65 66.29 51.76 66.87 50.85 67.41 49.9 67.91 48.93 68.36 47.93 68.76 46.91 69.11 45.86 69.42 44.79 69.67 43.7 69.86 42.59 70.01 41.46 70.09 40.32 70.12 39.16 70.09 38 70.01 36.86 69.86 35.74 69.67 34.64 69.42 33.55 69.11 32.49 68.76 31.44 68.36 30.43 67.91 29.43 67.41 28.46 66.87 27.53 66.29 26.61 65.67 25.73 65 24.89 64.29 24.07 63.55 23.28 62.77 22.54 61.95 21.83 61.1 21.17 60.23 20.54 59.31 19.95 58.37 19.41 57.41 18.92 56.41 18.46 55.39 18.06 54.35 17.7 53.28 17.4 52.19 17.15 51.09 16.95 49.96 16.81 48.81 16.73 47.66 16.69 46.5 16.73 45.35 16.81 44.23 16.95 43.11 17.15 42.03 17.4 40.96 17.7 39.91 18.06 38.89 18.46 37.88 18.92 36.91 19.41 35.97 19.95 35.05 20.54 34.17 21.17 33.32 21.83 32.5 22.54 31.72 23.28 30.97 24.07 30.26 24.89 29.6 25.73 28.96 26.61 28.38 27.53 27.83 28.46 27.34 29.43 26.89 30.43 26.48 31.44 26.13 32.49 25.82 33.55 25.57 34.64 25.38 35.74 25.23 36.86 25.15 38 25.12 39.16 25.15 40.32 25.23 41.46 25.38 42.59 25.57 43.7 25.82 44.79 26.13 45.86 26.48 46.91 26.89 47.93 27.34 48.93 27.83 49.9 28.38 50.85 28.96 51.76 29.6 52.65 30.26 53.49 30.97 54.31 31.72 55.1 32.5 55.85 33.32 56.55 34.17 57.22 35.05 57.85 35.97 58.44 36.91 58.98 37.88 59.48 38.89 59.93 39.91 60.33 40.96 60.69 42.03 60.99 43.11 61.24 44.23 61.44 45.35 61.59 46.5 61.67 47.66 61.7 47.66 61.7 47.66 61.7"/><polygon class="cls-2" points="60.08 25.33 72.04 25.33 72.04 24.1 61.11 24.1 60.08 25.33 60.08 25.33 60.08 25.33"/><polygon class="cls-2" points="58.29 28.04 72.04 28.04 72.04 26.82 59.01 26.82 58.29 28.04 58.29 28.04 58.29 28.04"/><polygon class="cls-2" points="56.95 30.75 72.04 30.75 72.04 29.53 57.48 29.53 56.95 30.75 56.95 30.75 56.95 30.75"/><polygon class="cls-2" points="56.03 33.47 72.04 33.47 72.04 32.25 56.41 32.25 56.03 33.47 56.03 33.47 56.03 33.47"/><polygon class="cls-2" points="56.57 46.6 72.07 46.6 72.07 45.38 56.19 45.38 56.57 46.6 56.57 46.6 56.57 46.6"/><polygon class="cls-2" points="57.71 49.32 72.07 49.32 72.07 48.1 57.14 48.1 57.71 49.32 57.71 49.32 57.71 49.32"/><polygon class="cls-2" points="59.32 52.03 72.07 52.03 72.07 50.81 58.55 50.81 59.32 52.03 59.32 52.03 59.32 52.03"/><polygon class="cls-2" points="61.54 54.75 72.07 54.75 72.07 53.52 60.47 53.52 61.54 54.75 61.54 54.75 61.54 54.75"/><polygon class="cls-2" points="55.5 36.18 72.04 36.18 72.04 34.96 55.73 34.96 55.5 36.18 55.5 36.18 55.5 36.18"/><polygon class="cls-2" points="65.58 43.89 71.88 43.89 71.88 42.67 65.8 42.67 65.58 43.89 65.58 43.89 65.58 43.89"/><polygon class="cls-2" points="66.08 41.18 71.88 41.18 71.88 39.95 66.31 39.95 66.08 41.18 66.08 41.18 66.08 41.18"/><polygon class="cls-2" points="55.08 39.95 56.72 39.95 56.72 41.18 55.15 41.18 55.08 39.95 55.08 39.95 55.08 39.95"/><polygon class="cls-4" points="49.15 38.82 49.27 38.7 49.45 38.59 49.68 38.51 50.38 38.44 50.7 38.43 52.1 38.59 52.54 36.67 51.85 36.55 50.35 36.45 49.61 36.46 49.2 36.49 48.82 36.55 48.47 36.62 48.15 36.7 47.87 36.82 47.62 36.95 47.39 37.1 47.19 37.28 47.02 37.48 46.88 37.69 46.75 37.93 46.65 38.18 46.58 38.45 46.52 38.73 46.48 39.04 46.48 39.55 46.55 39.98 46.7 40.34 46.9 40.65 47.16 40.89 47.44 41.09 47.73 41.26 48.04 41.4 48.63 41.62 48.89 41.73 49.1 41.84 49.28 41.96 49.39 42.09 49.44 42.24 49.43 42.41 49.37 42.63 49.32 42.74 49.26 42.83 49.17 42.92 49.05 42.99 48.89 43.05 48.69 43.09 48.48 43.1 47.82 43.09 47.21 43.01 45.9 42.73 45.54 44.52 45.52 44.61 46.26 44.85 46.89 44.94 48.33 44.99 48.66 44.99 49.41 44.95 49.95 44.84 50.21 44.76 50.47 44.66 50.73 44.54 50.97 44.39 51.19 44.21 51.4 44.01 51.58 43.78 51.74 43.52 51.86 43.22 51.96 42.89 52.01 42.53 52.04 42.03 52.01 41.61 51.93 41.25 51.8 40.94 51.63 40.69 51.42 40.49 51.2 40.32 50.96 40.19 49.75 39.76 49.55 39.66 49.38 39.56 49.24 39.43 49.12 39.26 49.08 39.1 49.07 39.03 49.09 38.95 49.15 38.82"/><polygon class="cls-4" points="55.36 38.51 56.7 38.55 57 36.61 55.74 36.61 56.05 34.77 53.73 34.77 52.26 43.15 52.21 43.53 52.22 43.87 52.25 44.03 52.29 44.17 52.35 44.32 52.44 44.44 52.56 44.55 52.7 44.65 52.85 44.73 53.04 44.8 53.25 44.86 53.5 44.9 54.08 44.96 54.67 44.96 55.41 44.84 55.76 44.72 56.02 44.56 56.29 43.11 56.31 42.93 56.13 42.99 55.69 43.11 55.39 43.13 55.22 43.12 55.06 43.09 54.8 43 54.73 42.95 54.67 42.86 54.64 42.77 54.65 42.65 55.36 38.51"/><polygon class="cls-4" points="76.49 34.76 75.56 34.54 75.12 34.48 74.4 34.43 73.83 34.46 73.55 34.49 73.03 34.57 72.54 34.69 72.08 34.85 71.65 35.05 71.44 35.16 71.06 35.42 70.7 35.73 70.53 35.89 70.22 36.25 69.95 36.64 69.81 36.86 69.58 37.32 69.38 37.81 69.19 38.35 69.04 38.94 68.91 39.56 68.82 40.2 68.81 40.8 68.84 41.35 68.93 41.87 69.07 42.35 69.26 42.78 69.48 43.17 69.74 43.53 70.03 43.84 70.34 44.11 70.67 44.34 71.01 44.53 71.37 44.69 71.73 44.8 72.09 44.88 72.44 44.92 72.88 44.94 73.27 44.95 73.92 44.93 74.42 44.86 74.63 44.82 74.95 44.72 75.2 44.6 75.53 44.33 75.88 42.26 75.7 42.17 75.56 42.3 75.41 42.41 75.25 42.5 75.07 42.58 74.7 42.69 74.51 42.73 74.14 42.77 73.78 42.77 73.34 42.72 72.86 42.62 72.61 42.52 72.38 42.41 72.19 42.29 72.02 42.13 71.87 41.97 71.73 41.78 71.63 41.59 71.55 41.37 71.48 41.15 71.43 40.92 71.41 40.67 71.4 40.42 71.41 40.16 71.49 39.64 71.61 39.16 71.75 38.74 71.9 38.37 72.06 38.05 72.24 37.77 72.42 37.54 72.61 37.35 72.81 37.19 73.01 37.06 73.21 36.96 73.42 36.88 73.62 36.82 74.02 36.76 74.77 36.74 75.11 36.77 75.56 36.85 76.09 37.02 76.74 37.34 77.16 35 76.49 34.76"/><path class="cls-4" d="M94.91,34.81l-.5,2.79-.21-.25L94,37.14l-.13-.09-.3-.18-.16-.07L93,36.68l-.2,0-.22,0h-.23l-.32,0-.32,0-.31.08-.31.11-.3.13-.3.17-.29.2-.27.22-.25.26-.25.28-.23.31-.2.35-.19.37-.16.4-.14.43-.12.46-.07.39,0,.4v.4l0,.4.06.39.09.38.12.37.16.35.19.33.22.29.25.27.29.23.32.18.35.13.38.09.4,0h.31l.47-.06.3-.08.3-.13.28-.16.29-.21.14-.13h0l-.12.68h2.32l1.73-10,0-.13Zm-1,5.63,0,.22,0,.21,0,.21,0,.2-.06.2-.08.19-.08.18-.1.17-.11.17-.11.15-.13.14-.14.13-.16.11-.15.09-.18.09-.18.05-.2,0h-.21L91.6,43l-.25-.17-.19-.25L91,42.22l-.09-.35-.06-.38v-.36l0-.33,0-.23.06-.21.06-.21.08-.21.08-.19.1-.18.11-.18.11-.17.13-.14.13-.13.15-.12.15-.1.18-.08.17-.06.19,0H93l.14,0,.14.06.13.09.11.11.1.12.09.15.08.15.06.17,0,.18,0,.19,0,.2v.42Z"/><path class="cls-4" d="M46.21,38.55l-.05-.28L46.08,38,46,37.77l-.16-.21-.18-.19-.2-.18L45.2,37,45,36.91l-.24-.11-.24-.09-.25-.07-.48-.1h-.22l-1.26,0-.88.05-.58.1-.38.09-.39.15-.55,1.88.15.13.18-.09.13,0,.33-.09.88-.13.73-.06h.47l.61,0,.17,0,.14.06.13.08.11.1.08.12.06.13,0,.15v.11l-.08.26h-.42l-.36,0-.87.05-1.17.15-.26.07-.26.09L40,40l-.24.13-.22.14-.22.17-.2.18-.19.2-.16.22-.14.23-.13.25-.1.27-.08.28-.05.28,0,.31v.18l0,.17.05.36,0,.18.06.17.09.18.09.17.11.15.14.16.16.14.17.13.2.12.23.1.24.08.28.07.44.06.45,0,.24,0,.45-.1.22-.07.21-.08.4-.19.35-.22.14-.1L43,45h2.13l.32-1.78.77-4,0-.32Zm-2.78,2.83,0,.24-.05.25-.06.22,0,.09,0,.08-.05.09,0,.09-.06.09-.08.09-.09.09-.1.07-.11.09-.13.07-.15.06-.15.06-.17,0-.2,0-.2,0h-.36l-.12,0-.13,0L41,43l-.1-.11-.07-.15,0-.21v-.26l0-.12,0-.12.06-.11.07-.09.09-.1.09-.09.1-.07.1-.08.1-.06.11,0,.1-.06.09,0,.09,0,.08,0,.06,0,.06,0,.08,0,.09,0,.11,0h.11l.12,0h.12l.13,0h.45l.08,0h.08l0,0,0,0v0Z"/><polygon class="cls-4" points="35.32 34.77 32.99 40.32 32.67 34.77 28.89 34.77 27.15 44.83 27.13 44.96 29.41 44.96 30.61 37.88 30.8 41.19 31 44.54 31.02 44.96 33.52 44.96 36.41 38.01 35.19 44.96 37.47 44.96 39.27 34.77 35.32 34.77"/><path class="cls-4" d="M83.79,38.3l-.08-.25-.12-.24-.15-.21-.19-.19-.19-.17-.21-.14L82.62,37l-.24-.1-.24-.1-.25-.06-.24-.06-.23,0-.21,0H79.54l-.22,0h-.2l-.21,0-.19,0-.19,0-.18,0-.18.05-.18.06-.16.07h0v0l-.53,1.83.07,0,.08,0,.1-.05.12,0,.17,0,.18,0,.2,0,.22,0,.22,0,.24,0,.24,0,.24,0H80.7l.16,0,.15.07.13.09.1.11.09.13.07.13,0,.16h0v.15l0,.15,0,.14h-.2l-.14,0H79.51l-.13,0-.12,0h-.5l-.26,0-.26.07L78,40l-.25.11-.23.12-.23.15-.2.16-.2.18-.18.19-.16.22-.16.22-.11.26-.1.25-.07.28,0,.28,0,.3v.17l0,.16,0,.19,0,.17,0,.17.06.17.07.18.1.16.1.16.13.14.15.14.17.13.2.12.22.1.25.07.27.07.21,0,.21,0h.21l.22,0,.22,0,.22,0,.21-.06.21-.06.19-.08.2-.09.18-.09.16-.1.16-.11.14-.11.11-.12v.43l0,.31v0h2v0L83,43.17l.8-4,0-.31v-.29Zm-2.68,3.07,0,.21,0,.22L81,42l0,.08,0,.09,0,.09,0,.09-.07.1-.08.09-.09.1-.11.09-.12.09-.14.07-.14.07L80,43l-.17.05-.2,0-.21,0H79l-.13,0-.13,0L78.64,43l-.09-.11-.06-.15,0-.21v-.26l0-.13,0-.12,0-.11.07-.11.08-.1.08-.08.1-.08.1-.07.1-.07.1,0,.1,0,.1,0,.08,0,.08,0,.06,0h.13l.09,0H80l.12,0,.11,0h.12l.12,0H81l.08,0,0,0,0,0,0,0Z"/><path class="cls-5" d="M98.22,43.52l0,0,0,0-.06,0-.06,0-.08,0h-.51v.92h.19v-.38h.19l.23.38h.15L98,43.89h.11l0,0,0,0,0,0v0l0,0,0-.06v-.12Zm-.39.3h-.19v-.3h.41l0,0,0,0v.09l0,0,0,0,0,0,0,0h-.17Z"/><path class="cls-5" d="M98.89,43.81v-.18l-.07-.2-.1-.18-.13-.16L98.42,43l-.18-.09-.2-.06-.21,0-.21,0-.2.06-.18.09-.16.13-.13.16-.11.18-.06.2v.22l0,.22.06.21.11.18.13.15.16.13.18.1.2.06.21,0,.21,0,.2-.06.18-.1.16-.13.13-.15.1-.18.07-.21,0-.22Zm-.23.23,0,.16-.07.15-.1.13-.13.1-.14.09-.17,0h-.35l-.16,0-.15-.09-.12-.1-.1-.13-.07-.15L97,44v-.37l0-.17.07-.15.1-.13.12-.1.15-.08.16,0,.18,0L98,43l.17,0,.14.08.13.1.1.13.07.15,0,.17V44Z"/><polygon class="cls-4" points="88.79 36.57 88.59 36.61 88.4 36.66 88.22 36.73 88.06 36.81 87.75 36.99 87.47 37.21 87.23 37.46 87.04 37.69 87.22 36.61 84.86 36.61 83.43 44.83 83.41 44.96 85.77 44.96 86.58 40.39 86.67 40.07 86.8 39.75 86.97 39.45 87.09 39.32 87.22 39.2 87.36 39.08 87.52 38.97 87.71 38.88 87.92 38.81 88.15 38.75 88.41 38.71 88.7 38.69 88.98 38.69 89.36 36.52 88.79 36.57"/><polygon class="cls-4" points="69.48 36.57 69.35 36.54 69.31 36.54 69.18 36.53 68.66 36.57 68.27 36.66 68.08 36.72 67.76 36.88 67.48 37.08 67.36 37.2 67.01 37.58 66.96 37.65 67.17 36.61 64.77 36.61 63.33 44.83 63.31 44.96 65.7 44.96 66.45 40.55 66.55 40.08 66.66 39.79 66.73 39.66 66.81 39.53 66.91 39.41 67.15 39.2 67.48 39.03 67.68 38.96 67.91 38.91 68.16 38.87 68.44 38.84 68.75 38.88 69.11 37.56 69.32 37.14 69.68 36.57 69.48 36.57"/><path class="cls-2" d="M98.22,52.71l0,0,0,0-.06,0-.06,0h-.59v.87h.19v-.38h.19l.23.38h.15L98,53.06h.11l0,0,0,0,0,0,0,0,0,0v-.12Zm-.12.14,0,0,0,0,0,0,0,0h-.1l-.07,0h-.19v-.31h.41l0,0,0,0v.09Z"/><path class="cls-2" d="M98.88,52.83v0l-.07-.19-.1-.18-.13-.15-.16-.12-.18-.09L98,52l-.21,0-.21,0-.2,0-.18.09-.16.12-.13.15-.11.18-.06.19v0l0,.17v0l0,.22.06.21.11.18.13.16.16.13.18.09.2.06.21,0,.21,0,.2-.06.18-.09.16-.13.13-.16.1-.18.07-.21,0-.22v0Zm-.21.19v.19l0,.16-.07.15-.1.12-.13.11-.14.09-.17,0h-.35l-.16,0-.15-.09-.12-.11-.1-.12-.07-.15,0-.16v-.37h0l0-.15.07-.15.1-.13.12-.1.15-.09.16-.05.18,0,.17,0,.17.05.14.09.13.1.1.13.07.15,0,.15h0V53Z"/><path class="cls-5" d="M63.78,39.12l-.07-.46-.11-.42-.16-.36-.2-.32L63,37.29l-.26-.22-.28-.19-.31-.14-.31-.12-.32-.08-.32,0-.32,0h-.3l-.63,0-.56.1-.51.14-.45.2-.39.23-.34.27-.31.29-.25.32-.21.32-.18.35-.14.33-.12.33-.08.33-.07.3-.07.53,0,.64,0,.57.09.52.13.46.19.42.23.36.27.33.31.26.33.23.35.19.37.15.37.11.39.1.39,0,.38,0h1.07l.54,0,.43-.06.38-.11L63,44.5l.35-2.15-.62.36-.21.09-.41.14-.6.12-.4,0h-.39l-.39,0L59.81,43l-.28-.12-.26-.16-.22-.21-.19-.25-.08-.13-.11-.26,0-.13v-.26h4.93l0-.55.11-.65.06-.59ZM59,39.73l0-.13.09-.29.13-.25.17-.23.18-.18.21-.14.24-.1.24,0h.13l.25,0,.22.06.11.06.19.13.08.08.14.19.1.26,0,.14,0,.33v.09Z"/></g></g></svg>