<?xml version="1.0" encoding="utf-8"?>
<!-- Generator: Adobe Illustrator 24.1.2, SVG Export Plug-In . SVG Version: 6.00 Build 0)  -->
<svg version="1.1" id="Layer_1" xmlns="http://www.w3.org/2000/svg" xmlns:xlink="http://www.w3.org/1999/xlink" x="0px" y="0px"
	 viewBox="0 0 2500 2500" style="enable-background:new 0 0 2500 2500;" xml:space="preserve">
<path d="M2001.8,652.1h1.5l8.2,15.2h10.4l-9.2-15.5c4.8-0.2,8.6-2.7,8.6-9.4c0-8.6-5.6-10.8-15-10.8h-13.5v35.7h9V652.1z
	 M2001.8,637.7h4.3c2.6,0,5.7,0.3,5.7,3.8c0,3.7-1.8,4.5-4.9,4.5h-5.1V637.7z M2446.2,1012.1c-3.4,0.8-323.7,87.6-693.2,187.7
	l18.3-51.1h-181.5l59.6-159.5h149.6l46-122.6h-149.6l51.3-138.6h157.5l41.8-109.7h-474.6l-163,197.4l75.2-197.4h-157.5l-244.8,658.1
	H1137l104.5-275.2l7.2,275.2l223.8-0.5c-424,114.9-826,223.8-826,223.8c-227.4,63.8-486.6-75.3-299.1-450.2v0
	C130,1304.7-75.1,1644.4,106,1800.8c175.5,151.6,394.9,61.8,544.4,2S2453.2,1025,2453.2,1025
	C2469.1,1017.1,2466.2,1007.1,2446.2,1012.1z M1403,1232.4L1403,1232.4l-10-343l235.2-258.2L1403,1232.4z M1904.4,727.9
	L1904.4,727.9L1904.4,727.9L1904.4,727.9z M2006.9,682.5c19.2,0,34.4-13.5,34.4-33.1c0-19.7-15.1-33.2-34.4-33.2
	c-19.3,0-34.4,13.5-34.4,33.2C1972.4,669.1,1987.6,682.5,2006.9,682.5z M2006.9,625.7c13.7,0,24,10.3,24,23.7
	c0,13.3-10.4,23.6-24,23.6c-13.8,0-24-10.1-24-23.6C1982.9,635.9,1993,625.7,2006.9,625.7z M429.2,1407.8v35.7h9v-15.2h1.5l8.2,15.2
	h10.4l-9.2-15.5c4.8-0.2,8.6-2.7,8.6-9.4c0-8.6-5.6-10.8-15-10.8H429.2z M448.2,1417.7c0,3.7-1.8,4.5-4.9,4.5h-5.1v-8.3h4.3
	C445.2,1413.9,448.2,1414.2,448.2,1417.7z M953.8,1276.3l246.8-658.1h-155.5l-246.8,658.1H953.8z M408.8,1425.6
	c0,19.7,15.2,33.1,34.4,33.1c19.2,0,34.4-13.5,34.4-33.1c0-19.7-15.1-33.2-34.4-33.2C423.9,1392.4,408.8,1405.9,408.8,1425.6z
	 M467.2,1425.6c0,13.3-10.4,23.6-24,23.6c-13.8,0-24-10.1-24-23.6c0-13.6,10.1-23.7,24-23.7C456.9,1401.9,467.2,1412.2,467.2,1425.6
	z M629.6,985.2l-19,291.1h167.5l246.8-658.1H869.3L758.5,913.4l19.1-295.1H612.1l-246.8,658.1h155.5L629.6,985.2z"/>
</svg>
