<?xml version="1.0" encoding="utf-8"?>
<!-- Generator: Adobe Illustrator 24.0.2, SVG Export Plug-In . SVG Version: 6.00 Build 0)  -->
<svg version="1.1" id="Layer_1" xmlns="http://www.w3.org/2000/svg" xmlns:xlink="http://www.w3.org/1999/xlink" x="0px" y="0px"
	 viewBox="0 0 118.3 59" style="enable-background:new 0 0 118.3 59;" xml:space="preserve">
<title>Asset 11</title>
<g id="Layer_2_1_">
	<g id="Layer_1-2">
		<path d="M34.9,31.1l11.6-31h-7.7l-5.2,13.6L35,0l-8.1,0.1l-11.5,31h7.3l5.6-14.9l-1,14.9H34.9z M44,31.2l11.6-31h-7.5l-11.6,31H44
			z M65.1,29.3l-0.4-15.6L75.2,1.4l0.5-0.5L65.1,29.3z M118.3,18.3L81.2,28l1-2.9l-8,0.1l2.7-7.4l6.7,0.1l2-5.6H79L81.2,6h6.5
			l2.1-5.7h-21l-7.7,9l3.6-9h-7.5l-11.6,31l7.5-0.1L58,17.9v13.4l9.9,0.1l-35.2,9.2c-7.2,1.9-12.9,1.6-16.3-0.9
			c-8.4-6.2-1.9-18.5,0.4-22.2c-4.2,4.3-8,9-11.5,13.9C0.2,39.2-2,47.6,1.4,53.1c6.1,9.8,20.8,5.3,30.1,1.6L118.3,18.3z"/>
	</g>
</g>
</svg>
