<svg xmlns="http://www.w3.org/2000/svg" viewBox="0 0 170.25 78.4"><defs><style>.cls-1{fill-rule:evenodd;}</style></defs><title>Asset 12</title><g id="Layer_2" data-name="Layer 2"><g id="Layer_1-2" data-name="Layer 1"><polygon id="_54807176" data-name=" 54807176" class="cls-1" points="61.87 24.36 56.79 24.36 56.79 4.36 49.44 4.36 49.44 0.06 69.22 0.06 69.22 4.36 61.87 4.36 61.87 24.36"/><polygon id="_54806200" data-name=" 54806200" class="cls-1" points="75.61 13.46 75.61 24.36 70.53 24.36 70.53 0.06 75.61 0.06 75.61 9.27 85.08 9.27 85.08 0.06 90.16 0.06 90.16 24.36 85.08 24.36 85.08 13.46 75.61 13.46"/><polygon id="_54805224" data-name=" 54805224" class="cls-1" points="110.48 4.36 97.71 4.36 97.71 9.47 108.95 9.47 108.95 13.77 97.71 13.77 97.71 20.06 110.51 20.06 110.51 24.36 92.98 24.36 92.98 0.06 110.48 0.06 110.48 4.36"/><polygon id="_54804504" data-name=" 54804504" class="cls-1" points="15.06 26.76 19.8 26.76 19.8 51.06 14.72 51.06 4.81 33.73 4.74 33.73 4.74 51.06 0 51.06 0 26.76 5.34 26.76 14.99 43.68 15.06 43.68 15.06 26.76"/><path id="_54803152" data-name=" 54803152" class="cls-1" d="M34,47.41c2.74,0,6.59-1.7,6.59-8.5s-3.85-8.5-6.59-8.5-6.6,1.7-6.6,8.5,3.86,8.5,6.6,8.5Zm0-21.29c3.22,0,11.67,1.39,11.67,12.79S37.18,51.7,34,51.7,22.29,50.31,22.29,38.91,30.75,26.12,34,26.12Z"/><polygon id="_54865864" data-name=" 54865864" class="cls-1" points="81.68 51.06 76.6 51.06 76.6 31.06 69.25 31.06 69.25 26.76 89.01 26.76 89.01 31.06 81.68 31.06 81.68 51.06"/><polygon id="_54865008" data-name=" 54865008" class="cls-1" points="95.91 40.17 95.91 51.06 90.84 51.06 90.84 26.76 95.91 26.76 95.91 35.96 105.39 35.96 105.39 26.76 110.48 26.76 110.48 51.06 105.39 51.06 105.39 40.17 95.91 40.17"/><polygon id="_54864288" data-name=" 54864288" class="cls-1" points="38.02 77.76 32.94 77.76 32.94 53.46 50.23 53.46 50.23 57.76 38.02 57.76 38.02 63.24 48.71 63.24 48.71 67.54 38.02 67.54 38.02 77.76"/><path id="_54863304" data-name=" 54863304" class="cls-1" d="M55.59,68.56h6.19l-3-9.62H58.7l-3.11,9.62Zm-3.05,9.2H47.19l8.67-24.3h5.86l8.55,24.3H64.75l-1.55-5h-9Z"/><path id="_54862224" data-name=" 54862224" class="cls-1" d="M85.87,61.41c-.4-1.45-1.19-4.19-5.39-4.19-2.43,0-6,1.62-6,8.49,0,4.37,1.73,8.3,6,8.3a5.2,5.2,0,0,0,5.39-4.57h5.07c-1,5.27-4.46,9-10.56,9-6.46,0-11.1-4.36-11.1-12.76s4.9-12.82,11.17-12.82c7.28,0,10.22,5,10.49,8.59Z"/><polygon id="_55197680" data-name=" 55197680" class="cls-1" points="110.48 57.76 97.71 57.76 97.71 62.87 108.95 62.87 108.95 67.17 97.71 67.17 97.71 73.46 110.51 73.46 110.51 77.76 92.98 77.76 92.98 53.46 110.48 53.46 110.48 57.76"/><path id="_55197592" data-name=" 55197592" class="cls-1" d="M59,37.42c2.64,0,3.92-.91,3.92-3.31,0-1.28-.58-3.17-3.55-3.17H53.1v6.48ZM48.13,26.75H60.4c6.44,0,7.62,4.76,7.62,6.86a5.79,5.79,0,0,1-3.75,5.77c2,.88,3.08,1.62,3.08,6.14,0,3.55,0,4.43,1.08,4.84V51H62.82a16,16,0,0,1-.54-4.89c0-3.31-.2-4.59-4-4.59H53.1V51h-5V26.75Z"/><polygon class="cls-1" points="126.16 77.75 126.15 60.74 126.15 60.74 126.14 60.33 126.11 59.92 126.06 59.52 125.99 59.12 125.9 58.73 125.79 58.36 125.66 57.98 125.52 57.62 125.36 57.26 125.18 56.92 124.99 56.58 124.78 56.25 124.56 55.94 124.32 55.63 124.06 55.34 123.8 55.06 123.52 54.8 123.23 54.55 122.92 54.31 122.61 54.08 122.28 53.87 121.95 53.68 121.6 53.5 121.25 53.34 120.88 53.2 120.51 53.07 120.13 52.96 119.74 52.87 119.34 52.8 118.94 52.75 118.53 52.72 118.12 52.71 118.12 52.71 113.8 52.72 113.8 77.75 126.16 77.75 126.16 77.75"/><path d="M24.49,72.61l.26.26V76h-.52V72.87Zm-.26.26v-.26h.26Zm1.63.25H24.49v-.51h1.37Zm1.36.57H26.7v-.27l0,0v0h0l0,0v0h0l0,0,0,0h0l0,0h-.07l0,0h-.49v-.51h.45l.07,0h.06l.07,0,.06,0,.06,0,.05,0,.06,0,.05,0,.05,0,0,0,.05,0,0,0,0,0,0,0,0,0,0,0,0,0,0,.06v0l0,0v.33ZM26,74.81v-.52h.39l0,0h.05l0,0h0l0,0,0,0h0l0,0,0,0v0l0,0v-.34h.52V74l0,.06,0,.07,0,0,0,.06,0,0,0,.05,0,0,0,0,0,0,0,0,0,0,0,0-.05,0,0,0-.05,0-.05,0,0,0-.05,0-.06,0h0l-.06,0H26Zm0,0h0Zm-1.5-.51H26v.52H24.49Zm2.2,1.81-.91-1.4.43-.28.91,1.4Z"/><path d="M22.45,74.43h-.51v-.18l0-.19,0-.17,0-.18,0-.17.05-.17.06-.17.06-.16.07-.16.08-.16.09-.15.09-.14.1-.15.11-.13.11-.13.12-.13.12-.11.13-.12.14-.1.14-.1.15-.1.15-.08L24,71.2l.16-.07.16-.07.17,0,.17-.05.17,0,.18,0,.18,0h.36v.52h-.31l-.15,0-.15,0-.15,0-.15,0-.14,0-.14,0-.14.06-.13.07-.13.07-.12.08-.12.09-.12.09-.11.1-.11.1-.1.11-.1.11-.09.11-.08.12-.08.13-.08.13-.06.13-.07.13-.05.14-.05.15,0,.14,0,.15,0,.15,0,.16v.31Zm3.07,3.07V78h-.36L25,78l-.18,0-.17,0-.17,0-.17-.06-.16-.07L24,77.66l-.16-.08-.14-.08-.15-.09-.14-.11-.14-.1-.13-.11L23,77l-.12-.13-.11-.13-.11-.13-.1-.14-.09-.15-.09-.15L22.29,76l-.07-.16-.06-.17-.06-.16-.05-.17,0-.18L22,75l0-.18,0-.19v-.18h.51v.32l0,.15,0,.15,0,.15,0,.15.05.14.05.14.07.13.06.14.08.12.08.13.08.12.09.12.1.11.1.1.11.11.11.09.12.09.12.09.12.08.13.07.13.07.14.06.14.06.14,0,.15,0,.14,0,.16,0,.15,0h.31Zm0,0Zm3.07-3.07h.52v.18l0,.19,0,.18,0,.17,0,.18L29,75.5l-.06.16-.06.17-.07.16-.08.15-.09.15-.09.15-.1.14-.11.13-.11.13-.12.13-.12.12-.13.11-.14.1-.14.11-.14.09-.15.08-.16.08-.16.07-.16.07-.17.06-.17,0-.17,0-.18,0-.18,0h-.37V77.5h.32l.15,0,.16,0,.14,0,.15,0,.14,0,.14-.06.14-.06.13-.07.13-.07.12-.08.13-.09.11-.09.11-.09.11-.11.1-.1.1-.11.09-.12.08-.12.08-.13.08-.12.06-.14.06-.13.06-.14.05-.14,0-.15,0-.15,0-.15,0-.15v-.32Zm-3.07-3.07v-.52h.37l.18,0,.18,0,.17,0,.17.05.17,0,.16.07.16.07.16.08.15.08.14.1.14.1.14.1.13.12.12.12.12.12.11.13.11.14.1.14.09.14.09.15.08.16.07.16.06.16.06.17.05.17,0,.17,0,.18,0,.17,0,.19v.18h-.52v-.31l0-.16,0-.15,0-.15,0-.14-.05-.15-.05-.14-.07-.13L28.23,73l-.08-.13-.08-.13L28,72.59l-.09-.11-.1-.12-.1-.1-.11-.1-.11-.1L27.36,72l-.12-.09-.12-.08L27,71.73l-.13-.07-.14-.06-.14,0-.14,0-.14,0-.15,0-.16,0-.15,0h-.32Zm0,0Z"/><polygon class="cls-1" points="146.1 77.75 146.1 55.79 146.06 54.26 145.94 52.75 145.75 51.26 145.49 49.79 145.16 48.35 144.76 46.94 144.29 45.56 143.76 44.2 143.16 42.89 142.51 41.6 141.79 40.36 141.01 39.15 140.18 37.98 139.3 36.86 138.37 35.78 137.38 34.74 136.35 33.76 135.27 32.82 134.14 31.94 132.98 31.11 131.77 30.34 130.52 29.62 129.24 28.96 127.92 28.36 126.57 27.83 125.19 27.36 123.78 26.96 122.34 26.63 120.87 26.37 119.39 26.18 117.87 26.07 116.34 26.03 116.34 26.02 113.8 26.02 113.8 51.7 118.12 51.68 118.58 51.69 119.04 51.73 119.5 51.78 119.94 51.87 120.38 51.97 120.81 52.09 121.23 52.23 121.64 52.39 122.05 52.58 122.44 52.78 122.82 52.99 123.19 53.23 123.54 53.48 123.88 53.75 124.21 54.04 124.53 54.34 124.83 54.65 125.11 54.98 125.38 55.32 125.63 55.68 125.87 56.05 126.09 56.42 126.29 56.81 126.47 57.22 126.63 57.63 126.77 58.05 126.89 58.48 127 58.92 127.08 59.37 127.13 59.82 127.17 60.28 127.18 60.74 127.18 60.74 127.19 77.75 127.19 77.75 146.1 77.75"/><path class="cls-1" d="M113.83,0h0V25h2.54l1.58.05,1.57.12,1.54.19,1.51.27L124,26l1.47.41,1.43.48,1.39.56,1.37.61,1.33.68,1.28.75,1.25.8,1.21.86,1.16.91L137,33l1.07,1,1,1.07,1,1.11.91,1.17.86,1.2.8,1.25.74,1.29.68,1.33.62,1.37.55,1.39.48,1.44.42,1.46.34,1.49.27,1.51.2,1.54.12,1.57,0,1.58h0v22h23.12V56.59A56.46,56.46,0,0,0,113.83,0Z"/></g></g></svg>