<svg xmlns="http://www.w3.org/2000/svg" width="644.912" height="99.996" viewBox="0 0 644.912 99.996"><defs><style>.a{fill:#11fa78;}.b{fill:#fff;}</style></defs><g transform="translate(-624.994 -294.64)"><path class="a" d="M-87.027,0l-3.605-14.455h-.21L-94.448,0h-7.7l-5.53-24.08h6.09l3.605,16.87h.175l4.025-16.87h6.23l4.1,16.87h.21l3.36-16.87h6.055L-79.363,0Zm14.735,0V-24.08h17.08v4.935H-66.2v4.515h9.31V-9.7H-66.2v4.76h10.99V0Zm20.265-16.415a4.384,4.384,0,0,0,1.505-.192,1.107,1.107,0,0,0,.665-.647,4.162,4.162,0,0,0,.175-1.4v-.56h-2.1v-4.9h5.67v3.675a13.77,13.77,0,0,1-.4,3.885,2.729,2.729,0,0,1-1.627,1.767,10.9,10.9,0,0,1-3.885.508ZM-28.542,0l-3.15-8.435h-4.235V0h-6.09V-24.08h11.55a10.745,10.745,0,0,1,5.023.927A4.5,4.5,0,0,1-23.2-20.6a14.184,14.184,0,0,1,.543,4.358,13.293,13.293,0,0,1-.647,4.375A4.473,4.473,0,0,1-25.882-9.17L-22.172,0Zm-4.235-13.265a11.747,11.747,0,0,0,2.677-.21,1.427,1.427,0,0,0,1.032-.788,5.45,5.45,0,0,0,.245-1.943,6.46,6.46,0,0,0-.21-1.978,1.322,1.322,0,0,0-1-.787,11.747,11.747,0,0,0-2.677-.21h-3.22v5.915ZM-18.952,0V-24.08h17.08v4.935h-10.99v4.515h9.31V-9.7h-9.31v4.76h10.99V0ZM9.993-24.08H22.1a7.936,7.936,0,0,1,5.285,1.505,5.675,5.675,0,0,1,1.75,4.55,6.325,6.325,0,0,1-1,3.867,5.284,5.284,0,0,1-3.2,1.8v.14a5.813,5.813,0,0,1,3.4,1.785A6.412,6.412,0,0,1,29.347-6.4a6.306,6.306,0,0,1-1.7,4.795Q25.953,0,22.068,0H9.993Zm9.9,9.59a7.1,7.1,0,0,0,1.925-.193,1.362,1.362,0,0,0,.875-.683,3.412,3.412,0,0,0,.245-1.47,3.761,3.761,0,0,0-.227-1.5,1.239,1.239,0,0,0-.84-.665A7.941,7.941,0,0,0,19.9-19.18h-3.85v4.69Zm.175,9.59a7.273,7.273,0,0,0,1.96-.193,1.362,1.362,0,0,0,.875-.682,3.628,3.628,0,0,0,.245-1.54,4.281,4.281,0,0,0-.228-1.61,1.286,1.286,0,0,0-.875-.717,7.481,7.481,0,0,0-1.977-.193H16.048V-4.9ZM48.177,0,46.742-4.55H38.167L36.8,0h-6.09l7.7-24.08h8.26L54.372,0Zm-5.67-18.69h-.175l-2.765,9.2h5.74ZM72.537-.315a29.292,29.292,0,0,1-2.993.42q-1.8.175-3.378.175a15.317,15.317,0,0,1-6.72-1.12,5.566,5.566,0,0,1-2.87-3.64,30.331,30.331,0,0,1-.7-7.56,29.248,29.248,0,0,1,.718-7.49A5.747,5.747,0,0,1,59.482-23.2a14.806,14.806,0,0,1,6.685-1.155,30.463,30.463,0,0,1,3.325.192,23.61,23.61,0,0,1,2.9.473v4.62q-3.57-.35-4.725-.35a12.041,12.041,0,0,0-3.955.438,2.322,2.322,0,0,0-1.382,1.82,28.883,28.883,0,0,0-.3,5.127,28.883,28.883,0,0,0,.3,5.127,2.322,2.322,0,0,0,1.382,1.82,12.041,12.041,0,0,0,3.955.438,32.021,32.021,0,0,0,4.865-.35ZM90.317,0,83.493-9.8H81.987V0H75.9V-24.08h6.09v9.38h1.505l6.895-9.38h6.685L88.357-12.67,97.177,0Zm10.29-8.225q-.35-3.535-.77-8.33t-.42-6.125v-1.4h6.51v1.4q0,1.365-.4,6.247t-.752,8.208ZM99.7,0V-5.18h5.985V0Z" transform="translate(953 319)"/><path class="a" d="M10.17,4.4v7.65L3.906,4.4H1.494V17h2.88V9.35L10.656,17H13.05V4.4Zm15.156,7.794a4.794,4.794,0,0,0-5.04-5.022,4.93,4.93,0,0,0-5.166,4.986c0,2.88,2.178,4.986,5.526,4.986a5.072,5.072,0,0,0,4-1.566l-1.494-1.62a3.283,3.283,0,0,1-2.43.936,2.582,2.582,0,0,1-2.772-1.944h7.326C25.29,12.716,25.326,12.41,25.326,12.194ZM20.3,9.3a2.3,2.3,0,0,1,2.376,2.016H17.91A2.293,2.293,0,0,1,20.3,9.3Zm19.782-1.98-2.358,6.552-2.3-6.552H33.048l-2.376,6.552L28.386,7.316H25.74L29.232,17h2.7l2.25-6.012L36.36,17h2.7l3.51-9.684ZM48.978,17h2.808V3.644H48.978ZM59,17.144a5,5,0,1,0,0-9.972,5,5,0,1,0,0,9.972Zm0-2.3a2.457,2.457,0,0,1-2.484-2.682,2.483,2.483,0,1,1,4.95,0A2.444,2.444,0,0,1,59,14.84ZM72.072,7.172a4.24,4.24,0,0,0-3.2,1.278V7.316H66.186V17h2.808V12.212c0-1.782.972-2.61,2.322-2.61,1.242,0,1.962.72,1.962,2.286V17h2.808V11.456C76.086,8.5,74.358,7.172,72.072,7.172Zm13.986.144V8.558a3.887,3.887,0,0,0-3.2-1.386,4.61,4.61,0,0,0-4.842,4.68,4.61,4.61,0,0,0,4.842,4.68,3.987,3.987,0,0,0,3.06-1.206v.414c0,1.746-.864,2.646-2.844,2.646a5.788,5.788,0,0,1-3.42-1.1L78.534,19.3a7.978,7.978,0,0,0,4.752,1.332c3.492,0,5.436-1.656,5.436-5.256V7.316Zm-2.646,6.912a2.381,2.381,0,1,1,2.538-2.376A2.367,2.367,0,0,1,83.412,14.228Zm17.406-2.034a4.794,4.794,0,0,0-5.04-5.022,4.93,4.93,0,0,0-5.166,4.986c0,2.88,2.178,4.986,5.526,4.986a5.072,5.072,0,0,0,4-1.566l-1.494-1.62a3.283,3.283,0,0,1-2.43.936,2.582,2.582,0,0,1-2.772-1.944h7.326C100.782,12.716,100.818,12.41,100.818,12.194ZM95.8,9.3a2.3,2.3,0,0,1,2.376,2.016H93.4A2.293,2.293,0,0,1,95.8,9.3Zm9.576-.7V7.316H102.69V17H105.5V12.428a2.379,2.379,0,0,1,2.574-2.7c.216,0,.4.018.63.036V7.172A3.908,3.908,0,0,0,105.372,8.594Zm16.056-1.422a4.256,4.256,0,0,0-3.078,1.152V3.644h-2.808V17h2.808V12.212c0-1.782.972-2.61,2.322-2.61,1.242,0,1.962.72,1.962,2.286V17h2.808V11.456C125.442,8.5,123.714,7.172,121.428,7.172ZM132.7,17.144a5,5,0,1,0-5.328-4.986A4.97,4.97,0,0,0,132.7,17.144Zm0-2.3a2.457,2.457,0,0,1-2.484-2.682,2.483,2.483,0,1,1,4.95,0A2.444,2.444,0,0,1,132.7,14.84Zm14.13-7.524V12.1c0,1.782-.936,2.61-2.232,2.61-1.242,0-1.962-.72-1.962-2.34V7.316h-2.808v5.472c0,2.988,1.71,4.356,4.14,4.356a3.918,3.918,0,0,0,3.006-1.3V17h2.664V7.316Zm8.1,1.278V7.316h-2.682V17h2.808V12.428a2.379,2.379,0,0,1,2.574-2.7c.216,0,.4.018.63.036V7.172A3.908,3.908,0,0,0,154.926,8.594Zm8.3,8.55c2.9,0,4.572-1.278,4.572-3.078,0-3.816-5.85-2.214-5.85-3.87,0-.5.54-.9,1.8-.9a5.561,5.561,0,0,1,2.79.72l.936-2a7.963,7.963,0,0,0-3.726-.846c-2.826,0-4.482,1.3-4.482,3.132,0,3.87,5.85,2.25,5.85,3.834,0,.54-.486.882-1.782.882a6.625,6.625,0,0,1-3.366-.936L159.03,16.1A8.313,8.313,0,0,0,163.224,17.144Z" transform="translate(623.5 374)"/><path class="b" d="M-142.632-1.8a2.176,2.176,0,0,1-1.35.45,1.406,1.406,0,0,1-1.494-1.6V-8.118h2.736V-9.54h-2.736v-2.088H-147.2V-9.54h-1.62v1.422h1.62V-2.88A2.722,2.722,0,0,0-144.18.108a3.26,3.26,0,0,0,2.088-.666Zm6.39,1.908a4.747,4.747,0,0,0,4.95-4.878,4.732,4.732,0,0,0-4.95-4.86,4.747,4.747,0,0,0-4.968,4.86A4.762,4.762,0,0,0-136.242.108Zm0-1.512a3.159,3.159,0,0,1-3.222-3.366,3.144,3.144,0,0,1,3.222-3.348,3.13,3.13,0,0,1,3.2,3.348A3.145,3.145,0,0,1-136.242-1.4ZM-121.32.108c2.538,0,4.122-1.1,4.122-2.826,0-3.708-6.048-1.872-6.048-4.122,0-.756.738-1.314,2.25-1.314a4.982,4.982,0,0,1,2.754.756l.738-1.368a6.942,6.942,0,0,0-3.474-.864c-2.448,0-3.978,1.152-3.978,2.862,0,3.8,6.03,1.944,6.03,4.086,0,.81-.666,1.3-2.268,1.3a6.13,6.13,0,0,1-3.348-.99l-.72,1.368A6.885,6.885,0,0,0-121.32.108Zm11.376-9.738a4.137,4.137,0,0,0-3.366,1.44v-5.166h-1.728V0h1.728V-4.914a2.833,2.833,0,0,1,3.024-3.168c1.638,0,2.574.918,2.574,2.79V0h1.728V-5.49C-105.984-8.3-107.622-9.63-109.944-9.63ZM-98.64.108A4.747,4.747,0,0,0-93.69-4.77a4.732,4.732,0,0,0-4.95-4.86,4.747,4.747,0,0,0-4.968,4.86A4.762,4.762,0,0,0-98.64.108Zm0-1.512a3.159,3.159,0,0,1-3.222-3.366A3.144,3.144,0,0,1-98.64-8.118a3.13,3.13,0,0,1,3.2,3.348A3.145,3.145,0,0,1-98.64-1.4Zm12.4-8.226a4.063,4.063,0,0,0-3.4,1.6V-9.54H-91.3V3.492h1.728V-1.44A4.074,4.074,0,0,0-86.238.108,4.635,4.635,0,0,0-81.414-4.77,4.63,4.63,0,0,0-86.238-9.63ZM-86.382-1.4a3.155,3.155,0,0,1-3.2-3.366,3.15,3.15,0,0,1,3.2-3.348A3.154,3.154,0,0,1-83.16-4.77,3.159,3.159,0,0,1-86.382-1.4ZM-70.092.108a4.747,4.747,0,0,0,4.95-4.878,4.732,4.732,0,0,0-4.95-4.86A4.747,4.747,0,0,0-75.06-4.77,4.762,4.762,0,0,0-70.092.108Zm0-1.512A3.159,3.159,0,0,1-73.314-4.77a3.144,3.144,0,0,1,3.222-3.348,3.13,3.13,0,0,1,3.2,3.348A3.145,3.145,0,0,1-70.092-1.4ZM-55.584-9.54v4.932c0,2.052-1.152,3.168-2.952,3.168-1.638,0-2.574-.936-2.574-2.808V-9.54h-1.728v5.49c0,2.808,1.638,4.158,4.1,4.158a3.882,3.882,0,0,0,3.24-1.548V0h1.638V-9.54Zm6.678,1.6v-1.6h-1.656V0h1.728V-4.752c0-2.088,1.152-3.222,3.006-3.222a3.051,3.051,0,0,1,.4.018V-9.63A3.641,3.641,0,0,0-48.906-7.938Zm11.43-3.438a1.131,1.131,0,0,0,1.17-1.152,1.12,1.12,0,0,0-1.17-1.1,1.138,1.138,0,0,0-1.17,1.134A1.123,1.123,0,0,0-37.476-11.376ZM-38.34,0h1.728V-9.54H-38.34Zm10.116-9.63A4.089,4.089,0,0,0-31.662-8.1V-9.54h-1.656V0h1.728V-4.914a2.833,2.833,0,0,1,3.024-3.168c1.638,0,2.574.918,2.574,2.79V0h1.728V-5.49C-24.264-8.3-25.9-9.63-28.224-9.63Zm6.552,5.436h4.842V-5.688h-4.842ZM-11.43.108c2.538,0,4.122-1.1,4.122-2.826,0-3.708-6.048-1.872-6.048-4.122,0-.756.738-1.314,2.25-1.314A4.982,4.982,0,0,1-8.352-7.4l.738-1.368a6.942,6.942,0,0,0-3.474-.864c-2.448,0-3.978,1.152-3.978,2.862,0,3.8,6.03,1.944,6.03,4.086,0,.81-.666,1.3-2.268,1.3a6.13,6.13,0,0,1-3.348-.99l-.72,1.368A6.885,6.885,0,0,0-11.43.108ZM-.324-1.8a2.176,2.176,0,0,1-1.35.45,1.406,1.406,0,0,1-1.494-1.6V-8.118H-.432V-9.54H-3.168v-2.088H-4.9V-9.54h-1.62v1.422H-4.9V-2.88A2.722,2.722,0,0,0-1.872.108,3.26,3.26,0,0,0,.216-.558ZM6.066.108a4.747,4.747,0,0,0,4.95-4.878,4.732,4.732,0,0,0-4.95-4.86A4.747,4.747,0,0,0,1.1-4.77,4.762,4.762,0,0,0,6.066.108Zm0-1.512A3.159,3.159,0,0,1,2.844-4.77,3.144,3.144,0,0,1,6.066-8.118,3.13,3.13,0,0,1,9.27-4.77,3.145,3.145,0,0,1,6.066-1.4Zm9-6.534v-1.6H13.41V0h1.728V-4.752c0-2.088,1.152-3.222,3.006-3.222a3.051,3.051,0,0,1,.4.018V-9.63A3.641,3.641,0,0,0,15.066-7.938ZM29.2-4.716A4.6,4.6,0,0,0,24.48-9.63a4.672,4.672,0,0,0-4.788,4.86A4.776,4.776,0,0,0,24.822.108,4.788,4.788,0,0,0,28.584-1.44L27.63-2.556A3.562,3.562,0,0,1,24.876-1.4a3.231,3.231,0,0,1-3.456-2.79h7.74C29.178-4.356,29.2-4.572,29.2-4.716ZM24.48-8.172a2.975,2.975,0,0,1,3.06,2.736H21.42A2.974,2.974,0,0,1,24.48-8.172ZM45.162-6.534a2.986,2.986,0,0,0,1.692-2.808c0-2.034-1.62-3.258-4.518-3.258H36.684V0H42.7c3.186,0,4.824-1.242,4.824-3.4A3.045,3.045,0,0,0,45.162-6.534Zm-2.988-4.608c1.836,0,2.88.684,2.88,2.016S44.01-7.11,42.174-7.11h-3.69v-4.032Zm.45,9.684h-4.14V-5.652h4.14c2,0,3.078.648,3.078,2.106S44.622-1.458,42.624-1.458ZM50.058,0h1.728V-13.356H50.058Zm8.5-9.63a6.353,6.353,0,0,0-3.942,1.224l.72,1.3a4.824,4.824,0,0,1,3.024-1.026c1.71,0,2.556.846,2.556,2.3v.342H58.176c-2.844,0-3.834,1.26-3.834,2.79,0,1.656,1.368,2.808,3.528,2.808A3.541,3.541,0,0,0,61-1.26V0H62.64V-5.76C62.64-8.37,61.164-9.63,58.554-9.63Zm-.4,8.406c-1.314,0-2.106-.594-2.106-1.548,0-.81.486-1.476,2.2-1.476h2.664v1.332A2.767,2.767,0,0,1,58.158-1.224ZM70.056.108a4.268,4.268,0,0,0,3.888-2.052L72.63-2.772A2.974,2.974,0,0,1,70.038-1.4,3.161,3.161,0,0,1,66.762-4.77a3.166,3.166,0,0,1,3.276-3.348A2.974,2.974,0,0,1,72.63-6.75L73.944-7.6A4.255,4.255,0,0,0,70.056-9.63a4.766,4.766,0,0,0-5.04,4.86A4.781,4.781,0,0,0,70.056.108ZM83.34,0h2.124l-4.41-5.6L85.068-9.54H82.98l-5.2,4.752v-8.568H76.05V0h1.728V-2.61l1.98-1.836Zm17.784-11.034V-12.6H92.232V0h1.8V-5.094h6.318V-6.642H94.032v-4.392Zm3.762,3.1v-1.6H103.23V0h1.728V-4.752c0-2.088,1.152-3.222,3.006-3.222a3.051,3.051,0,0,1,.4.018V-9.63A3.641,3.641,0,0,0,104.886-7.938Zm6.462-3.438a1.131,1.131,0,0,0,1.17-1.152,1.12,1.12,0,0,0-1.17-1.1,1.138,1.138,0,0,0-1.17,1.134A1.123,1.123,0,0,0,111.348-11.376ZM110.484,0h1.728V-9.54h-1.728Zm12.294-13.356V-8.1a4.059,4.059,0,0,0-3.33-1.53,4.63,4.63,0,0,0-4.824,4.86A4.645,4.645,0,0,0,119.448.108a4.031,4.031,0,0,0,3.4-1.62V0h1.656V-13.356ZM119.592-1.4A3.159,3.159,0,0,1,116.37-4.77a3.144,3.144,0,0,1,3.222-3.348,3.14,3.14,0,0,1,3.2,3.348A3.155,3.155,0,0,1,119.592-1.4ZM131.256-9.63a6.353,6.353,0,0,0-3.942,1.224l.72,1.3a4.824,4.824,0,0,1,3.024-1.026c1.71,0,2.556.846,2.556,2.3v.342h-2.736c-2.844,0-3.834,1.26-3.834,2.79,0,1.656,1.368,2.808,3.528,2.808A3.541,3.541,0,0,0,133.7-1.26V0h1.638V-5.76C135.342-8.37,133.866-9.63,131.256-9.63Zm-.4,8.406c-1.314,0-2.106-.594-2.106-1.548,0-.81.486-1.476,2.2-1.476h2.664v1.332A2.767,2.767,0,0,1,130.86-1.224ZM145.116-9.54l-3.294,7.632-3.33-7.632h-1.8L140.9-.018,140.6.648c-.468,1.1-.99,1.476-1.818,1.476a2.441,2.441,0,0,1-1.71-.7l-.738,1.3a3.582,3.582,0,0,0,2.448.882c1.458,0,2.556-.63,3.4-2.646L146.808-9.54ZM157.356.108a4.747,4.747,0,0,0,4.95-4.878,4.732,4.732,0,0,0-4.95-4.86,4.747,4.747,0,0,0-4.968,4.86A4.762,4.762,0,0,0,157.356.108Zm0-1.512a3.159,3.159,0,0,1-3.222-3.366,3.144,3.144,0,0,1,3.222-3.348,3.13,3.13,0,0,1,3.2,3.348A3.145,3.145,0,0,1,157.356-1.4Zm10.836-10.638a2.238,2.238,0,0,1,1.332.45l.522-1.314a3.223,3.223,0,0,0-1.944-.558,2.867,2.867,0,0,0-3.15,3.078v.846h-1.62v1.422h1.62V0h1.728V-8.118h2.736V-9.54h-2.772v-.828C166.644-11.466,167.166-12.042,168.192-12.042Zm6.354,0a2.238,2.238,0,0,1,1.332.45l.522-1.314a3.223,3.223,0,0,0-1.944-.558,2.867,2.867,0,0,0-3.15,3.078v.846h-1.62v1.422h1.62V0h1.728V-8.118h2.736V-9.54H173v-.828C173-11.466,173.52-12.042,174.546-12.042Zm11.34,7.326A4.6,4.6,0,0,0,181.17-9.63a4.672,4.672,0,0,0-4.788,4.86,4.776,4.776,0,0,0,5.13,4.878,4.788,4.788,0,0,0,3.762-1.548l-.954-1.116A3.562,3.562,0,0,1,181.566-1.4a3.231,3.231,0,0,1-3.456-2.79h7.74C185.868-4.356,185.886-4.572,185.886-4.716ZM181.17-8.172a2.975,2.975,0,0,1,3.06,2.736h-6.12A2.974,2.974,0,0,1,181.17-8.172Zm8.766.234v-1.6H188.28V0h1.728V-4.752c0-2.088,1.152-3.222,3.006-3.222a3.051,3.051,0,0,1,.4.018V-9.63A3.641,3.641,0,0,0,189.936-7.938ZM198.342.108c2.538,0,4.122-1.1,4.122-2.826,0-3.708-6.048-1.872-6.048-4.122,0-.756.738-1.314,2.25-1.314a4.982,4.982,0,0,1,2.754.756l.738-1.368a6.942,6.942,0,0,0-3.474-.864c-2.448,0-3.978,1.152-3.978,2.862,0,3.8,6.03,1.944,6.03,4.086,0,.81-.666,1.3-2.268,1.3a6.13,6.13,0,0,1-3.348-.99l-.72,1.368A6.885,6.885,0,0,0,198.342.108Zm20.5-10.368V-12.6h-9.522V0h2.916V-4.59h5.832V-6.93h-5.832v-3.33Zm3.006-.774a1.615,1.615,0,0,0,1.746-1.62,1.576,1.576,0,0,0-1.746-1.512A1.605,1.605,0,0,0,220.1-12.6,1.605,1.605,0,0,0,221.85-11.034ZM220.446,0h2.808V-9.684h-2.808Zm11.3-9.828a4.24,4.24,0,0,0-3.2,1.278V-9.684h-2.682V0h2.808V-4.788c0-1.782.972-2.61,2.322-2.61,1.242,0,1.962.72,1.962,2.286V0h2.808V-5.544C235.764-8.5,234.036-9.828,231.75-9.828Zm13.716-3.528v4.7a3.72,3.72,0,0,0-2.9-1.17,4.708,4.708,0,0,0-4.842,4.986A4.708,4.708,0,0,0,242.568.144a3.725,3.725,0,0,0,3.024-1.26V0h2.682V-13.356Zm-2.412,11.2a2.457,2.457,0,0,1-2.484-2.682,2.457,2.457,0,0,1,2.484-2.682,2.454,2.454,0,0,1,2.466,2.682A2.454,2.454,0,0,1,243.054-2.16Zm16.812-7.668a7.444,7.444,0,0,0-4.176,1.17L256.7-6.7a4.656,4.656,0,0,1,2.79-.9c1.512,0,2.232.7,2.232,1.908h-2.232c-2.952,0-4.158,1.188-4.158,2.9,0,1.674,1.35,2.934,3.618,2.934a3.178,3.178,0,0,0,2.952-1.35V0h2.628V-5.526C264.528-8.46,262.818-9.828,259.866-9.828Zm-.216,8.082c-.99,0-1.584-.468-1.584-1.17,0-.648.414-1.134,1.728-1.134h1.926v.99A2.069,2.069,0,0,1,259.65-1.746ZM275.418.144c2.9,0,4.572-1.278,4.572-3.078,0-3.816-5.85-2.214-5.85-3.87,0-.5.54-.9,1.8-.9a5.561,5.561,0,0,1,2.79.72l.936-2a7.963,7.963,0,0,0-3.726-.846c-2.826,0-4.482,1.3-4.482,3.132,0,3.87,5.85,2.25,5.85,3.834,0,.54-.486.882-1.782.882a6.626,6.626,0,0,1-3.366-.936L271.224-.9A8.313,8.313,0,0,0,275.418.144Zm11.79-2.592a1.892,1.892,0,0,1-1.134.36,1.129,1.129,0,0,1-1.206-1.278V-7.308h2.412v-2.16h-2.412v-2.358H282.06v2.358h-1.494v2.16h1.494V-3.33c0,2.3,1.332,3.474,3.618,3.474a4.013,4.013,0,0,0,2.286-.612ZM293.85.144a4.97,4.97,0,0,0,5.31-4.986,4.97,4.97,0,0,0-5.31-4.986,4.985,4.985,0,0,0-5.328,4.986A4.985,4.985,0,0,0,293.85.144Zm0-2.3a2.457,2.457,0,0,1-2.484-2.682,2.457,2.457,0,0,1,2.484-2.682,2.444,2.444,0,0,1,2.466,2.682A2.444,2.444,0,0,1,293.85-2.16Zm9.864-6.246V-9.684h-2.682V0h2.808V-4.572a2.379,2.379,0,0,1,2.574-2.7c.216,0,.4.018.63.036V-9.828A3.908,3.908,0,0,0,303.714-8.406Zm14.4,3.6a4.794,4.794,0,0,0-5.04-5.022,4.93,4.93,0,0,0-5.166,4.986c0,2.88,2.178,4.986,5.526,4.986a5.072,5.072,0,0,0,4-1.566l-1.494-1.62a3.283,3.283,0,0,1-2.43.936,2.582,2.582,0,0,1-2.772-1.944h7.326C318.078-4.284,318.114-4.59,318.114-4.806Zm-5.022-2.9a2.3,2.3,0,0,1,2.376,2.016H310.7A2.293,2.293,0,0,1,313.092-7.7ZM321.048.144a1.718,1.718,0,0,0,1.746-1.764,1.678,1.678,0,0,0-1.746-1.728A1.678,1.678,0,0,0,319.3-1.62,1.718,1.718,0,0,0,321.048.144ZM207.828,1H323.406V2H207.828Z" transform="translate(946.5 391)"/><path class="b" d="M-274.593,33V8.92h17.08v4.935H-268.5V18.37h9.31v4.935h-9.31v4.76h10.99V33Zm35.07,0-8.33-13.755h-.175V33h-5.81V8.92h6.265l7.735,12.5h.175V8.92h5.845V33Zm19.565-9.45V18.93h8.995V32.475q-1.82.35-4.182.578t-4.147.227a18.5,18.5,0,0,1-6.9-.962,5.454,5.454,0,0,1-3.08-3.5,26.964,26.964,0,0,1-.84-7.858,25.226,25.226,0,0,1,.857-7.542,5.989,5.989,0,0,1,3.132-3.675,16.18,16.18,0,0,1,6.79-1.1,42.008,42.008,0,0,1,5.145.315,26.09,26.09,0,0,1,3.115.49v4.62a52.316,52.316,0,0,0-6.02-.49,20.122,20.122,0,0,0-4.742.368,2.427,2.427,0,0,0-1.7,1.8,21.542,21.542,0,0,0-.42,5.215,26.7,26.7,0,0,0,.315,4.918,2.867,2.867,0,0,0,1.313,2.047,7.062,7.062,0,0,0,3.273.56q1.26,0,2.415-.1V23.55ZM-206.763,33V8.92h6.09v18.9h9.555V33Zm18.235,0V8.92h6.09V33Zm19.25.28a61.5,61.5,0,0,1-9.065-.595v-4.76q4.27.42,7.21.42a18.5,18.5,0,0,0,2.625-.14,2.752,2.752,0,0,0,1.295-.455,1.18,1.18,0,0,0,.438-.682,5.67,5.67,0,0,0,.087-1.138,4.04,4.04,0,0,0-.14-1.26.893.893,0,0,0-.56-.543,7.6,7.6,0,0,0-1.47-.3l-4.445-.56a7.512,7.512,0,0,1-3.623-1.208,4.536,4.536,0,0,1-1.68-2.4,13.093,13.093,0,0,1-.437-3.675,8.068,8.068,0,0,1,1.155-4.725,5.366,5.366,0,0,1,3.1-2.118,20.064,20.064,0,0,1,4.952-.507q2.205,0,4.042.175t4.008.56V14.03a65.323,65.323,0,0,0-6.825-.455,9.848,9.848,0,0,0-3.64.42,1,1,0,0,0-.577.595,3.744,3.744,0,0,0-.122,1.085,4.386,4.386,0,0,0,.122,1.243.838.838,0,0,0,.525.525,7.047,7.047,0,0,0,1.417.3l5.11.63a8.478,8.478,0,0,1,2.538.63,3.812,3.812,0,0,1,1.662,1.54,8.777,8.777,0,0,1,1.015,4.795,9.862,9.862,0,0,1-1.085,5.163,4.992,4.992,0,0,1-2.9,2.258A17.492,17.492,0,0,1-169.278,33.28Zm25.9-.28V23.55h-7.7V33h-6.09V8.92h6.09V18.3h7.7V8.92h6.09V33Zm27.37.28a61.5,61.5,0,0,1-9.065-.595v-4.76q4.27.42,7.21.42a18.5,18.5,0,0,0,2.625-.14,2.752,2.752,0,0,0,1.295-.455,1.18,1.18,0,0,0,.438-.682,5.671,5.671,0,0,0,.087-1.138,4.04,4.04,0,0,0-.14-1.26.893.893,0,0,0-.56-.543,7.6,7.6,0,0,0-1.47-.3l-4.445-.56a7.512,7.512,0,0,1-3.622-1.208,4.536,4.536,0,0,1-1.68-2.4,13.093,13.093,0,0,1-.437-3.675,8.068,8.068,0,0,1,1.155-4.725,5.366,5.366,0,0,1,3.1-2.118,20.064,20.064,0,0,1,4.952-.507q2.205,0,4.042.175t4.007.56V14.03a65.323,65.323,0,0,0-6.825-.455,9.848,9.848,0,0,0-3.64.42,1,1,0,0,0-.577.595,3.744,3.744,0,0,0-.123,1.085,4.385,4.385,0,0,0,.123,1.243.838.838,0,0,0,.525.525,7.047,7.047,0,0,0,1.417.3l5.11.63a8.478,8.478,0,0,1,2.537.63,3.812,3.812,0,0,1,1.662,1.54,8.777,8.777,0,0,1,1.015,4.795,9.861,9.861,0,0,1-1.085,5.163,4.992,4.992,0,0,1-2.9,2.258A17.492,17.492,0,0,1-116.008,33.28ZM-99.173,33V14.1h-6.65V8.92H-86.4V14.1h-6.685V33Zm24.99.28q-5.075,0-7.228-1.067A4.857,4.857,0,0,1-84.105,28.8a39.218,39.218,0,0,1-.542-7.84,39.218,39.218,0,0,1,.542-7.84A4.857,4.857,0,0,1-81.41,9.708q2.153-1.067,7.228-1.067t7.228,1.067a4.805,4.805,0,0,1,2.677,3.412,40.5,40.5,0,0,1,.525,7.84,40.5,40.5,0,0,1-.525,7.84,4.805,4.805,0,0,1-2.677,3.413Q-69.108,33.28-74.183,33.28Zm0-4.935a8.221,8.221,0,0,0,3.045-.367,2.074,2.074,0,0,0,.98-1.7,42.286,42.286,0,0,0,.21-5.32,42.286,42.286,0,0,0-.21-5.32,2.074,2.074,0,0,0-.98-1.7,8.221,8.221,0,0,0-3.045-.368,8.534,8.534,0,0,0-3.08.368,2.074,2.074,0,0,0-1.015,1.732,42.38,42.38,0,0,0-.21,5.285,42.38,42.38,0,0,0,.21,5.285,2.074,2.074,0,0,0,1.015,1.733A8.534,8.534,0,0,0-74.183,28.345ZM-46.5,33l-3.15-8.435h-4.235V33h-6.09V8.92h11.55a10.745,10.745,0,0,1,5.023.927A4.5,4.5,0,0,1-41.16,12.4a14.184,14.184,0,0,1,.542,4.358,13.293,13.293,0,0,1-.647,4.375,4.473,4.473,0,0,1-2.573,2.695l3.71,9.17Zm-4.235-13.265a11.747,11.747,0,0,0,2.678-.21,1.427,1.427,0,0,0,1.032-.788,5.45,5.45,0,0,0,.245-1.942,6.46,6.46,0,0,0-.21-1.978,1.322,1.322,0,0,0-1-.787,11.747,11.747,0,0,0-2.678-.21h-3.22v5.915ZM-36.908,33V8.92h17.08v4.935h-10.99V18.37h9.31v4.935h-9.31v4.76h10.99V33Zm29.645.28a61.5,61.5,0,0,1-9.065-.595v-4.76q4.27.42,7.21.42a18.5,18.5,0,0,0,2.625-.14,2.752,2.752,0,0,0,1.3-.455,1.18,1.18,0,0,0,.437-.682,5.67,5.67,0,0,0,.087-1.138,4.04,4.04,0,0,0-.14-1.26.893.893,0,0,0-.56-.543,7.6,7.6,0,0,0-1.47-.3l-4.445-.56a7.512,7.512,0,0,1-3.623-1.208,4.536,4.536,0,0,1-1.68-2.4,13.093,13.093,0,0,1-.437-3.675,8.068,8.068,0,0,1,1.155-4.725,5.366,5.366,0,0,1,3.1-2.118A20.064,20.064,0,0,1-7.823,8.64q2.205,0,4.043.175t4.007.56V14.03A65.323,65.323,0,0,0-6.6,13.575a9.848,9.848,0,0,0-3.64.42,1,1,0,0,0-.577.595,3.744,3.744,0,0,0-.123,1.085,4.385,4.385,0,0,0,.123,1.243.838.838,0,0,0,.525.525,7.047,7.047,0,0,0,1.418.3l5.11.63A8.478,8.478,0,0,1-1.225,19,3.812,3.812,0,0,1,.437,20.54a8.777,8.777,0,0,1,1.015,4.795A9.861,9.861,0,0,1,.367,30.5a4.992,4.992,0,0,1-2.9,2.258A17.492,17.492,0,0,1-7.263,33.28ZM28.227,33l-1.435-4.55H18.217L16.852,33h-6.09l7.7-24.08h8.26L34.422,33Zm-5.67-18.69h-.175l-2.765,9.2h5.74ZM50.032,33l-3.15-8.435H42.647V33h-6.09V8.92h11.55a10.745,10.745,0,0,1,5.023.927A4.5,4.5,0,0,1,55.37,12.4a14.184,14.184,0,0,1,.542,4.358,13.293,13.293,0,0,1-.647,4.375,4.473,4.473,0,0,1-2.573,2.695L56.4,33ZM45.8,19.735a11.747,11.747,0,0,0,2.678-.21,1.427,1.427,0,0,0,1.032-.788,5.45,5.45,0,0,0,.245-1.942,6.46,6.46,0,0,0-.21-1.978,1.322,1.322,0,0,0-1-.787,11.747,11.747,0,0,0-2.678-.21h-3.22v5.915ZM59.622,33V8.92H76.7v4.935H65.712V18.37h9.31v4.935h-9.31v4.76H76.7V33Zm43.19,0-8.33-13.755h-.175V33H88.5V8.92h6.265l7.735,12.5h.175V8.92h5.845V33Zm19.88.28q-5.075,0-7.228-1.067A4.857,4.857,0,0,1,112.77,28.8a39.218,39.218,0,0,1-.542-7.84,39.218,39.218,0,0,1,.542-7.84,4.857,4.857,0,0,1,2.695-3.412q2.153-1.067,7.228-1.067t7.227,1.067A4.805,4.805,0,0,1,132.6,13.12a40.5,40.5,0,0,1,.525,7.84,40.5,40.5,0,0,1-.525,7.84,4.805,4.805,0,0,1-2.678,3.413Q127.767,33.28,122.692,33.28Zm0-4.935a8.221,8.221,0,0,0,3.045-.367,2.074,2.074,0,0,0,.98-1.7,42.286,42.286,0,0,0,.21-5.32,42.286,42.286,0,0,0-.21-5.32,2.074,2.074,0,0,0-.98-1.7,8.221,8.221,0,0,0-3.045-.368,8.534,8.534,0,0,0-3.08.368,2.074,2.074,0,0,0-1.015,1.732,42.38,42.38,0,0,0-.21,5.285,42.38,42.38,0,0,0,.21,5.285,2.074,2.074,0,0,0,1.015,1.733A8.534,8.534,0,0,0,122.692,28.345ZM155.172,33l-3.6-14.455h-.21L147.752,33h-7.7l-5.53-24.08h6.09l3.6,16.87h.175l4.025-16.87h6.23l4.1,16.87h.21l3.36-16.87h6.055L162.837,33Zm32.69.28q-5.075,0-7.227-1.067a4.857,4.857,0,0,1-2.7-3.413,39.218,39.218,0,0,1-.542-7.84,39.218,39.218,0,0,1,.542-7.84,4.857,4.857,0,0,1,2.7-3.412q2.152-1.067,7.227-1.067t7.227,1.067a4.805,4.805,0,0,1,2.678,3.412,40.5,40.5,0,0,1,.525,7.84,40.5,40.5,0,0,1-.525,7.84,4.805,4.805,0,0,1-2.678,3.413Q192.937,33.28,187.862,33.28Zm0-4.935a8.222,8.222,0,0,0,3.045-.367,2.074,2.074,0,0,0,.98-1.7,42.287,42.287,0,0,0,.21-5.32,42.287,42.287,0,0,0-.21-5.32,2.074,2.074,0,0,0-.98-1.7,8.221,8.221,0,0,0-3.045-.368,8.534,8.534,0,0,0-3.08.368,2.074,2.074,0,0,0-1.015,1.732,42.38,42.38,0,0,0-.21,5.285,42.38,42.38,0,0,0,.21,5.285,2.074,2.074,0,0,0,1.015,1.733A8.534,8.534,0,0,0,187.862,28.345ZM202.072,8.92h11.445a9.97,9.97,0,0,1,4.865.945,4.59,4.59,0,0,1,2.188,2.66,15.672,15.672,0,0,1,.542,4.585,15.9,15.9,0,0,1-.508,4.41,4.7,4.7,0,0,1-2.17,2.73,9.576,9.576,0,0,1-4.917,1.015h-5.355V33h-6.09ZM211,20.4a10.9,10.9,0,0,0,2.66-.227,1.452,1.452,0,0,0,1.05-.875,6.844,6.844,0,0,0,.245-2.187,6.844,6.844,0,0,0-.245-2.187,1.445,1.445,0,0,0-1.033-.875A10.87,10.87,0,0,0,211,13.82h-2.835V20.4ZM224.122,33V8.92H241.2v4.935h-10.99V18.37h9.31v4.935h-9.31v4.76H241.2V33Zm35.07,0-8.33-13.755h-.175V33h-5.81V8.92h6.265l7.735,12.5h.175V8.92H264.9V33Zm9.73,0V27.82h5.985V33Z" transform="translate(953 319)"/></g></svg>