<svg enable-background="new 0 0 188 82" viewBox="0 0 188 82" xmlns="http://www.w3.org/2000/svg"><path d="m32 39h156v43h-156z" fill="#fff"/><path d="m34 41h152v39h-152z" fill="none" stroke="#161615" stroke-width="4"/><path d="m0 0h72v43h-72z" fill="#fff"/><path d="m2 2h68v39h-68z" fill="none" stroke="#161615" stroke-width="4"/><g fill="#161615" transform="translate(-89 -6310)"><g enable-background="new"><path d="m105.9 6339v-13h-4.6v-3.6h13.3v3.6h-4.6v13z"/><path d="m126.2 6339v-6.5h-5.3v6.5h-4.2v-16.5h4.2v6.4h5.3v-6.4h4.2v16.5z"/><path d="m133.9 6339v-16.5h11.7v3.4h-7.6v3.1h6.4v3.4h-6.4v3.3h7.5v3.4h-11.6z"/></g><g enable-background="new"><path d="m135.8 6378v-16.5h4.2v13h6.6v3.6h-10.8z"/><path d="m150.6 6377.5c-1-.5-1.6-1.3-1.8-2.3s-.4-2.9-.4-5.4.1-4.3.4-5.4.9-1.9 1.8-2.3 2.6-.7 5-.7c2.3 0 4 .2 5 .7s1.6 1.3 1.8 2.3c.2 1.1.4 2.9.4 5.4s-.1 4.3-.4 5.4c-.2 1.1-.9 1.9-1.8 2.3-1 .5-2.6.7-5 .7s-4-.3-5-.7zm7-2.9c.4-.2.6-.6.7-1.2s.1-1.8.1-3.6 0-3-.1-3.6-.3-1-.7-1.2-1-.3-2.1-.3c-1 0-1.7.1-2.1.3s-.6.6-.7 1.2-.1 1.8-.1 3.6 0 3 .1 3.6.3 1 .7 1.2 1.1.3 2.1.3c1.1-.1 1.8-.2 2.1-.3z"/><path d="m178.3 6378-2.5-9.9h-.1l-2.5 9.9h-5.3l-3.8-16.5h4.2l2.5 11.6h.1l2.8-11.6h4.3l2.8 11.6h.1l2.3-11.6h4.2l-3.8 16.5z"/><path d="m188.9 6361.5h5.8c2.4 0 4.2.2 5.2.7s1.7 1.3 1.9 2.3.4 2.8.4 5.2-.1 4.2-.4 5.2-.9 1.8-1.9 2.3-2.8.7-5.2.7h-5.8zm5.7 13.1c1.2 0 2.1-.1 2.5-.2.4-.2.7-.5.8-1.1s.2-1.8.2-3.5c0-1.8-.1-2.9-.2-3.5s-.4-1-.8-1.1c-.4-.2-1.2-.2-2.4-.2h-1.7v9.7h1.6z"/><path d="m207.1 6377.5c-1-.5-1.6-1.3-1.8-2.3s-.4-2.9-.4-5.4.1-4.3.4-5.4.9-1.9 1.8-2.3 2.6-.7 5-.7c2.3 0 4 .2 5 .7s1.6 1.3 1.8 2.3.4 2.9.4 5.4-.1 4.3-.4 5.4-.9 1.9-1.8 2.3-2.6.7-5 .7-4-.3-5-.7zm7-2.9c.4-.2.6-.6.7-1.2s.1-1.8.1-3.6 0-3-.1-3.6-.3-1-.7-1.2-1-.3-2.1-.3-1.7.1-2.1.3-.6.6-.7 1.2-.1 1.8-.1 3.6 0 3 .1 3.6.3 1 .7 1.2 1.1.3 2.1.3 1.8-.2 2.1-.3z"/><path d="m234.8 6378-2.5-9.9h-.1l-2.5 9.9h-5.3l-3.8-16.5h4.2l2.5 11.6h.1l2.8-11.6h4.3l2.8 11.6h.1l2.3-11.6h4.2l-3.8 16.5z"/><path d="m255.2 6378-5.7-9.4h-.1v9.4h-4v-16.5h4.3l5.3 8.6h.1v-8.6h4v16.5z"/></g></g></svg>