<?xml version="1.0" encoding="utf-8"?>
<!-- Generator: Adobe Illustrator 24.1.1, SVG Export Plug-In . SVG Version: 6.00 Build 0)  -->
<svg version="1.1" id="LOGO" xmlns="http://www.w3.org/2000/svg" xmlns:xlink="http://www.w3.org/1999/xlink" x="0px" y="0px"
	 viewBox="0 0 199.16 10.95" style="enable-background:new 0 0 199.16 10.95;" xml:space="preserve">
<style type="text/css">
	.st0{fill:#010202;}
</style>
<g>
	<g>
		<path class="st0" d="M9.01,1.46H5.28v9.4H3.73v-9.4H0V0.07h9.02v1.39H9.01z"/>
		<path class="st0" d="M20.48-0.07c3.56,0,5.81,2.53,5.81,5.54c0,2.91-2.18,5.54-5.84,5.54c-3.53,0-5.76-2.61-5.76-5.54
			C14.69,2.48,16.99-0.07,20.48-0.07z M20.48,9.59c2.42,0,4.21-1.76,4.21-4.11c0-2.37-1.79-4.11-4.21-4.11
			c-2.4,0-4.19,1.74-4.19,4.11C16.29,7.82,18.08,9.59,20.48,9.59z"/>
		<path class="st0" d="M43.62,10.86h-1.55v-8.4h-0.03l-3.32,4.18h-0.25l-3.32-4.18h-0.03v8.4h-1.55V0.07h1.46L38.6,4.5l3.59-4.43
			h1.44v10.79H43.62z"/>
		<path class="st0" d="M62.45,10.86H60.9v-8.4h-0.03l-3.32,4.18H57.3l-3.32-4.18h-0.03v8.4H52.4V0.07h1.46l3.58,4.43l3.59-4.43h1.44
			v10.79H62.45z"/>
		<path class="st0" d="M76.86,0.07h1.87l-4,5.09v5.69h-1.55V5.15l-4-5.08h1.87l2.89,3.72L76.86,0.07z"/>
		<path class="st0" d="M120.66,10.86h-1.55v-4.7h-6.04v4.7h-1.55V0.07h1.55v4.7h6.04v-4.7h1.55V10.86z"/>
		<path class="st0" d="M128.63,10.86h-1.55V0.07h1.55V10.86z"/>
		<path class="st0" d="M136.54,9.47h4.87v1.39h-6.42V0.07h1.55V9.47z"/>
		<path class="st0" d="M151.63,1.46h-4.21v2.99h4.21v1.39h-4.21v5.01h-1.55V0.07h5.76L151.63,1.46L151.63,1.46z"/>
		<path class="st0" d="M158.6,10.86h-1.55V0.07h1.55V10.86z"/>
		<path class="st0" d="M173.36,10.12c-1.44,0.63-2.61,0.89-4.11,0.89c-3.31,0-5.74-2.31-5.74-5.47c0-3.18,2.5-5.6,5.79-5.6
			c1.27,0,2.15,0.21,3.84,0.92v1.55c-1.26-0.7-2.58-1.06-3.88-1.06c-2.34,0-4.16,1.79-4.16,4.13c0,2.4,1.81,4.1,4.37,4.1
			c0.84,0,1.6-0.19,2.34-0.43V6.94h-2.07V5.55h3.62L173.36,10.12L173.36,10.12z"/>
		<path class="st0" d="M185.38,1.46h-4.57v3.26h4.41v1.39h-4.41v3.35h4.72v1.39h-6.27V0.07h6.12L185.38,1.46L185.38,1.46z"/>
		<path class="st0" d="M193.54,0.07c2.18,0,3.54,1.16,3.54,3.02c0,1.25-0.65,2.18-1.8,2.64c0.98,0.65,1.58,1.65,2.41,2.99
			c0.46,0.74,0.73,1.11,1.47,2.13h-1.85l-1.42-2.21c-1.42-2.21-2.07-2.47-2.86-2.47h-0.65v4.68h-1.55V0.07H193.54z M192.37,4.79h1
			c1.66,0,2.14-0.85,2.12-1.76c-0.02-1.01-0.62-1.63-2.12-1.63h-1V4.79z"/>
	</g>
</g>
<path class="st0" d="M86.13,0.01V10.8h16.45V0.01H86.13z M87.24,3.34h6.56v4.15h-6.56V3.34z M101.45,9.7H87.24V8.6h14.21V9.7z
	 M101.46,7.49h-6.55V3.35h6.55V7.49z M101.46,2.24H87.24V1.12h14.22V2.24z"/>
</svg>
