<svg xmlns="http://www.w3.org/2000/svg" viewBox="0 0 30 30"><defs><style>.cls-1{fill:#b2b2b2;}</style></defs><title>Twitter</title><g id="Layer_2" data-name="Layer 2"><g id="Layer_1-2" data-name="Layer 1"><path class="cls-1" d="M15,0A15,15,0,1,0,30,15,15,15,0,0,0,15,0Zm6.2,12.14c0,.13,0,.27,0,.4a8.71,8.71,0,0,1-8.65,8.87A8.49,8.49,0,0,1,7.9,20a5.85,5.85,0,0,0,.73,0,6,6,0,0,0,3.77-1.33,3.07,3.07,0,0,1-2.84-2.17,2.76,2.76,0,0,0,.57.06,3,3,0,0,0,.8-.11A3.1,3.1,0,0,1,8.5,13.44v0a2.93,2.93,0,0,0,1.37.38A3.13,3.13,0,0,1,8.52,11.2a3.19,3.19,0,0,1,.41-1.57,8.55,8.55,0,0,0,6.27,3.26,2.81,2.81,0,0,1-.08-.71,3.08,3.08,0,0,1,3-3.12,3,3,0,0,1,2.22,1,6,6,0,0,0,1.93-.76A3.14,3.14,0,0,1,21,11a6,6,0,0,0,1.74-.5A6.14,6.14,0,0,1,21.2,12.14Z"/></g></g></svg>