<?xml version="1.0" encoding="utf-8"?>
<!-- Generator: Adobe Illustrator 24.1.1, SVG Export Plug-In . SVG Version: 6.00 Build 0)  -->
<svg version="1.1" id="Layer_1" xmlns="http://www.w3.org/2000/svg" xmlns:xlink="http://www.w3.org/1999/xlink" x="0px" y="0px"
	 viewBox="0 0 264.16 150.96" style="enable-background:new 0 0 264.16 150.96;" xml:space="preserve">
<g>
	<path d="M132.31,135.19h-4.8c0,0-7.48,13.46-8.57,15.52v0.34h5.37c0.74-1.24,2.89-5.33,3.29-5.98c0.31,0.69,1.41,3.2,1.41,3.2h6.51
		l1.54,2.78h5.35v-0.53c-1.07-1.94-6.21-11.23-6.95-12.74C134.35,135.65,133.34,135.19,132.31,135.19z M133.12,144.58h-4.87
		c-0.23,0-0.34-0.06-0.23-0.23c0.17-0.36,2.38-4.36,2.61-4.76c0.04-0.12,0.19-0.12,0.25-0.02c0.21,0.42,2.32,4.43,2.49,4.78
		C133.45,144.52,133.39,144.58,133.12,144.58z"/>
	<path d="M163.97,140.18c0-5.12-2.76-5.1-4.65-5.1h-14.15c-0.61,0-1.31,0.38-1.31,1.37v13.98c0,0.57,0.65,0.53,0.42,0.53h4.17
		c0.21,0,0.78-0.09,0.78-0.66v-6.59c0,0,1.14,2.27,1.73,3.29h6.11c0.42,0,1.52-0.09,1.52,1.87c0,0.71-0.21,2.09,0.66,2.09h4.15
		c0.26,0,0.57,0.02,0.57-0.84c0-1.69,0.34-4.95-2.21-5.39C163.26,143.69,163.97,143.53,163.97,140.18z M155.61,142.79h-6.48v-2.84
		c0-0.32-0.04-0.68,1.01-0.68h6.3c2.19,0,2.32,0.27,2.32,1.92C158.75,142.01,158.75,142.79,155.61,142.79z"/>
	<path d="M107.94,140.18c0-5.12-2.76-5.1-4.65-5.1H89.14c-0.62,0-1.31,0.38-1.31,1.37v13.98c0,0.57,0.66,0.53,0.43,0.53h4.17
		c0.21,0,0.78-0.09,0.78-0.66v-6.59c0,0,1.14,2.27,1.73,3.29h6.11c0.42,0,1.52-0.09,1.52,1.87c0,0.71-0.21,2.09,0.66,2.09h4.15
		c0.26,0,0.57,0.02,0.57-0.84c0-1.69,0.34-4.95-2.21-5.39C107.23,143.69,107.94,143.53,107.94,140.18z M99.58,142.79H93.1v-2.84
		c0-0.32-0.04-0.68,1.01-0.68h6.3c2.19,0,2.32,0.27,2.32,1.92C102.73,142.01,102.73,142.79,99.58,142.79z"/>
	<path d="M84.7,135.19H71.77c-3.1,0-3.58,2.36-3.58,3.26v8.76c0,3.49,2.19,3.83,3.31,3.83h13.44c1.05,0,0.97-0.71,0.97-2
		c0-1.2,0.09-1.94-0.97-1.94H74.31c-0.25,0-1.12,0.19-1.12-0.78v-4.17l1.45,2.82h9.35c0.8,0,0.82-0.36,0.61-0.74
		c-0.15-0.42-1.46-2.91-1.46-2.91H74.1c-1.03,0-0.84-0.38-0.84-1.35s0.93-0.82,1.2-0.82h10.21c1.12,0,0.95-0.69,0.95-1.93
		C85.65,135.9,85.79,135.19,84.7,135.19z"/>
	<path d="M187.71,150.96h2.88c1.05,0,0.91-0.67,0.91-1.12v-13.61c0-0.46,0.1-1.16-0.91-1.16h-4.93c-0.82,0-1.85-0.17-3.01,2.19
		c-0.88,1.89-2.8,5.82-4.13,7.9c-1.28-2.08-3.16-6-4.04-7.9c-1.19-2.36-2.24-2.19-2.97-2.19h-4.95c-1.05,0-0.99,0.7-0.99,1.16v13.61
		c0,0.44-0.08,1.12,0.99,1.12h2.87c1,0,0.94-0.67,0.94-1.12v-9.89c1.98,3.58,4.91,9.03,5.96,11.01h4.4c1.09-1.98,4.01-7.43,6-11.01
		v9.89C186.74,150.29,186.65,150.96,187.71,150.96z"/>
	<path d="M220.73,135.06h-3.12c-1.07,0-1.03,0.67-1.03,1.18v8.36c0,1.77,0.1,6.36,6.13,6.36h7.73c6.05,0,6.15-4.59,6.15-6.36v-8.36
		c0-0.46,0.1-1.18-1.04-1.18h-3.14c-1.01,0-0.95,0.72-0.95,1.18v8.36c0,0.59-0.12,2.19-2.28,2.19h-5.22c-2.19,0-2.29-1.6-2.29-2.19
		v-8.36C221.67,135.78,221.73,135.06,220.73,135.06z"/>
	<path d="M4.14,135.06H1.03c-1.07,0-1.03,0.67-1.03,1.18v8.36c0,1.77,0.1,6.36,6.13,6.36h7.73c6.05,0,6.15-4.59,6.15-6.36v-8.36
		c0-0.46,0.1-1.18-1.04-1.18h-3.14c-1.01,0-0.95,0.72-0.95,1.18v8.36c0,0.59-0.13,2.19-2.28,2.19H7.38c-2.19,0-2.3-1.6-2.3-2.19
		v-8.36C5.09,135.78,5.15,135.06,4.14,135.06z"/>
	<path d="M57.05,7.11c-17.9,6.59-23.44,10.86-23.44,10.86c0.75,15.4,14.46,29.28,35.49,38.52c-21.01,9.24-34.72,23.11-35.47,38.5
		c0,0,5.54,4.28,23.44,10.86c15.72,5.78,27.72,7.11,27.72,7.11l-0.05-34.3c0-5.12,2.06-10.36,5.94-14.98
		c11.88,2.87,25.01,4.48,38.79,4.48h0.01c13.79,0,26.93-1.61,38.83-4.49c3.89,4.63,5.94,9.87,5.94,15l-0.05,34.3
		c0,0,11.99-1.33,27.72-7.11C219.82,99.28,225.36,95,225.36,95c-0.75-15.4-14.46-29.28-35.49-38.51c21-9.24,34.72-23.12,35.46-38.51
		c0,0-5.54-4.27-23.44-10.86C186.16,1.33,174.17,0,174.17,0l0.06,34.3c0,5.12-2.06,10.36-5.94,14.99
		c-11.88-2.87-25.01-4.48-38.79-4.48h-0.01c-13.79,0-26.93,1.61-38.83,4.49c-3.89-4.63-5.95-9.87-5.95-15L84.76,0
		C84.77,0,72.78,1.33,57.05,7.11z M129.1,48.78h0.39h0.02h0.39c12.44,0,22.58,3.05,30.01,7.7c-7.44,4.66-17.58,7.71-30.03,7.71
		l-0.39,0.01h-0.02l-0.39-0.01c-12.44,0-22.58-3.04-30.01-7.7C106.5,51.83,116.64,48.78,129.1,48.78z"/>
	<path d="M209.34,134.99h-10.43c-5.87,0.05-5.54,4.72-5.54,7.71c0,3.26-0.21,8.3,4.49,8.3h12.47c4.76,0,4.53-5.04,4.53-8.3
		C214.85,139.74,215.23,134.99,209.34,134.99z M209.59,142.81c0,1.65,0.09,4.11-2.3,4.11h-6.19c-2.38,0-2.24-2.46-2.24-4.11
		c0-1.47-0.36-3.79,2.71-3.79h5.25C209.92,139.02,209.59,141.34,209.59,142.81z"/>
	<path d="M28.53,135.06h-5.66c-0.97,0-0.93,0.72-0.93,1.18v13.61c0,0.44-0.13,1.12,0.93,1.12h2.9c1.06,0,0.95-0.67,0.95-1.12v-10.17
		c3.1,3.81,6.13,7.41,8.26,10.28c1.14,1.09,1.68,1.01,2.93,1.01h5.81v-14.72c0-0.46,0.06-1.18-0.95-1.18h-3.16
		c-1.05,0-0.99,0.72-0.99,1.18v10.07c-1.43-1.83-3.56-4.27-4.72-5.9C32.41,138.28,30.13,135.06,28.53,135.06z"/>
	<path d="M258.74,140.18c0-5.12-2.76-5.1-4.66-5.1h-14.15c-0.6,0-1.3,0.38-1.3,1.37v13.98c0,0.57,0.65,0.53,0.42,0.53h4.17
		c0.21,0,0.78-0.09,0.78-0.66v-6.59c0,0,1.14,2.27,1.73,3.29h6.11c0.42,0,1.52-0.09,1.52,1.87c0,0.71-0.21,2.09,0.66,2.09h4.15
		c0.26,0,0.57,0.02,0.57-0.84c0-1.69,0.34-4.95-2.21-5.39C258.02,143.69,258.74,143.53,258.74,140.18z M250.38,142.79h-6.49v-2.84
		c0-0.32-0.04-0.68,1.01-0.68h6.3c2.19,0,2.32,0.27,2.32,1.92C253.52,142.01,253.52,142.79,250.38,142.79z"/>
	<path d="M263.13,148.6c0-0.34-0.23-0.69-0.66-0.69h-0.91c-0.24,0-0.28,0.07-0.28,0.33v1.77c0,0.13,0,0.29,0.17,0.29
		c0.1,0,0.28-0.01,0.28-0.23v-0.79h0.31c0.18,0.26,0.35,0.59,0.61,0.97c0.06,0.07,0.51,0,0.34-0.3c-0.11-0.2-0.28-0.51-0.39-0.72
		C262.97,149.24,263.13,148.97,263.13,148.6z M262.64,148.57c0,0.13-0.05,0.21-0.35,0.21h-0.57v-0.51h0.57c0.3,0,0.35,0.1,0.35,0.27
		V148.57z"/>
	<path d="M262.09,146.99c-1.04,0-2.05,0.91-2.05,2.04c0,1.13,0.87,2.1,2,2.1c1.18,0,2.12-0.97,2.12-2.1
		C264.16,147.9,263.26,146.99,262.09,146.99z M262.09,150.63c-0.91,0-1.61-0.69-1.61-1.59c0-0.82,0.76-1.55,1.56-1.55
		c0.95,0,1.63,0.66,1.63,1.55C263.67,149.94,263.01,150.63,262.09,150.63z"/>
	<path d="M45.63,135.08v15.88h4.95v-3.33l1.64,3.33h7.56c7.16,0,6.48-3.77,6.48-9.95c0-6.04-5.75-5.94-6.61-5.94L45.63,135.08
		L45.63,135.08z M61.28,143.21c0,1.11,0.19,3.56-2.36,3.56h-8.38v-7.46h8.01C60.23,139.31,61.28,139.46,61.28,143.21z"/>
</g>
</svg>
