<svg xmlns="http://www.w3.org/2000/svg" viewBox="0 0 15 18.33"><title>Useful Info</title><g id="Layer_2" data-name="Layer 2"><g id="Layer_1-2" data-name="Layer 1"><path d="M14.94,5.52h0a1.27,1.27,0,0,0-.18-.27l-5-5A.87.87,0,0,0,9.17,0H2.5A2.5,2.5,0,0,0,0,2.5V15.83a2.5,2.5,0,0,0,2.5,2.5h10a2.5,2.5,0,0,0,2.5-2.5v-10A.78.78,0,0,0,14.94,5.52ZM10,2.85,12.15,5H10Zm3.33,13a.84.84,0,0,1-.83.84H2.5a.84.84,0,0,1-.83-.84V2.5a.83.83,0,0,1,.83-.83H8.33V5.83a.85.85,0,0,0,.84.84h4.16Zm-1.66-2.5a.85.85,0,0,1-.84.84H4.17a.85.85,0,0,1-.84-.84.84.84,0,0,1,.84-.83h6.66A.84.84,0,0,1,11.67,13.33ZM3.33,6.67a.85.85,0,0,1,.84-.84H5.83a.85.85,0,0,1,.84.84.84.84,0,0,1-.84.83H4.17A.84.84,0,0,1,3.33,6.67Zm.84,2.5h6.66a.83.83,0,1,1,0,1.66H4.17a.83.83,0,1,1,0-1.66Z"/></g></g></svg>