<svg xmlns="http://www.w3.org/2000/svg" viewBox="0 0 30 30"><defs><style>.cls-1{fill:#b2b2b2;}</style></defs><title>YouTube</title><g id="Layer_2" data-name="Layer 2"><g id="Layer_1-2" data-name="Layer 1"><path class="cls-1" d="M15,0A15,15,0,1,0,30,15,15,15,0,0,0,15,0Zm8.14,15.66A25.52,25.52,0,0,1,23,18.32a4.86,4.86,0,0,1-.26,1,1.82,1.82,0,0,1-.39.65,2.3,2.3,0,0,1-1.63.7c-2.28.17-5.7.17-5.7.17s-4.23,0-5.54-.16a4.49,4.49,0,0,1-1.14-.26,1.78,1.78,0,0,1-.65-.45A3.51,3.51,0,0,1,7,18.32a25.52,25.52,0,0,1-.16-2.66V14.42A25.52,25.52,0,0,1,7,11.76a3.51,3.51,0,0,1,.65-1.62,1.81,1.81,0,0,1,.65-.47,3,3,0,0,1,1-.23c2.28-.16,5.7-.16,5.7-.16h0s3.42,0,5.7.16a2.3,2.3,0,0,1,1.63.7,1.82,1.82,0,0,1,.39.65,4.86,4.86,0,0,1,.26,1,25.52,25.52,0,0,1,.16,2.66Zm-9.82-3.1,4.4,2.31-4.4,2.3Z"/></g></g></svg>