<?xml version="1.0" encoding="utf-8"?>
<!-- Generator: Adobe Illustrator 24.2.1, SVG Export Plug-In . SVG Version: 6.00 Build 0)  -->
<svg version="1.1" id="Layer_1" xmlns="http://www.w3.org/2000/svg" xmlns:xlink="http://www.w3.org/1999/xlink" x="0px" y="0px"
	 viewBox="0 0 102.7 90.2" style="enable-background:new 0 0 102.7 90.2;" xml:space="preserve">
<style type="text/css">
	.st0{fill:#FFFFFF;}
	.st1{clip-path:url(#SVGID_2_);}
</style>
<g>
	<g>
		<path d="M95.7,55.2c-0.7,1.4-2.8,2.6-4.7,3.7c-0.7,0.4-1.4,0.8-2,1.2c-1.7,1.1-21.8,10.7-34,16.5l-0.1,0l-0.1,0.1
			c-0.2,0.1-1.6,0.8-3.4,0.8c-1.9,0-3.3-0.7-3.4-0.8l-0.1,0l-0.1-0.1c-12.3-5.8-32.3-15.4-34-16.5c-0.6-0.4-1.3-0.8-2-1.2
			c-1.9-1.1-4-2.3-4.7-3.7c-0.4-0.7-0.8-3.2,0.3-7.4C9,41.1,13.5,34,16.9,29.3c2.5-3.5,5.8-6.5,9.6-9c3.2-2,6.8-3.7,10.7-5
			c7.8-2.5,14.1-2.6,14.1-2.6c0.1,0,6.4,0,14.1,2.6c3.9,1.3,7.5,3,10.7,5c3.8,2.5,7.1,5.5,9.6,9c3.5,4.7,7.9,11.8,9.7,18.6
			C96.5,52,96.1,54.5,95.7,55.2z"/>
		<g>
			<path class="st0" d="M97.3,56c0.7-1.3,1-4.3-0.1-8.7c-0.7-2.6-1.7-5.4-3.2-8.3c-1.7-3.4-4-7.1-6.8-10.9
				c-2.7-3.7-6.1-6.8-10.1-9.4c-3.3-2.1-7-3.9-11.1-5.2C58,11,51.6,10.9,51.4,10.9c-0.3,0-6.6,0-14.7,2.7c-4.1,1.3-7.8,3.1-11.1,5.2
				c-4,2.6-7.4,5.8-10.1,9.4c-2.8,3.8-5,7.4-6.8,10.9c-1.5,2.9-2.5,5.7-3.2,8.3c-1.1,4.4-0.8,7.3-0.1,8.7c1,1.9,3.3,3.3,5.4,4.4
				c0.7,0.4,1.3,0.8,1.9,1.1c1.9,1.2,23.2,11.4,34.2,16.6l0,0l0,0c0,0,1.8,1,4.3,1c2.5,0,4.3-1,4.3-1l0,0l0,0
				C66.8,73,88.1,62.8,90,61.6c0.6-0.4,1.2-0.8,1.9-1.1C94,59.3,96.4,57.9,97.3,56z M95.7,55.2c-0.7,1.4-2.8,2.6-4.7,3.7
				c-0.7,0.4-1.4,0.8-2,1.2c-1.7,1.1-21.8,10.7-34,16.5l-0.1,0l-0.1,0.1c-0.2,0.1-1.6,0.8-3.4,0.8c-1.9,0-3.3-0.7-3.4-0.8l-0.1,0
				l-0.1-0.1c-12.3-5.8-32.3-15.4-34-16.5c-0.6-0.4-1.3-0.8-2-1.2c-1.9-1.1-4-2.3-4.7-3.7c-0.4-0.7-0.8-3.2,0.3-7.4
				C9,41.1,13.5,34,16.9,29.3c2.5-3.5,5.8-6.5,9.6-9c3.2-2,6.8-3.7,10.7-5c7.8-2.5,14.1-2.6,14.1-2.6c0.1,0,6.4,0,14.1,2.6
				c3.9,1.3,7.5,3,10.7,5c3.8,2.5,7.1,5.5,9.6,9c3.5,4.7,7.9,11.8,9.7,18.6C96.5,52,96.1,54.5,95.7,55.2z"/>
		</g>
		<g>
			<defs>
				<path id="SVGID_1_" d="M51.4,30c0,0-8-0.5-16.2,4.4c0,0,0.1,10.4,4.4,17c4.6,7.1,11.9,9.8,11.9,9.8s7.3-2.7,11.9-9.8
					c4.3-6.6,4.4-17,4.4-17C59.3,29.4,51.4,30,51.4,30z"/>
			</defs>
			<clipPath id="SVGID_2_">
				<use xlink:href="#SVGID_1_"  style="overflow:visible;"/>
			</clipPath>
			<g class="st1">
				<rect x="28.7" y="27.9" transform="matrix(-1 -1.224647e-16 1.224647e-16 -1 102.7 90.8791)" width="45.3" height="35.2"/>
			</g>
			<g class="st1">
				<rect x="41.2" y="27.9" class="st0" width="20.3" height="35.2"/>
			</g>
			<g class="st1">
				<g>
					<path d="M51,54.3c0-0.4,0-0.7,0-1.1c0-0.3,0-0.5,0-0.8c0-0.4,0-0.8,0.1-1.2c0-0.3,0-0.6,0-1c0-0.1,0-0.3,0-0.4
						c0-0.2-0.2-0.4-0.3-0.4c-0.1,0-0.1,0-0.2,0c-0.3,0-0.6,0.1-0.9,0.1c-0.3,0-0.6,0.1-0.9,0.1c-0.4,0.1-0.7,0.1-1.1,0.2
						c-0.3,0-0.6,0.1-1,0.1c-0.1,0-0.2,0-0.3,0c0,0,0,0,0-0.1c0.1-0.4,0.2-0.7,0.3-1.1c0.1-0.2,0-0.5-0.2-0.6
						c-0.9-0.8-1.9-1.5-2.8-2.3c-0.5-0.4-0.9-0.7-1.4-1.1c0,0,0,0,0,0c0,0,0,0,0,0c0.3-0.1,0.6-0.3,0.9-0.4c0.2-0.1,0.2-0.2,0.2-0.4
						c-0.1-0.5-0.3-1.1-0.4-1.6c-0.1-0.4-0.2-0.8-0.3-1.1c0-0.1,0-0.1,0-0.1c0,0,0,0,0,0c0.8,0.2,1.6,0.3,2.4,0.5
						c0.2,0,0.4-0.1,0.5-0.3c0.1-0.4,0.2-0.7,0.3-1.1c0,0,0,0,0,0c0.6,0.7,1.3,1.4,1.9,2.2c0.1,0.1,0.2,0.2,0.4,0.2
						c0.1,0,0.2-0.1,0.3-0.2c0.1-0.1,0.1-0.2,0-0.3c0-0.3-0.1-0.5-0.1-0.8c-0.1-0.6-0.2-1.1-0.3-1.7c-0.1-0.6-0.2-1.2-0.3-1.7
						c0-0.1,0-0.2-0.1-0.4c0,0,0,0,0,0c0.4,0.2,0.7,0.4,1.1,0.6c0.1,0.1,0.2,0.1,0.3,0.1c0.2,0,0.3,0,0.4-0.2
						c0.1-0.1,0.1-0.2,0.1-0.2s1.3-2.5,1.4-2.7c0,0,0,0,0,0c0.5,0.9,1,1.9,1.5,2.8c0.1,0.1,0.2,0.2,0.3,0.3c0.1,0,0.2,0,0.3,0
						c0.1,0,0.1,0,0.2-0.1c0.4-0.2,0.7-0.4,1.1-0.6c0,0,0,0,0,0c0,0.1,0,0.2-0.1,0.3c-0.1,0.6-0.2,1.2-0.3,1.8
						c-0.1,0.6-0.2,1.2-0.3,1.7c0,0.2-0.1,0.5-0.1,0.7c0,0.1,0,0.1,0,0.2c0,0.2,0.2,0.3,0.4,0.3c0.1,0,0.2-0.1,0.3-0.2
						c0.6-0.7,1.3-1.4,1.9-2.2c0,0,0,0,0,0c0,0.1,0.1,0.3,0.1,0.4c0.1,0.2,0.1,0.5,0.2,0.7c0.1,0.2,0.3,0.3,0.5,0.3
						c0.8-0.2,1.6-0.3,2.4-0.5c0,0,0,0,0,0c0,0,0,0,0,0c-0.2,0.8-0.5,1.7-0.7,2.5c0,0.1-0.1,0.2-0.1,0.3c0,0.1,0.1,0.2,0.2,0.3
						c0.3,0.1,0.6,0.3,0.9,0.4c0,0,0,0,0.1,0c0,0,0,0,0,0c-1.4,1.1-2.8,2.3-4.2,3.4c-0.2,0.1-0.3,0.4-0.2,0.7
						c0.1,0.4,0.2,0.7,0.3,1.1c0,0,0,0,0,0.1c-0.1,0-0.2,0-0.3,0c-0.3,0-0.6-0.1-0.9-0.1c-0.3,0-0.7-0.1-1-0.1
						c-0.3-0.1-0.7-0.1-1-0.1c-0.3,0-0.6-0.1-1-0.1c-0.1,0-0.1,0-0.1,0c-0.1,0.1-0.2,0.2-0.2,0.4c0,0.6,0,1.3,0,1.9
						c0,0.8,0,1.5,0.1,2.3c0,0.1,0,0.1,0,0.2C51.4,54.3,51.2,54.3,51,54.3z"/>
				</g>
			</g>
		</g>
		<g>
			<path class="st0" d="M51.3,61.9l-0.3-0.1c-0.3-0.1-7.5-2.9-12.2-10.1c-4.4-6.7-4.5-16.9-4.5-17.4l0-0.4l0.4-0.2
				c8.1-4.8,15.8-4.5,16.6-4.5c0.7,0,8.5-0.3,16.6,4.5l0.4,0.2l0,0.4c0,0.4-0.1,10.7-4.5,17.4c-4.7,7.2-11.9,10-12.2,10.1L51.3,61.9
				z M35.9,34.8c0.1,2,0.6,10.6,4.2,16.2c4,6.1,10,8.9,11.3,9.4c1.3-0.6,7.3-3.4,11.3-9.4c3.7-5.6,4.2-14.2,4.2-16.2
				c-7.9-4.5-15.4-4.1-15.4-4.1l0,0l0,0C51.2,30.7,43.7,30.3,35.9,34.8z"/>
		</g>
		<g>
			<path class="st0" d="M47.4,72.7l-3.8-8.1l0,0l0.1,6.3l-2.2-1.1v-9.5l2.6,1.3l3.8,8l0,0l-0.1-6.2l2.2,1.1v9.5L47.4,72.7z"/>
		</g>
		<g>
			<path class="st0" d="M37.1,67.8l-0.7-2.2l-3.7-1.8L32,65.4l-2.5-1.2l4-7.6l2.2,1.1l4,11.4L37.1,67.8z M34.5,59.6l-1.2,2.7
				l2.4,1.1L34.5,59.6z"/>
		</g>
		<g>
			<path class="st0" d="M71.9,59.5c0,0.8-0.2,1.6-0.5,2.4c-0.3,0.8-0.7,1.4-1.2,2.1c-0.5,0.6-1.1,1.2-1.7,1.7
				c-0.6,0.5-1.3,0.9-1.9,1.2L63,68.6v-9.5l3.4-1.7c0.7-0.3,1.3-0.6,2-0.7c0.7-0.2,1.2-0.2,1.7-0.1c0.5,0.1,0.9,0.4,1.2,0.9
				C71.8,57.9,71.9,58.6,71.9,59.5z M69.5,60.7c0-0.5-0.1-0.9-0.3-1.2c-0.2-0.3-0.4-0.4-0.7-0.5c-0.3-0.1-0.6-0.1-1,0
				c-0.4,0.1-0.8,0.2-1.1,0.4l-1.1,0.6v5.6l1.1-0.5c0.4-0.2,0.8-0.4,1.2-0.7c0.4-0.3,0.7-0.6,1-0.9c0.3-0.4,0.5-0.8,0.7-1.2
				C69.5,61.7,69.5,61.2,69.5,60.7z"/>
		</g>
		<g>
			<path class="st0" d="M27.3,62.7c-0.6,0.1-1.3,0-2.1-0.3c-0.7-0.3-1.4-0.6-2-1.1c-0.6-0.5-1.2-1-1.6-1.6c-0.5-0.6-0.8-1.3-1.1-2
				C20.2,57,20,56.3,20,55.6c0-0.8,0.1-1.4,0.4-1.9c0.3-0.5,0.6-0.9,1.1-1.2c0.5-0.3,1-0.4,1.6-0.4c0.6,0,1.3,0.1,2,0.4
				c0.7,0.2,1.3,0.6,2,1c0.6,0.5,1.2,1,1.6,1.6l-1.6,1c-0.2-0.4-0.5-0.7-0.8-1c-0.3-0.3-0.7-0.5-1.1-0.6c-0.4-0.1-0.8-0.2-1.1-0.2
				c-0.3,0-0.6,0.1-0.9,0.3c-0.2,0.2-0.4,0.4-0.6,0.7c-0.1,0.3-0.2,0.7-0.2,1.1c0,0.4,0.1,0.8,0.2,1.3c0.1,0.4,0.3,0.8,0.6,1.1
				c0.2,0.3,0.5,0.6,0.9,0.9c0.3,0.3,0.7,0.5,1.1,0.6c0.5,0.2,0.9,0.2,1.2,0.1c0.3-0.1,0.6-0.2,0.8-0.4l1.6,2.1
				C28.4,62.4,27.9,62.6,27.3,62.7z"/>
		</g>
		<g>
			<path class="st0" d="M59.2,70.4l-0.7-1.5l-3.7,1.8l-0.7,2.2L51.6,74l4-11.4l2.2-1.1l4,7.6L59.2,70.4z M56.7,64.6l-1.2,3.8
				l2.4-1.1L56.7,64.6z"/>
		</g>
		<g>
			<g>
				<path class="st0" d="M80.1,60.5L79.4,59l-3.7,1.8L75,62.9l-2.5,1.2l4-11.4l2.2-1.1l4,7.6L80.1,60.5z M77.6,54.7l-1.2,3.8
					l2.4-1.1L77.6,54.7z"/>
			</g>
		</g>
	</g>
	<g>
		<path class="st0" d="M28.4,35.4l-1.3-1.5l-0.1-7l-3.3,2.8l-1.2-1.4l5.5-4.6l1.2,1.4l0.1,7.2l3.5-3l1.3,1.5L28.4,35.4z"/>
		<path class="st0" d="M41.9,27.4L40.5,26l-3.4,1.2l0,2L34.9,30l0.5-10.1l2-0.8l6.8,7.4L41.9,27.4z M37.1,21.9l0,3.4l2.2-0.8
			L37.1,21.9z"/>
		<path class="st0" d="M48.1,26.1l-2.2,0.3l-4.6-8.8l2.5-0.3l3,6.3l0.1,0l1.3-6.8l2.5-0.3L48.1,26.1z"/>
		<path class="st0" d="M51.5,25.9l1-9.3l6.2,0.6l-0.2,1.9l-4.1-0.4l-0.2,1.8l3.8,0.4l-0.2,1.8l-3.8-0.4l-0.2,1.9l4.3,0.4L58,26.5
			L51.5,25.9z"/>
		<path class="st0" d="M64.9,20.8l-2.3,7l-2.1-0.7l2.3-7l-2.5-0.8l0.6-1.8l7.2,2.3l-0.6,1.8L64.9,20.8z"/>
		<path class="st0" d="M72.8,24.8L68.9,31L67,29.8l3.9-6.3l-2.2-1.4l1-1.6l6.4,4l-1,1.6L72.8,24.8z"/>
		<path class="st0" d="M71.1,32.7l6.6-6.5l1.6,1.6l-6.6,6.5L71.1,32.7z"/>
	</g>
</g>
</svg>
