<?xml version="1.0" encoding="utf-8"?>
<!-- Generator: Adobe Illustrator 24.0.1, SVG Export Plug-In . SVG Version: 6.00 Build 0)  -->
<svg version="1.1" id="Layer_1" xmlns="http://www.w3.org/2000/svg" xmlns:xlink="http://www.w3.org/1999/xlink" x="0px" y="0px"
	 viewBox="0 0 300 230" style="enable-background:new 0 0 300 230;" xml:space="preserve">
<style type="text/css">
	.st0{fill:#FFFFFF;}
	.st1{clip-path:url(#SVGID_2_);}
	.st2{clip-path:url(#SVGID_4_);}
	.st3{clip-path:url(#SVGID_6_);}
	.st4{fill:none;stroke:#000000;stroke-width:5.0188;stroke-miterlimit:10;}
</style>
<path class="st0" d="M265.7,59.8C228,8.2,150,4,150,4S72,8.2,34.3,59.8c-37.7,51.7-36.6,82.1-32.1,91.1s16.6,13.9,24.3,18.9
	c7.6,4.9,108.3,52.6,108.3,52.6s6.3,3.6,15.3,3.6s15.3-3.6,15.3-3.6s100.6-47.6,108.3-52.6c7.6-4.9,19.8-9.9,24.3-18.9
	C302.3,141.9,303.4,111.5,265.7,59.8z"/>
<g>
	<path d="M150,14.1c0.2,0,19.9,0.1,44.2,8c27.4,8.9,48.7,23.6,63.4,43.6c10.8,14.8,24.9,36.9,30.2,58.1c4.1,16.1,1,22.5,1,22.6
		c-2.1,4.2-8.6,7.9-14.3,11.1c-2.3,1.3-4.4,2.5-6.4,3.8c-5.5,3.5-68.6,33.7-107.1,51.9l-0.2,0.1l-0.4,0.2c-0.5,0.3-4.7,2.3-10.4,2.3
		c-5.6,0-9.8-2-10.4-2.3l-0.2-0.1l-0.5-0.2C100.4,195,37.3,164.8,31.8,161.3c-2-1.3-4.2-2.5-6.4-3.8c-5.7-3.3-12.2-7-14.3-11.1
		c0-0.1-3.1-6.5,1-22.6c5.4-21.2,19.4-43.3,30.2-58.1c14.6-20,36-34.7,63.4-43.6C130.1,14.2,149.8,14.1,150,14.1 M150,4
		c-9.7,0-78,4.1-115.7,55.8s-36.6,82.1-32.1,91.1s16.6,13.9,24.3,18.9c7.6,4.9,108.3,52.6,108.3,52.6s6.3,3.6,15.3,3.6
		s15.3-3.6,15.3-3.6s100.6-47.6,108.3-52.6c7.6-4.9,19.8-9.9,24.3-18.9s5.7-39.4-32.1-91.1C228,8.2,159.7,4,150,4L150,4z"/>
	<path d="M72.1,90.6L67.8,86l-2-22.6l-10,9.7l-4.2-4.4l16.5-16l4,4.2l2,23l10.7-10.4l4.4,4.5L72.1,90.6z"/>
	<path d="M116.3,59.8l-4.5-4.4l-10.6,4.8l0.4,6.3l-7.2,3.2l-0.8-32.5l6.4-2.9l23.6,22.3L116.3,59.8z M99.9,43.1l0.7,11l6.9-3.1
		L99.9,43.1z"/>
	<path d="M138.6,54.7l-7.2,0.9l-15.1-28.3l8.1-1l9.6,20.2h0.2l4.2-22l7.9-1L138.6,54.7z"/>
	<path d="M151,54.2l3.3-29.8l20,2.2l-0.7,6.1l-13.1-1.4l-0.6,5.6l12.4,1.4l-0.6,5.8l-12.4-1.4l-0.7,6.2l13.9,1.5l-0.7,6.1L151,54.2z
		"/>
	<path d="M197.6,40.4l-8.7,22.2l-6.8-2.6l8.7-22.2l-7.9-3.1l2.2-5.8l22.5,8.8l-2.2,5.8L197.6,40.4z"/>
	<path d="M225.4,56.8L211.2,76l-5.8-4.3l14.1-19.2l-6.8-5l3.7-5l19.5,14.4l-3.7,5L225.4,56.8z"/>
	<path d="M221.3,85.2l22.5-19.9l4.8,5.5l-22.5,19.9L221.3,85.2z"/>
</g>
<g>
	<defs>
		<path id="SVGID_1_" d="M150,67.7c0,0-25.1-1.7-51.1,13.9c0,0,0.2,32.7,13.7,53.5C127.1,157.4,150,166,150,166s22.9-8.6,37.4-30.9
			c13.5-20.7,13.7-53.5,13.7-53.5C175.1,66,150,67.7,150,67.7z"/>
	</defs>
	<clipPath id="SVGID_2_">
		<use xlink:href="#SVGID_1_"  style="overflow:visible;"/>
	</clipPath>
	<g class="st1">
		<path d="M221.4,171.9H78.6V61.1h142.8L221.4,171.9z"/>
	</g>
</g>
<g>
	<defs>
		<path id="SVGID_3_" d="M150,67.7c0,0-25.1-1.7-51.1,13.9c0,0,0.2,32.7,13.7,53.5C127.1,157.4,150,166,150,166s22.9-8.6,37.4-30.9
			c13.5-20.7,13.7-53.5,13.7-53.5C175.1,66,150,67.7,150,67.7z"/>
	</defs>
	<clipPath id="SVGID_4_">
		<use xlink:href="#SVGID_3_"  style="overflow:visible;"/>
	</clipPath>
	<g class="st2">
		<path class="st0" d="M118.2,61h63.9v110.8h-63.9L118.2,61z"/>
	</g>
</g>
<g>
	<defs>
		<path id="SVGID_5_" d="M150,67.7c0,0-25.1-1.7-51.1,13.9c0,0,0.2,32.7,13.7,53.5C127.1,157.4,150,166,150,166s22.9-8.6,37.4-30.9
			c13.5-20.7,13.7-53.5,13.7-53.5C175.1,66,150,67.7,150,67.7z"/>
	</defs>
	<clipPath id="SVGID_6_">
		<use xlink:href="#SVGID_5_"  style="overflow:visible;"/>
	</clipPath>
	<g class="st3">
		<path d="M148.8,144.2c0-1.1,0.1-2.3,0.1-3.4c0-0.8,0.1-1.6,0.1-2.4c0.1-1.3,0.1-2.6,0.2-3.9c0-1,0.1-2,0.1-3.1
			c0-0.4,0-0.8,0.1-1.2c0.1-0.5-0.6-1.2-1-1.2c-0.2,0-0.4,0-0.7,0c-0.9,0.1-1.9,0.2-2.8,0.4c-0.9,0.1-1.9,0.3-2.8,0.4
			c-1.1,0.2-2.2,0.3-3.4,0.5c-1,0.1-2,0.3-3,0.4c-0.3,0-0.5,0.1-0.8,0.1c0-0.1,0-0.1,0-0.2c0.4-1.2,0.7-2.3,1.1-3.5
			c0.2-0.7,0-1.5-0.6-2c-2.9-2.4-5.9-4.8-8.8-7.2c-1.4-1.2-2.9-2.3-4.3-3.5l-0.1-0.1c0,0,0.1,0,0.1-0.1c0.9-0.4,1.9-0.9,2.8-1.3
			c0.5-0.2,0.7-0.6,0.6-1.2c-0.4-1.7-0.9-3.4-1.3-5.1c-0.2-1.2-0.5-2.4-1-3.5c-0.1-0.2-0.1-0.2-0.1-0.3h0.1c2.5,0.5,5,1.1,7.5,1.6
			c0.6,0.1,1.3-0.3,1.5-0.9c0.3-1.1,0.6-2.2,1-3.4l0.1,0.1c2,2.3,4.1,4.6,6.1,6.8c0.3,0.4,0.7,0.6,1.2,0.6c0.3,0,0.7-0.2,0.8-0.5
			c0.2-0.3,0.2-0.7,0.1-1.1c-0.1-0.8-0.3-1.7-0.4-2.5c-0.3-1.8-0.7-3.6-1-5.3c-0.3-1.8-0.7-3.7-1-5.5c-0.1-0.4-0.1-0.7-0.2-1.1
			c0.1,0,0.1,0.1,0.2,0.1c1.2,0.6,2.3,1.2,3.5,1.8c0.3,0.2,0.6,0.3,1,0.3c0.5,0.1,1-0.1,1.3-0.6c0.2-0.2,0.5-0.8,0.5-0.8
			s4.2-8,4.5-8.4c0,0.1,0.1,0.1,0.1,0.2c1.6,2.9,3.1,5.9,4.7,8.8c0.2,0.4,0.5,0.7,1,0.8c0.4,0.1,0.7,0,1.1-0.1
			c0.2-0.1,0.3-0.2,0.5-0.2c1.1-0.6,2.2-1.2,3.4-1.7c0,0,0.1,0,0.1-0.1c-0.1,0.3-0.1,0.7-0.2,1c-0.4,1.9-0.7,3.9-1.1,5.8
			c-0.3,1.8-0.7,3.7-1,5.5c-0.1,0.7-0.3,1.4-0.4,2.2v0.7c0.1,0.6,0.7,1,1.2,0.8c0.4-0.1,0.6-0.3,0.9-0.6c2-2.3,4.1-4.5,6.1-6.8
			l0.1-0.1c0.1,0.4,0.2,0.8,0.3,1.2c0.2,0.7,0.4,1.5,0.6,2.2c0.2,0.6,0.8,1,1.4,0.9c2.5-0.5,5-1.1,7.6-1.6h0.1v0.1
			c-0.7,2.7-1.5,5.3-2.2,8c-0.1,0.3-0.2,0.7-0.2,1c0,0.4,0.2,0.8,0.6,0.9c0.9,0.4,1.9,0.9,2.8,1.3c0.1,0,0.1,0.1,0.2,0.1l-0.1,0.1
			c-4.4,3.6-8.8,7.1-13.2,10.7c-0.6,0.5-0.9,1.2-0.6,2.1c0.4,1.2,0.7,2.3,1.1,3.5v0.2c-0.4,0-0.7-0.1-1-0.1
			c-0.9-0.1-1.9-0.2-2.8-0.4c-1-0.2-2.1-0.3-3.1-0.5c-1.1-0.2-2.2-0.3-3.3-0.5c-1-0.1-2-0.2-3-0.4c-0.2,0-0.3,0-0.4,0.1
			c-0.4,0.3-0.7,0.7-0.7,1.2c0.1,2,0.1,4,0.2,5.9c0.1,2.4,0.1,4.8,0.2,7.2v0.7C150.3,144.2,149.5,144.2,148.8,144.2L148.8,144.2z"/>
	</g>
</g>
<path class="st4" d="M150,67.7c0,0-25.1-1.7-51.1,13.9c0,0,0.2,32.7,13.7,53.5C127.1,157.4,150,166,150,166s22.9-8.6,37.4-30.9
	c13.5-20.7,13.7-53.5,13.7-53.5C175.1,66,150,67.7,150,67.7z"/>
<path d="M137.5,202.3l-12.1-25.4l-0.1-0.1l0.2,19.7l-7-3.4v-30l8.3,3.9l12,25.3l0.1,0.1l-0.2-19.7l7,3.4v30L137.5,202.3z"/>
<path d="M105.1,186.9l-2.3-7l-11.6-5.5l-2.2,4.8l-7.9-3.8l12.6-24l7,3.4l12.5,36L105.1,186.9z M97,161.1l-3.8,8.5l7.5,3.6L97,161.1z
	"/>
<path d="M214.9,160.8c0,2.6-0.5,5.1-1.5,7.5s-2.3,4.6-3.9,6.6s-3.4,3.8-5.4,5.3s-4,2.8-6.1,3.8l-11.2,5.4v-30l10.8-5.2
	c2.1-1,4.2-1.8,6.3-2.3s3.9-0.6,5.5-0.2s2.9,1.3,3.9,2.7S214.9,158,214.9,160.8L214.9,160.8z M207.3,164.4c0-1.7-0.3-3-0.8-3.8
	c-0.6-0.9-1.3-1.4-2.2-1.6s-2-0.2-3.1,0.1c-1.2,0.3-2.4,0.7-3.6,1.3l-3.6,1.7v17.5l3.4-1.7c1.3-0.6,2.5-1.4,3.7-2.2
	c1.2-0.9,2.3-1.9,3.2-3s1.7-2.4,2.2-3.8C207.1,167.6,207.3,166.1,207.3,164.4L207.3,164.4z"/>
<path d="M74.2,170.9c-1.9,0.2-4.2-0.1-6.7-1c-2.3-0.8-4.5-1.9-6.4-3.4c-2-1.4-3.7-3.1-5.1-5s-2.6-4-3.4-6.2s-1.2-4.5-1.2-6.9
	s0.4-4.4,1.3-6.1c0.8-1.7,2-2.9,3.5-3.8s3.2-1.3,5.2-1.4c2,0,4.1,0.3,6.4,1.1c2.1,0.7,4.2,1.8,6.2,3.3s3.7,3.1,5,5l-4.9,3.2
	c-0.7-1.2-1.6-2.2-2.7-3s-2.2-1.5-3.4-1.9c-1.3-0.4-2.4-0.6-3.5-0.5s-2,0.4-2.7,1c-0.8,0.6-1.4,1.3-1.8,2.3s-0.6,2.1-0.6,3.4
	c0,1.4,0.2,2.7,0.6,4s1,2.4,1.8,3.5c0.7,1.1,1.6,2,2.7,2.8c1,0.8,2.2,1.4,3.4,1.9c1.4,0.5,2.7,0.7,3.8,0.5s1.9-0.6,2.6-1.3l5,6.5
	C77.8,170,76.2,170.6,74.2,170.9L74.2,170.9z"/>
<path d="M174.8,195l-2.3-4.8l-11.6,5.5l-2.2,6.9l-7.9,3.8l12.6-36l7-3.3l12.5,24.1L174.8,195z M166.8,176.9L163,189l7.5-3.6
	L166.8,176.9z"/>
<path d="M240.7,163.8l-2.3-4.8l-11.6,5.6l-2.2,6.9l-7.9,3.8l12.6-36l7-3.4l12.5,24L240.7,163.8z M232.7,145.7l-3.8,12.1l7.5-3.6
	L232.7,145.7z"/>
</svg>
